<?xml version="1.0" standalone="no"?>
<!DOCTYPE svg PUBLIC "-//W3C//DTD SVG 20010904//EN"
 "http://www.w3.org/TR/2001/REC-SVG-20010904/DTD/svg10.dtd">
<svg version="1.0" xmlns="http://www.w3.org/2000/svg"
 width="260.000000pt" height="260.000000pt" viewBox="0 0 260.000000 260.000000"
 preserveAspectRatio="xMidYMid meet">
<metadata>
Created by potrace 1.11, written by Peter Selinger 2001-2013
</metadata>
<g transform="translate(0.000000,260.000000) scale(0.100000,-0.100000)"
fill="#000000" stroke="none">
<path d="M1094 2430 c0 -22 -3 -40 -8 -40 -5 0 -7 -3 -4 -6 4 -3 0 -20 -7 -39
-8 -18 -11 -35 -8 -39 4 -3 1 -6 -5 -6 -7 0 -12 -6 -12 -14 0 -8 -24 -38 -54
-68 -59 -58 -86 -82 -86 -73 0 3 -19 -7 -42 -22 -24 -14 -45 -26 -48 -25 -3 1
-27 -12 -55 -27 -27 -16 -53 -29 -57 -30 -5 0 -17 -9 -27 -18 -38 -36 -71 -61
-71 -56 0 7 -125 -124 -161 -168 -16 -20 -34 -31 -51 -31 -21 0 -25 -5 -26
-32 -2 -46 -10 -76 -23 -92 -6 -8 -8 -14 -4 -14 5 0 0 -9 -10 -20 -10 -11 -15
-20 -10 -20 4 0 2 -6 -4 -13 -6 -8 -8 -17 -4 -20 3 -4 1 -7 -5 -7 -6 0 -14
-15 -17 -32 -4 -18 -10 -37 -13 -43 -8 -12 -13 -34 -15 -57 -1 -10 -4 -18 -7
-18 -3 0 -7 -10 -7 -22 -2 -36 -12 -88 -18 -98 -3 -6 0 -10 7 -10 9 0 10 -3 2
-8 -12 -7 -16 -232 -4 -232 3 0 6 -10 6 -22 1 -37 18 -114 36 -167 7 -20 13
-38 13 -41 1 -5 17 -42 48 -112 6 -16 15 -28 19 -28 5 0 8 -7 8 -16 0 -35 230
-304 260 -304 3 0 20 -12 37 -28 29 -25 184 -114 208 -118 6 -1 24 -8 40 -15
17 -6 35 -13 40 -14 6 -2 38 -10 72 -19 35 -9 78 -18 98 -19 19 -2 37 -6 41
-9 3 -3 20 -2 37 3 18 5 42 9 55 9 13 0 53 12 90 26 77 31 164 41 155 18 -3
-8 -9 -14 -15 -14 -5 0 -7 -4 -4 -9 4 -5 0 -12 -6 -14 -7 -3 1 -4 19 -2 18 2
37 6 43 10 11 7 47 16 68 17 6 1 12 5 12 10 0 5 4 7 8 4 5 -3 44 12 88 34 43
21 82 36 86 34 5 -3 8 -1 8 4 0 6 15 19 33 30 67 41 157 123 157 143 0 7 2 10
6 7 7 -8 114 95 114 111 0 7 5 9 10 6 6 -3 10 1 10 9 0 9 4 16 8 16 5 0 14 12
20 26 7 15 17 22 24 18 7 -4 8 -3 4 5 -4 6 0 14 8 17 9 3 14 10 11 14 -3 4 4
18 14 31 28 36 90 179 97 224 1 6 3 12 4 15 1 3 3 12 5 20 2 8 7 26 10 40 4
14 8 44 8 67 1 24 4 43 7 43 3 0 5 11 5 25 0 14 -3 25 -6 25 -5 0 -5 57 1 70
10 23 -12 179 -34 245 -2 6 -7 25 -11 43 -4 17 -12 32 -17 32 -5 0 -7 4 -4 8
3 5 -11 40 -30 78 -19 38 -36 87 -37 109 -2 27 -8 40 -17 41 -8 1 -24 2 -34 3
-11 0 -16 4 -13 8 4 3 -7 19 -23 35 -17 15 -30 30 -30 33 0 18 -204 185 -227
185 -6 0 -13 3 -15 8 -4 10 -101 61 -124 65 -10 2 -37 12 -59 22 -22 9 -44 18
-50 20 -5 1 -23 8 -40 14 -16 7 -34 14 -40 15 -5 1 -16 5 -22 9 -7 5 -13 5
-13 1 0 -4 -9 1 -20 11 -11 10 -20 15 -20 11 0 -8 -104 45 -108 56 -2 5 -7 6
-12 3 -4 -3 -13 2 -20 10 -7 8 -19 15 -26 15 -8 0 -14 5 -14 10 0 6 -7 10 -15
10 -8 0 -15 5 -15 10 0 6 -4 10 -10 10 -18 0 -152 125 -143 134 4 3 -1 6 -9 6
-12 0 -16 -10 -14 -40z"/>
</g>
</svg>
