<?xml version="1.0" encoding="UTF-8" standalone="no"?>
<!DOCTYPE svg PUBLIC "-//W3C//DTD SVG 1.1//EN" "http://www.w3.org/Graphics/SVG/1.1/DTD/svg11.dtd">
<svg width="100%" height="100%" viewBox="0 0 65 68" version="1.1" xmlns="http://www.w3.org/2000/svg" xmlns:xlink="http://www.w3.org/1999/xlink" xml:space="preserve" xmlns:serif="http://www.serif.com/" style="fill-rule:evenodd;clip-rule:evenodd;stroke-linejoin:round;stroke-miterlimit:2;">
    <g transform="matrix(1,0,0,1,-690.851,-22.3809)">
        <path d="M746.562,77.304L746.566,77.309C742.17,82.159 742.893,86.637 743.735,88.904C743.923,89.412 743.398,89.879 742.906,89.652C736.719,86.802 729.584,86.818 725.861,87.108C725.779,87.114 725.706,87.11 725.626,87.113C715.832,87.83 705.769,84.128 698.695,75.964C689.106,64.898 688.222,48.502 696.524,36.439C699.066,32.744 702.177,29.822 705.609,27.592C704.776,30.242 704.523,33.103 704.958,35.966C705.569,30.682 708.845,25.923 713.991,23.78C714.235,23.678 714.483,23.598 714.73,23.516C725.516,20.59 737.524,23.317 746.042,31.742C758.68,44.24 758.876,64.555 746.562,77.304ZM710.321,67.917L737.113,67.917C738.745,67.917 740.069,66.593 740.069,64.962C740.069,63.331 738.745,62.006 737.113,62.006L710.321,62.006C708.69,62.006 707.366,63.331 707.366,64.962C707.366,66.593 708.69,67.917 710.321,67.917ZM710.321,58.577L737.113,58.577C738.745,58.577 740.069,57.253 740.069,55.622C740.069,53.991 738.745,52.666 737.113,52.666L710.321,52.666C708.69,52.666 707.366,53.991 707.366,55.622C707.366,57.253 708.69,58.577 710.321,58.577ZM710.321,49.238L737.113,49.238C738.745,49.238 740.069,47.913 740.069,46.282C740.069,44.651 738.745,43.327 737.113,43.327L710.321,43.327C708.69,43.327 707.366,44.651 707.366,46.282C707.366,47.913 708.69,49.238 710.321,49.238Z" style="fill:rgb(30,30,28);fill-rule:nonzero;"/>
    </g>
</svg>
