<?xml version="1.0" encoding="UTF-8" standalone="no"?>
<!DOCTYPE svg PUBLIC "-//W3C//DTD SVG 1.1//EN" "http://www.w3.org/Graphics/SVG/1.1/DTD/svg11.dtd">
<svg width="100%" height="100%" viewBox="0 0 65 68" version="1.1" xmlns="http://www.w3.org/2000/svg" xmlns:xlink="http://www.w3.org/1999/xlink" xml:space="preserve" xmlns:serif="http://www.serif.com/" style="fill-rule:evenodd;clip-rule:evenodd;stroke-linejoin:round;stroke-miterlimit:2;">
    <g transform="matrix(1,0,0,1,55.71,10.7841)">
        <path d="M0,44.139L0.004,44.144C-4.392,48.994 -3.669,53.472 -2.827,55.739C-2.639,56.247 -3.164,56.714 -3.656,56.487C-9.842,53.637 -16.977,53.653 -20.7,53.943C-20.782,53.949 -20.855,53.945 -20.935,53.948C-30.729,54.665 -40.793,50.963 -47.866,42.799C-57.456,31.733 -58.339,15.337 -50.038,3.274C-47.496,-0.421 -44.385,-3.343 -40.953,-5.573C-41.785,-2.923 -42.039,-0.062 -41.604,2.801C-40.993,-2.483 -37.717,-7.242 -32.57,-9.385C-32.326,-9.487 -32.079,-9.567 -31.832,-9.649C-21.045,-12.575 -9.037,-9.848 -0.519,-1.423C12.118,11.075 12.315,31.39 0,44.139" style="fill:rgb(30,30,28);fill-rule:nonzero;"/>
    </g>
    <g transform="matrix(1,0,0,1,44.295,18.355)">
        <path d="M0,30.76L-7.046,30.76C-7.993,30.76 -8.707,30.382 -9.024,29.499L-11.479,22.754L-14.324,29.499C-14.644,30.256 -15.117,30.76 -16.306,30.76L-23.11,30.76C-23.903,30.76 -24.377,30.571 -24.377,30.004C-24.377,29.814 -24.22,29.121 -23.981,28.68C-18.124,19.162 -16.306,16.01 -15.91,15.191C-16.225,14.498 -18.917,9.519 -23.271,2.207C-23.665,1.639 -23.903,1.071 -23.903,0.631C-23.903,0.126 -23.509,0 -22.716,0L-15.989,0C-14.801,0 -14.011,0.505 -13.613,1.45L-11.24,8.006L-8.626,1.45C-8.391,0.567 -7.598,0 -6.332,0L-0.238,0C0.552,0 1.028,0.126 1.028,0.694C1.028,1.009 0.712,1.765 0.474,2.207C-3.799,9.455 -6.175,13.867 -6.727,14.876C-6.253,15.885 -4.908,18.468 1.028,28.68C1.186,28.932 1.424,29.689 1.424,30.004C1.424,30.382 1.186,30.76 0,30.76" style="fill:rgb(0,188,181);fill-rule:nonzero;"/>
    </g>
</svg>
