<?xml version="1.0" encoding="UTF-8" standalone="no"?>
<!DOCTYPE svg PUBLIC "-//W3C//DTD SVG 1.1//EN" "http://www.w3.org/Graphics/SVG/1.1/DTD/svg11.dtd">
<svg width="100%" height="100%" viewBox="0 0 4069 3912" version="1.1" xmlns="http://www.w3.org/2000/svg" xmlns:xlink="http://www.w3.org/1999/xlink" xml:space="preserve" xmlns:serif="http://www.serif.com/" style="fill-rule:evenodd;clip-rule:evenodd;stroke-linejoin:round;stroke-miterlimit:2;">
    <g transform="matrix(4.16667,0,0,4.16667,748.033,589.178)">
        <path d="M0,664.31L-0.072,664.366C-70.087,600.414 -134.978,610.625 -167.876,622.688C-175.245,625.389 -181.973,617.753 -178.66,610.637C-137.021,521.189 -136.845,417.837 -140.824,363.881C-140.912,362.696 -140.854,361.63 -140.885,360.489C-150.711,218.557 -96.503,73.003 22.152,-28.995C183.01,-167.27 420.566,-179.122 594.832,-58.181C648.199,-21.144 690.354,24.09 722.46,73.931C684.119,61.719 642.695,57.884 601.2,64.024C677.698,73.171 746.449,120.908 777.21,195.573C778.668,199.115 779.802,202.703 780.985,206.286C822.758,362.705 782.562,536.49 660.029,659.406C478.257,841.745 183.969,843.432 0,664.31" style="fill:rgb(31,31,29);fill-rule:nonzero;"/>
    </g>
    <g transform="matrix(4.16667,0,0,4.16667,967.519,2915.84)">
        <path d="M0,-144.363C-9.722,-144.363 -12.668,-143.773 -12.668,-134.64L-12.668,-92.51C-12.668,-85.734 -10.9,-84.261 -2.356,-84.261C9.723,-84.261 15.32,-91.332 15.32,-115.785C15.32,-134.051 9.428,-144.363 0,-144.363M31.229,-76.601C25.337,-67.762 13.258,-60.692 -0.884,-60.692C-3.83,-60.692 -9.428,-60.986 -12.668,-61.576C-12.668,-47.139 -12.079,-21.213 -11.784,-6.482C-11.195,7.954 -11.195,15.908 -11.195,17.382C-11.195,20.622 -12.963,23.569 -16.793,23.569L-33.881,23.569C-37.416,23.569 -39.184,20.917 -39.184,17.382C-39.184,15.614 -39.184,3.829 -38.595,-18.561C-38.3,-40.658 -38.005,-58.335 -38.005,-72.181C-38.005,-86.029 -38.3,-103.706 -38.595,-125.802C-39.184,-147.898 -39.184,-159.683 -39.184,-161.451C-39.184,-165.281 -37.416,-167.932 -33.881,-167.932L0.884,-167.932C13.258,-167.932 24.748,-164.102 31.819,-152.023C37.122,-142.3 40.363,-129.633 40.363,-113.428C40.363,-96.046 36.827,-85.439 31.229,-76.601" style="fill:white;fill-rule:nonzero;"/>
    </g>
    <g transform="matrix(4.16667,0,0,4.16667,1506.41,2216.12)">
        <path d="M0,191.501L-65.11,191.501C-68.646,191.501 -70.413,188.85 -70.413,185.314C-70.413,183.546 -70.413,171.762 -69.824,149.371C-69.529,127.274 -69.234,109.598 -69.234,95.751C-69.234,81.903 -69.529,64.227 -69.824,42.13C-70.413,20.034 -70.413,8.249 -70.413,6.481C-70.413,2.651 -68.646,0 -65.11,0L-1.179,0C2.357,0 5.598,2.651 5.304,5.598L4.125,18.855C4.125,20.623 2.357,23.864 -3.24,23.864L-38.3,23.864C-41.246,23.864 -43.897,25.043 -43.897,28.872L-43.897,78.073C-43.897,80.431 -43.309,82.198 -39.773,82.198L-16.498,82.198C-12.668,82.198 -11.49,83.966 -11.49,87.796L-11.49,99.581C-11.49,104.589 -14.142,105.768 -16.498,105.768L-39.479,105.768C-42.425,105.768 -43.897,106.946 -43.897,110.187L-43.897,160.272C-43.897,164.69 -40.362,167.637 -32.407,167.637L-2.356,167.637C2.946,167.637 4.419,169.994 4.714,173.824L5.304,187.082C5.598,190.028 2.946,191.501 0,191.501" style="fill:white;fill-rule:nonzero;"/>
    </g>
    <g transform="matrix(4.16667,0,0,4.16667,1771.54,2915.84)">
        <path d="M0,-144.363C-10.605,-144.363 -12.668,-142.889 -12.668,-134.935L-12.668,-91.627C-12.668,-86.913 -11.784,-85.145 -3.535,-85.145C8.25,-85.145 15.025,-90.743 15.025,-114.312C15.025,-135.23 10.901,-144.363 0,-144.363M42.425,23.569L26.811,23.569C23.275,23.569 20.329,22.39 19.445,17.676C18.267,10.9 17.088,1.472 15.32,-13.259C12.374,-34.765 9.134,-46.256 6.776,-51.558C3.83,-58.924 -0.294,-61.576 -6.187,-61.576L-12.668,-61.576C-12.374,-47.139 -12.079,-21.213 -11.195,-6.482C-10.605,7.954 -10.312,15.908 -10.312,17.382C-10.312,20.622 -12.079,23.569 -15.614,23.569L-33.881,23.569C-37.416,23.569 -39.184,20.917 -39.184,17.382C-39.184,15.614 -39.184,3.829 -38.595,-18.561C-38.3,-40.658 -38.005,-58.335 -38.005,-72.181C-38.005,-86.029 -38.3,-103.706 -38.595,-125.802C-39.184,-147.898 -39.184,-159.683 -39.184,-161.451C-39.184,-165.281 -37.416,-167.932 -33.881,-167.932L2.946,-167.932C13.848,-167.932 23.569,-164.102 30.641,-154.675C37.417,-146.131 40.362,-134.64 40.362,-118.436C40.362,-90.743 30.346,-78.369 20.918,-72.476C31.819,-63.343 33.881,-53.326 46.255,14.73C46.55,16.203 47.139,18.855 47.139,20.033C47.139,21.801 46.55,23.569 42.425,23.569" style="fill:white;fill-rule:nonzero;"/>
    </g>
    <g transform="matrix(4.16667,0,0,4.16667,2368.1,2572.11)">
        <path d="M0,20.625C-9.722,20.625 -10.9,22.098 -10.9,28.579L-10.9,52.443C-10.9,79.253 -10.312,82.494 -2.356,82.494L2.946,82.494C14.437,82.494 19.739,76.308 19.739,54.8C19.739,40.069 14.437,20.625 0,20.625M3.83,-61.868C-10.606,-61.868 -10.9,-61.278 -10.9,-47.138L-10.9,-9.721C-10.9,-3.828 -10.017,-2.65 -0.589,-2.65C12.963,-2.65 18.562,-11.194 18.562,-34.174C18.562,-51.851 12.963,-61.868 3.83,-61.868M9.134,106.063L-32.113,106.063C-35.648,106.063 -37.416,103.412 -37.416,99.877C-37.416,98.108 -37.416,86.324 -36.827,63.934C-36.532,41.837 -36.237,24.16 -36.237,10.313C-36.237,-3.534 -36.532,-21.211 -36.827,-43.308C-37.416,-65.403 -37.416,-77.188 -37.416,-78.956C-37.416,-82.786 -35.648,-85.438 -32.113,-85.438L7.365,-85.438C29.167,-85.438 43.604,-63.931 43.604,-37.12C43.604,-14.435 36.827,0.001 23.864,8.251C39.479,16.5 45.076,36.534 45.076,57.452C45.076,84.262 32.113,106.063 9.134,106.063" style="fill:white;fill-rule:nonzero;"/>
    </g>
    <g transform="matrix(4.16667,0,0,4.16667,2790.38,2747.66)">
        <path d="M0,-64.226C-0.295,-66.289 -1.179,-70.707 -1.473,-71.886C-2.063,-70.707 -2.651,-65.994 -2.946,-64.226L-12.963,-0.294C-13.258,1.768 -12.963,3.241 -10.9,3.241L7.66,3.241C9.133,3.241 10.312,1.768 10.018,-0.294L0,-64.226ZM41.836,63.932L25.337,63.932C22.686,63.932 20.034,63.343 19.445,60.102L14.73,31.23C14.437,28.579 12.374,26.81 8.544,26.81L-11.784,26.81C-14.437,26.81 -17.677,27.989 -17.972,31.23L-22.686,59.513C-22.98,62.46 -25.042,63.932 -28.578,63.932L-42.72,63.932C-45.665,63.932 -48.906,62.46 -48.906,58.04C-48.906,56.567 -46.844,46.549 -42.72,27.989C-35.06,-7.365 -26.221,-50.968 -19.444,-90.153C-16.498,-107.83 -15.025,-118.141 -14.437,-120.204C-13.553,-126.095 -11.195,-128.158 -5.893,-128.158L4.125,-128.158C8.249,-128.158 11.785,-126.39 12.374,-120.204C12.669,-118.436 14.142,-108.418 17.383,-90.153C23.864,-53.031 32.702,-8.543 40.657,28.579C44.782,47.434 46.844,57.156 46.844,58.04C46.844,60.986 45.666,63.932 41.836,63.932" style="fill:white;fill-rule:nonzero;"/>
    </g>
    <g transform="matrix(4.16667,0,0,4.16667,3342.79,2206.31)">
        <path d="M0,195.92L-7.071,195.92C-8.839,195.92 -9.723,195.33 -10.606,192.974C-11.196,191.206 -12.374,188.555 -13.258,185.314C-14.731,187.376 -16.794,189.733 -20.329,192.385C-23.275,194.741 -29.167,195.92 -33.587,195.92L-38.89,195.92C-51.264,195.92 -60.396,191.206 -66.878,181.483C-73.065,172.056 -76.012,162.333 -76.012,152.905C-76.012,148.781 -76.012,134.934 -75.717,123.738C-75.422,112.543 -75.128,103.705 -75.128,98.107C-75.128,92.215 -75.422,83.671 -75.717,72.476C-76.012,61.28 -76.012,47.139 -76.012,43.014C-76.012,33.881 -73.065,23.863 -66.878,14.731C-60.396,5.008 -51.264,0 -38.89,0L-34.176,0C-27.694,0 -21.508,1.473 -15.32,3.83C-11.49,5.303 -6.481,8.249 -4.714,9.722C-3.536,10.9 -2.063,12.668 -2.063,14.142C-2.063,15.614 -2.652,16.793 -2.946,17.382C-5.009,21.212 -8.25,27.399 -9.723,31.229C-10.018,31.818 -10.901,33.291 -11.785,33.291C-12.964,33.291 -14.437,32.407 -15.32,31.818C-21.508,27.105 -27.989,23.863 -35.649,23.863C-41.541,23.863 -48.022,28.577 -48.907,38.3C-49.791,48.023 -50.085,69.529 -50.085,98.107C-50.085,126.685 -49.791,148.191 -48.907,157.619C-48.022,167.637 -41.541,172.056 -35.649,172.056C-27.105,172.056 -23.569,164.691 -23.569,157.325L-23.569,124.033C-23.569,117.257 -25.632,115.784 -30.641,115.489C-32.703,115.194 -34.176,113.427 -34.176,110.187L-34.176,98.401C-34.176,95.161 -32.997,92.51 -30.346,92.51L-2.063,92.51C0.294,92.51 2.356,94.571 2.356,97.813C2.356,99.285 2.356,105.178 1.768,115.784C1.473,126.096 1.178,134.64 1.178,141.121C1.178,147.898 1.178,157.325 1.768,169.699C2.062,182.072 2.356,190.027 2.356,191.5C2.356,193.857 2.062,195.92 0,195.92" style="fill:white;fill-rule:nonzero;"/>
    </g>
    <g transform="matrix(4.16667,0,0,4.16667,1642.48,1097.15)">
        <path d="M0,-68.017C-0.366,-54.267 -0.55,-43.267 -0.55,-34.65C-0.55,-26.033 -0.366,-25.666 -0.184,-18.7C0,-11.733 0,-3.117 0,-0.55C0,5.317 -1.833,11.367 -5.684,17.233C-9.717,23.284 -15.4,26.217 -23.101,26.217L-25.483,26.217C-33.184,26.217 -38.867,23.284 -42.9,17.233C-46.751,11.367 -48.583,5.317 -48.583,-0.55C-48.583,-3.117 -48.583,-11.733 -48.4,-18.7C-48.217,-25.666 -48.034,-30.983 -48.034,-34.65C-48.034,-43.267 -48.217,-54.267 -48.583,-68.017C-48.767,-81.767 -48.95,-89.1 -48.95,-90.2C-48.95,-92.583 -47.667,-94.234 -45.467,-94.234L-34.833,-94.234C-32.817,-94.234 -31.534,-92.583 -31.534,-90.2C-31.534,-89.1 -31.717,-81.767 -31.9,-68.017C-32.267,-54.267 -32.45,-43.267 -32.45,-34.65C-32.45,-26.033 -32.267,-3.483 -31.717,2.383C-31.167,8.617 -27.866,11.367 -23.467,11.367C-19.25,11.367 -15.95,8.617 -15.4,2.383C-14.851,-3.483 -14.667,-26.033 -14.667,-34.65C-14.667,-43.267 -14.851,-54.267 -15.034,-68.017C-15.4,-81.767 -15.583,-89.1 -15.583,-90.2C-15.583,-92.583 -14.3,-94.234 -12.101,-94.234L-3.116,-94.234C-0.917,-94.234 0.366,-92.583 0.366,-90.2C0.366,-89.1 0.183,-81.767 0,-68.017" style="fill:white;fill-rule:nonzero;"/>
    </g>
    <g transform="matrix(4.16667,0,0,4.16667,1906.78,704.516)">
        <path d="M0,119.167L-8.616,119.167C-10.45,119.167 -12.467,117.7 -13.2,115.317C-15.4,105.784 -20.717,86.534 -23.833,75.167C-26.034,67.467 -31.718,48.767 -32.45,45.833L-32.45,67.283C-32.45,69.3 -32.45,80.117 -32.083,92.4C-31.718,104.684 -31.534,114.034 -31.534,115.317C-31.534,117.334 -32.634,119.167 -34.65,119.167L-44.367,119.167C-46.567,119.167 -47.667,117.517 -47.667,115.317C-47.667,114.217 -47.667,106.884 -47.3,92.95C-47.117,79.2 -46.934,68.2 -46.934,59.584C-46.934,50.967 -47.117,39.967 -47.3,26.216C-47.667,12.466 -47.667,5.133 -47.667,4.033C-47.667,1.65 -46.567,0 -44.367,0L-35.567,0C-33.55,0 -31.9,1.1 -31.167,4.033L-11.917,73.334L-11.917,51.7C-11.917,50.783 -11.917,37.033 -12.284,25.483C-12.65,14.116 -12.833,5.133 -12.833,4.033C-12.833,1.65 -11.55,0 -9.717,0L0,0C2.2,0 3.483,1.65 3.483,4.033C3.483,5.133 3.3,12.466 2.933,26.216C2.75,39.967 2.566,50.967 2.566,59.584C2.566,68.2 2.75,79.2 2.933,92.95C3.3,106.884 3.483,114.217 3.483,115.317C3.483,117.517 2.2,119.167 0,119.167" style="fill:white;fill-rule:nonzero;"/>
    </g>
    <g transform="matrix(4.16667,0,0,4.16667,2124.49,1102.5)">
        <path d="M0,-71.867C-0.551,-77.917 -3.852,-80.667 -8.25,-80.667C-15.4,-80.667 -15.768,-80.484 -16.318,-74.434C-16.867,-68.384 -17.051,-53.717 -17.051,-35.933C-17.051,-18.15 -16.867,-3.483 -16.318,2.567C-15.768,8.617 -15.4,8.8 -8.25,8.8C-3.852,8.8 -0.551,5.867 0,-0.183C0.549,-6.233 0.732,-18.15 0.732,-35.933C0.732,-53.717 0.549,-65.817 0,-71.867M11.184,14.667C7.148,20.533 1.467,23.65 -6.418,23.65L-30.251,23.65C-32.451,23.65 -33.551,22 -33.551,19.8C-33.551,18.7 -33.551,11.367 -33.184,-2.567C-33.001,-16.317 -32.817,-27.317 -32.817,-35.933C-32.817,-44.55 -33.001,-55.55 -33.184,-69.301C-33.551,-83.051 -33.551,-90.384 -33.551,-91.484C-33.551,-93.867 -32.451,-95.517 -30.251,-95.517L-6.418,-95.517C1.467,-95.517 7.148,-92.584 11.184,-86.534C15.033,-80.667 16.684,-74.617 16.865,-68.75C16.865,-66.184 16.684,-58.85 16.5,-51.884C16.316,-44.917 16.316,-39.6 16.316,-35.933C16.316,-32.267 16.316,-26.95 16.5,-19.984C16.684,-13.017 16.865,-5.683 16.865,-3.117C16.684,2.75 15.033,8.8 11.184,14.667" style="fill:white;fill-rule:nonzero;"/>
    </g>
    <g transform="matrix(4.16667,0,0,4.16667,2443.02,704.516)">
        <path d="M0,119.167L-40.518,119.167C-42.717,119.167 -43.816,117.517 -43.816,115.317C-43.816,114.217 -43.816,106.884 -43.451,92.95C-43.268,79.2 -43.084,68.2 -43.084,59.584C-43.084,50.967 -43.268,39.967 -43.451,26.216C-43.816,12.466 -43.816,5.133 -43.816,4.033C-43.816,1.65 -42.717,0 -40.518,0L-0.734,0C1.467,0 3.482,1.65 3.301,3.483L2.566,11.733C2.566,12.833 1.467,14.85 -2.018,14.85L-23.834,14.85C-25.666,14.85 -27.316,15.583 -27.316,17.966L-27.316,48.584C-27.316,50.05 -26.951,51.15 -24.75,51.15L-10.268,51.15C-7.883,51.15 -7.15,52.25 -7.15,54.633L-7.15,61.967C-7.15,65.084 -8.801,65.817 -10.268,65.817L-24.566,65.817C-26.4,65.817 -27.316,66.55 -27.316,68.567L-27.316,99.733C-27.316,102.483 -25.117,104.317 -20.166,104.317L-1.467,104.317C1.834,104.317 2.75,105.784 2.934,108.167L3.301,116.417C3.482,118.25 1.834,119.167 0,119.167" style="fill:white;fill-rule:nonzero;"/>
    </g>
    <g transform="matrix(4.16667,0,0,4.16667,2608.01,1139.93)">
        <path d="M0,-89.833C-6.602,-89.833 -7.885,-88.916 -7.885,-83.966L-7.885,-57.016C-7.885,-54.083 -7.334,-52.983 -2.201,-52.983C5.133,-52.983 9.35,-56.466 9.35,-71.133C9.35,-84.15 6.783,-89.833 0,-89.833M26.398,14.667L16.682,14.667C14.482,14.667 12.648,13.934 12.1,11.001C11.365,6.784 10.633,0.917 9.533,-8.25C7.699,-21.633 5.682,-28.783 4.215,-32.083C2.383,-36.666 -0.184,-38.316 -3.852,-38.316L-7.885,-38.316C-7.701,-29.333 -7.518,-13.199 -6.967,-4.033C-6.602,4.951 -6.418,9.901 -6.418,10.817C-6.418,12.834 -7.518,14.667 -9.717,14.667L-21.084,14.667C-23.285,14.667 -24.385,13.018 -24.385,10.817C-24.385,9.717 -24.385,2.384 -24.018,-11.549C-23.834,-25.299 -23.65,-36.299 -23.65,-44.916C-23.65,-53.533 -23.834,-64.533 -24.018,-78.283C-24.385,-92.033 -24.385,-99.367 -24.385,-100.466C-24.385,-102.85 -23.285,-104.5 -21.084,-104.5L1.832,-104.5C8.615,-104.5 14.666,-102.117 19.066,-96.25C23.283,-90.933 25.115,-83.783 25.115,-73.7C25.115,-56.466 18.883,-48.766 13.016,-45.1C19.799,-39.416 21.082,-33.183 28.783,9.167C28.967,10.084 29.332,11.734 29.332,12.467C29.332,13.567 28.967,14.667 26.398,14.667" style="fill:white;fill-rule:nonzero;"/>
    </g>
    <g transform="matrix(4.16667,0,0,4.16667,1034.51,1387.94)">
        <path d="M0,164.216L-38.906,164.216C-41.433,164.216 -43.454,162.447 -43.454,158.91C-43.454,157.395 -43.201,147.289 -42.443,128.089C-41.686,109.14 -41.433,93.982 -41.181,82.108C-41.181,77.308 -41.181,72.255 -41.433,66.697C-41.433,60.886 -41.686,57.349 -41.938,50.781C-42.19,46.738 -43.454,45.728 -46.485,45.728C-48.254,45.728 -50.275,44.97 -50.275,42.444L-50.275,28.801C-50.275,26.022 -49.265,24.506 -45.728,22.485C-40.422,19.706 -35.622,13.643 -32.843,5.558C-32.338,3.537 -30.569,0 -27.285,0L0,0C2.526,0 4.548,1.769 4.548,5.558C4.548,6.821 4.295,16.927 3.284,36.128C2.526,54.823 2.273,70.234 2.273,82.108C2.273,93.73 2.526,109.14 3.284,128.089C4.042,147.036 4.548,157.142 4.548,158.91C4.548,161.69 3.031,164.216 0,164.216" style="fill:white;fill-rule:nonzero;"/>
    </g>
    <g transform="matrix(4.16667,0,0,4.16667,1430.3,1636.37)">
        <path d="M0,44.97C-1.516,42.696 -4.548,41.686 -9.095,41.686C-13.643,41.686 -16.674,42.696 -18.442,44.97C-19.958,46.991 -20.716,49.517 -20.969,52.044C-20.969,54.823 -20.211,57.097 -18.442,59.37C-16.927,61.644 -13.896,62.402 -9.095,62.655C-4.8,62.655 -1.769,61.644 0,59.37C1.516,57.097 2.273,54.823 2.273,52.044C2.273,49.517 1.769,47.244 0,44.97M34.359,91.961C26.78,101.056 16.422,105.604 3.284,105.604L-23.243,105.604C-37.644,105.604 -48.507,101.056 -55.581,91.708C-62.402,82.614 -65.938,73.518 -66.191,64.676C-66.191,60.634 -65.938,54.065 -65.434,44.465C-64.929,34.865 -64.676,27.538 -64.676,22.485C-64.676,17.432 -64.929,10.106 -65.434,0.506C-65.938,-9.095 -66.191,-15.916 -66.191,-19.706C-66.191,-28.548 -62.654,-37.643 -55.581,-46.738C-48.507,-56.086 -37.896,-60.634 -23.243,-60.634L-6.063,-60.634C3.284,-60.634 12.38,-59.117 21.728,-56.339C30.569,-53.307 37.139,-50.78 40.928,-48.759C42.696,-48.001 43.96,-46.233 43.96,-44.212C43.96,-42.696 43.201,-41.18 42.696,-40.422C37.896,-31.074 33.349,-18.695 30.064,-8.084C29.812,-6.821 29.054,-6.063 27.79,-6.063C27.032,-6.063 25.77,-6.821 24.254,-7.832C19.706,-11.116 14.4,-13.39 8.337,-15.158C2.526,-16.926 -2.526,-17.685 -6.821,-17.685C-11.874,-17.685 -15.411,-16.674 -18.189,-14.4C-20.716,-12.127 -21.979,-9.347 -21.979,-5.558L-21.979,15.664C-19.706,12.632 -16.422,10.106 -12.379,7.832C-8.084,5.558 -3.284,4.295 2.779,4.295C16.169,4.295 26.527,8.337 34.359,16.422C42.191,24.759 46.233,36.633 46.233,52.297C46.233,69.729 42.443,82.866 34.359,91.961" style="fill:white;fill-rule:nonzero;"/>
    </g>
    <g transform="matrix(4.16667,0,0,4.16667,1985.04,1864.8)">
        <path d="M0,-64.676C-0.758,-69.982 -4.042,-72.508 -9.853,-72.508C-15.916,-72.508 -19.2,-69.982 -19.958,-64.676C-20.716,-59.118 -20.969,-48.507 -20.969,-32.338C-20.969,-16.422 -20.716,-5.558 -19.958,-0.253C-19.2,5.305 -15.916,7.832 -9.853,7.832C-4.042,7.832 -0.758,5.305 0,-0.253C0.758,-5.558 1.011,-16.422 1.011,-32.338C1.011,-48.507 0.758,-59.118 0,-64.676M35.622,36.885C28.296,45.98 17.685,50.781 3.284,50.781L-23.243,50.781C-37.644,50.781 -48.254,45.98 -55.581,36.885C-62.654,28.042 -65.938,18.695 -66.191,9.853C-66.191,5.81 -65.938,-0.758 -65.434,-10.359C-64.929,-19.959 -64.676,-27.285 -64.676,-32.338C-64.676,-37.391 -64.929,-44.718 -65.434,-54.318C-65.938,-63.918 -66.191,-70.739 -66.191,-74.529C-65.938,-83.371 -62.654,-92.719 -55.581,-101.814C-48.254,-110.909 -37.644,-115.457 -23.243,-115.457L3.284,-115.457C17.685,-115.457 28.296,-110.909 35.622,-101.814C42.696,-92.719 45.98,-83.371 46.233,-74.529C46.233,-70.739 45.98,-63.918 45.476,-54.318C44.97,-44.718 44.718,-37.391 44.718,-32.338C44.718,-27.285 44.97,-19.959 45.476,-10.359C45.98,-0.758 46.233,5.81 46.233,9.853C45.98,18.695 42.696,28.042 35.622,36.885" style="fill:white;fill-rule:nonzero;"/>
    </g>
    <g transform="matrix(4.16667,0,0,4.16667,2551.05,1630.48)">
        <path d="M0,106.005L-25.255,106.005C-27.186,106.005 -28.633,104.879 -29.276,102.788C-29.276,102.788 -37.319,80.268 -37.48,80.268L-42.628,87.345C-42.306,96.515 -42.146,101.501 -42.146,102.466C-42.146,104.397 -43.11,106.005 -45.04,106.005L-68.848,106.005C-70.778,106.005 -71.743,104.397 -71.743,102.466C-71.743,101.501 -71.582,95.871 -71.261,85.736C-70.778,75.442 -70.617,64.504 -70.617,53.083C-70.778,41.501 -70.938,30.563 -71.261,20.268C-71.743,9.973 -71.743,4.343 -71.743,3.378C-71.743,1.126 -70.456,0 -68.848,0L-45.04,0C-43.432,0 -42.146,1.126 -42.146,3.378C-42.146,4.343 -42.306,9.973 -42.628,20.268C-43.11,29.758 -43.271,39.732 -43.271,50.509L-30.885,30.241C-29.92,28.632 -29.115,27.506 -27.346,27.506L-3.378,27.506C-1.77,27.506 -0.805,28.311 -0.805,29.276C-0.805,30.884 -1.77,32.171 -2.574,33.297L-20.912,57.908L1.286,100.696C2.091,102.145 2.573,103.109 2.573,104.074C2.573,105.2 1.93,106.005 0,106.005" style="fill:white;fill-rule:nonzero;"/>
    </g>
    <g transform="matrix(4.16667,0,0,4.16667,2836.58,1767.21)">
        <path d="M0,67.881C-5.47,71.099 -14.96,73.833 -23.969,73.833L-32.654,73.833C-43.271,73.833 -49.866,70.777 -53.727,66.434C-58.392,60.964 -59.84,56.943 -59.84,50.991C-59.84,49.061 -59.84,47.452 -59.679,43.592C-59.518,39.892 -59.357,36.353 -59.357,33.94C-59.357,31.527 -59.518,27.828 -59.679,24.128C-59.84,20.267 -59.84,18.819 -59.84,16.889C-59.84,10.938 -58.392,6.755 -53.727,1.447C-49.866,-3.057 -43.271,-5.952 -32.654,-5.952L-23.969,-5.952C-14.96,-5.952 -5.47,-3.218 0,-0.162C1.93,1.125 3.056,1.769 3.056,2.895C3.056,4.181 2.252,5.468 1.608,6.273C0.482,8.042 -2.896,17.211 -3.379,19.624C-3.539,20.911 -4.183,21.393 -5.47,21.393C-6.757,21.393 -7.561,20.911 -9.652,19.624C-15.926,15.924 -21.073,14.637 -25.255,14.637C-29.276,14.637 -30.563,16.407 -31.207,18.498C-31.851,21.071 -32.011,26.219 -32.011,33.94C-32.011,41.661 -31.851,46.648 -31.207,49.382C-30.563,51.474 -29.276,53.082 -25.255,53.082C-21.073,53.082 -15.926,51.956 -9.652,48.096C-7.561,46.809 -6.757,46.326 -5.47,46.326C-4.183,46.326 -3.539,46.97 -3.379,48.256C-2.896,50.669 0.482,59.838 1.608,61.608C2.252,62.412 3.056,63.538 3.056,64.985C3.056,66.111 1.93,66.755 0,67.881" style="fill:white;fill-rule:nonzero;"/>
    </g>
    <g transform="matrix(4.16667,0,0,4.16667,3045.02,1846.3)">
        <path d="M0,29.918C0,26.862 -1.931,24.127 -6.435,24.127C-11.903,24.127 -13.19,27.184 -13.19,31.044C-13.19,34.744 -10.938,36.835 -7.561,36.835C-3.217,36.835 0,34.101 0,30.24L0,29.918ZM25.576,54.208L3.057,54.208C1.447,54.208 0,53.243 0,50.83L0,49.222C-4.826,53.243 -11.743,54.852 -18.659,54.852C-27.507,54.852 -40.536,49.865 -40.536,33.939L-40.536,30.4C-40.536,16.406 -28.15,7.237 -11.743,7.237C-5.63,7.237 -1.448,8.203 0,9.007C0,4.181 -0.322,1.929 -0.644,-0.001C-1.126,-2.575 -2.734,-4.344 -6.273,-4.344C-11.743,-4.344 -16.247,-3.218 -21.072,-0.162C-23.485,1.125 -25.255,2.412 -26.542,2.412C-27.828,2.412 -28.312,1.929 -28.633,0.642C-28.954,-1.77 -32.493,-10.618 -33.619,-12.387C-34.102,-13.191 -34.906,-14.317 -34.906,-15.765C-34.906,-16.891 -33.941,-17.535 -32.011,-18.661C-27.989,-20.913 -20.107,-24.934 -11.1,-24.934L0.644,-24.934C11.421,-24.934 18.016,-22.039 21.716,-17.535C26.381,-12.227 27.989,-8.044 27.989,-2.092C27.989,-0.162 27.828,2.09 27.668,5.951C27.507,9.65 27.346,13.994 27.346,16.567C27.346,22.036 27.507,27.666 27.989,36.353C28.311,45.039 28.633,49.865 28.633,50.83C28.633,52.6 27.668,54.208 25.576,54.208" style="fill:white;fill-rule:nonzero;"/>
    </g>
    <g transform="matrix(4.16667,0,0,4.16667,3329.87,1630.48)">
        <path d="M0,106.005L-23.808,106.005C-25.738,106.005 -26.703,104.397 -26.703,102.466C-26.703,101.501 -26.542,95.871 -26.221,85.736C-25.738,75.442 -25.577,64.504 -25.577,53.083C-25.738,41.501 -25.898,30.563 -26.221,20.268C-26.703,9.973 -26.703,4.343 -26.703,3.378C-26.703,1.126 -25.416,0 -23.808,0L0,0C1.608,0 2.895,1.126 2.895,3.378C2.895,4.343 2.734,9.973 2.412,20.268C1.93,30.563 1.769,41.501 1.769,53.083C1.769,64.504 1.93,75.442 2.412,85.736C2.734,95.871 2.895,101.501 2.895,102.466C2.895,104.397 1.93,106.005 0,106.005" style="fill:white;fill-rule:nonzero;"/>
    </g>
</svg>
