<?xml version="1.0" encoding="UTF-8" standalone="no"?>
<!DOCTYPE svg PUBLIC "-//W3C//DTD SVG 1.1//EN" "http://www.w3.org/Graphics/SVG/1.1/DTD/svg11.dtd">
<svg width="100%" height="100%" viewBox="0 0 3782 3175" version="1.1" xmlns="http://www.w3.org/2000/svg" xmlns:xlink="http://www.w3.org/1999/xlink" xml:space="preserve" xmlns:serif="http://www.serif.com/" style="fill-rule:evenodd;clip-rule:evenodd;stroke-linejoin:round;stroke-miterlimit:2;">
    <g transform="matrix(1,0,0,1,-16249.9,-4293.7)">
        <path d="M19826.5,4293.7L20031.8,4293.7L20031.8,7468.7L16249.9,7468.7L16250,7466.9C16252.8,7429.96 16256.3,7393.06 16260.4,7356.24C16268.1,7287.39 16278.2,7218.79 16290.6,7150.62C16316.4,7008.19 16352.4,6867.62 16397.9,6730.23C16464.1,6530.65 16550.5,6337.92 16654.7,6155.27C16745.5,5995.98 16849.6,5844.38 16965.1,5701.98C17095.1,5541.69 17239.3,5393.09 17395,5257.6C17529.8,5140.25 17673.1,5032.72 17823.1,4935.65C18066.6,4778.12 18327.7,4648.19 18599.5,4547.37C18831.4,4461.36 19071.1,4396.53 19314.6,4353.17C19425.1,4333.49 19536.4,4318.22 19648.1,4307.34C19706.7,4301.64 19765.3,4297.16 19824.1,4293.84L19826.5,4293.7Z" style="fill:rgb(240,238,232);"/>
    </g>
</svg>
