<?xml version="1.0" encoding="UTF-8" standalone="no"?>
<!DOCTYPE svg PUBLIC "-//W3C//DTD SVG 1.1//EN" "http://www.w3.org/Graphics/SVG/1.1/DTD/svg11.dtd">
<svg width="100%" height="100%" viewBox="0 0 64 665" version="1.1" xmlns="http://www.w3.org/2000/svg" xmlns:xlink="http://www.w3.org/1999/xlink" xml:space="preserve" xmlns:serif="http://www.serif.com/" style="fill-rule:evenodd;clip-rule:evenodd;stroke-linejoin:round;stroke-miterlimit:2;">
    <g transform="matrix(8.33333,0,0,8.33333,12.8229,6.75801)">
        <path d="M0,5.554C-0.233,5.463 -0.48,5.358 -0.716,5.148C-1.163,4.747 -1.397,4.184 -1.432,3.423C-1.458,2.834 -1.355,2.248 -1.135,1.729C-0.814,0.975 -0.253,0.362 0.446,0.001C0.929,-0.247 1.43,-0.355 1.915,-0.46C2.031,-0.485 2.148,-0.51 2.265,-0.538C2.473,-0.587 2.637,-0.633 2.781,-0.682C2.798,-0.688 2.815,-0.695 2.835,-0.703C3.002,-0.767 3.28,-0.875 3.57,-0.761C3.601,-0.75 3.63,-0.736 3.658,-0.72L3.713,-0.689L3.758,-0.646C3.791,-0.615 4.076,-0.335 4.211,0.039C4.283,0.184 4.424,0.436 4.536,0.562L4.556,0.585C4.577,0.613 5.086,1.265 5.336,1.658C5.681,2.2 5.796,2.89 5.668,3.652C5.613,3.974 5.519,4.297 5.385,4.611C5.243,4.942 5.082,5.215 4.893,5.446C4.382,6.066 3.521,6.429 2.751,6.349C2.561,6.329 2.37,6.282 2.169,6.203C1.888,6.094 1.635,5.942 1.469,5.836C1.442,5.82 1.413,5.801 1.384,5.782C1.094,5.782 0.514,5.753 0,5.554" style="fill:rgb(30,30,28);fill-rule:nonzero;"/>
    </g>
    <g transform="matrix(8.33333,0,0,8.33333,50.5179,130.929)">
        <path d="M0,-5.994C0.238,-5.92 0.492,-5.831 0.74,-5.637C1.214,-5.267 1.485,-4.721 1.57,-3.965C1.636,-3.378 1.572,-2.787 1.388,-2.254C1.118,-1.48 0.599,-0.831 -0.075,-0.425C-0.54,-0.145 -1.033,-0.004 -1.51,0.134C-1.625,0.167 -1.739,0.199 -1.854,0.235C-2.058,0.297 -2.218,0.354 -2.359,0.413C-2.375,0.42 -2.393,0.429 -2.411,0.438C-2.573,0.513 -2.845,0.639 -3.142,0.545C-3.172,0.536 -3.202,0.524 -3.231,0.51L-3.288,0.483L-3.336,0.443C-3.371,0.413 -3.675,0.153 -3.834,-0.211C-3.916,-0.351 -4.073,-0.593 -4.193,-0.711L-4.214,-0.732C-4.237,-0.759 -4.789,-1.375 -5.064,-1.751C-5.444,-2.269 -5.605,-2.95 -5.528,-3.718C-5.496,-4.044 -5.423,-4.372 -5.31,-4.694C-5.191,-5.034 -5.049,-5.317 -4.875,-5.559C-4.406,-6.213 -3.571,-6.633 -2.799,-6.604C-2.607,-6.598 -2.414,-6.562 -2.208,-6.498C-1.92,-6.407 -1.657,-6.272 -1.485,-6.179C-1.457,-6.163 -1.427,-6.146 -1.396,-6.129C-1.106,-6.148 -0.526,-6.159 0,-5.994" style="fill:rgb(30,30,28);fill-rule:nonzero;"/>
    </g>
    <g transform="matrix(8.33333,0,0,8.33333,48.3454,160.505)">
        <path d="M0,5.453C-0.153,5.65 -0.325,5.857 -0.594,6.022C-1.104,6.338 -1.712,6.401 -2.45,6.218C-3.022,6.075 -3.555,5.81 -3.99,5.451C-4.621,4.93 -5.05,4.217 -5.195,3.443C-5.296,2.91 -5.257,2.398 -5.22,1.904C-5.21,1.785 -5.201,1.666 -5.194,1.547C-5.182,1.333 -5.179,1.163 -5.186,1.011C-5.187,0.993 -5.188,0.974 -5.189,0.953C-5.204,0.775 -5.228,0.476 -5.037,0.231C-5.018,0.206 -4.995,0.182 -4.973,0.159L-4.927,0.115L-4.873,0.084C-4.833,0.061 -4.483,-0.133 -4.087,-0.155C-3.927,-0.183 -3.646,-0.246 -3.493,-0.318L-3.466,-0.329C-3.433,-0.342 -2.663,-0.645 -2.215,-0.772C-1.597,-0.948 -0.902,-0.861 -0.209,-0.522C0.085,-0.378 0.367,-0.194 0.63,0.023C0.907,0.253 1.123,0.484 1.289,0.732C1.739,1.399 1.842,2.327 1.546,3.042C1.473,3.22 1.372,3.389 1.24,3.558C1.056,3.798 0.837,3.996 0.689,4.125C0.665,4.146 0.64,4.169 0.611,4.191C0.529,4.47 0.338,5.016 0,5.453" style="fill:rgb(30,30,28);fill-rule:nonzero;"/>
    </g>
    <g transform="matrix(8.33333,0,0,8.33333,7.07704,242.157)">
        <path d="M0,3.392C-0.196,3.237 -0.4,3.063 -0.563,2.792C-0.873,2.279 -0.931,1.67 -0.738,0.934C-0.59,0.364 -0.319,-0.167 0.045,-0.597C0.573,-1.223 1.291,-1.643 2.065,-1.781C2.6,-1.876 3.11,-1.832 3.604,-1.789C3.724,-1.778 3.843,-1.767 3.962,-1.759C4.175,-1.745 4.345,-1.74 4.498,-1.746C4.516,-1.746 4.535,-1.748 4.556,-1.749C4.733,-1.761 5.032,-1.781 5.275,-1.588C5.301,-1.568 5.324,-1.546 5.348,-1.523L5.391,-1.477L5.421,-1.422C5.443,-1.382 5.633,-1.031 5.651,-0.634C5.677,-0.474 5.738,-0.192 5.808,-0.039L5.819,-0.01C5.832,0.022 6.125,0.795 6.248,1.245C6.418,1.865 6.324,2.558 5.977,3.247C5.83,3.54 5.644,3.821 5.423,4.08C5.19,4.355 4.956,4.569 4.707,4.733C4.035,5.175 3.105,5.268 2.394,4.964C2.218,4.889 2.05,4.788 1.881,4.653C1.644,4.465 1.447,4.246 1.32,4.096C1.3,4.072 1.277,4.045 1.255,4.018C0.978,3.932 0.433,3.735 0,3.392" style="fill:rgb(30,30,28);fill-rule:nonzero;"/>
    </g>
    <g transform="matrix(8.33333,0,0,8.33333,26.7629,357.101)">
        <path d="M0,-6.408C0.215,-6.537 0.449,-6.667 0.76,-6.723C1.351,-6.832 1.939,-6.671 2.561,-6.232C3.042,-5.891 3.442,-5.451 3.717,-4.959C4.116,-4.243 4.256,-3.423 4.111,-2.649C4.012,-2.117 3.789,-1.654 3.575,-1.207C3.523,-1.099 3.472,-0.992 3.422,-0.883C3.333,-0.689 3.269,-0.531 3.22,-0.387C3.214,-0.37 3.208,-0.351 3.202,-0.332C3.15,-0.16 3.064,0.126 2.798,0.285C2.771,0.302 2.741,0.317 2.711,0.329L2.653,0.354L2.592,0.363C2.546,0.37 2.15,0.424 1.772,0.301C1.613,0.268 1.328,0.226 1.16,0.237L1.13,0.238C1.095,0.238 0.268,0.239 -0.195,0.196C-0.836,0.135 -1.451,-0.197 -1.975,-0.764C-2.196,-1.006 -2.393,-1.279 -2.559,-1.577C-2.733,-1.891 -2.85,-2.186 -2.915,-2.477C-3.092,-3.262 -2.852,-4.165 -2.315,-4.723C-2.184,-4.861 -2.028,-4.982 -1.844,-5.094C-1.585,-5.249 -1.31,-5.355 -1.124,-5.422C-1.095,-5.432 -1.062,-5.443 -1.028,-5.455C-0.851,-5.684 -0.473,-6.125 0,-6.408" style="fill:rgb(30,30,28);fill-rule:nonzero;"/>
    </g>
    <g transform="matrix(8.33333,0,0,8.33333,29.9287,377.484)">
        <path d="M0,7.103C-0.241,7.167 -0.503,7.229 -0.816,7.199C-1.414,7.143 -1.937,6.828 -2.415,6.235C-2.786,5.776 -3.051,5.244 -3.181,4.695C-3.37,3.898 -3.281,3.071 -2.932,2.367C-2.69,1.881 -2.351,1.497 -2.022,1.124C-1.943,1.035 -1.864,0.945 -1.787,0.854C-1.648,0.692 -1.544,0.557 -1.457,0.432C-1.447,0.417 -1.437,0.401 -1.426,0.383C-1.329,0.233 -1.168,-0.019 -0.868,-0.1C-0.837,-0.109 -0.805,-0.115 -0.772,-0.119L-0.711,-0.126L-0.648,-0.119C-0.604,-0.113 -0.207,-0.056 0.123,0.165C0.267,0.239 0.529,0.358 0.694,0.393L0.724,0.401C0.757,0.41 1.554,0.633 1.987,0.801C2.588,1.035 3.089,1.522 3.438,2.21C3.585,2.502 3.699,2.819 3.778,3.152C3.86,3.501 3.893,3.817 3.876,4.115C3.833,4.917 3.354,5.72 2.688,6.112C2.522,6.209 2.341,6.284 2.132,6.34C1.841,6.418 1.547,6.446 1.351,6.459C1.319,6.461 1.285,6.463 1.249,6.465C1.016,6.637 0.532,6.958 0,7.103" style="fill:rgb(30,30,28);fill-rule:nonzero;"/>
    </g>
    <g transform="matrix(8.33333,0,0,8.33333,58.0945,470.848)">
        <path d="M0,3.286C-0.046,3.531 -0.104,3.794 -0.268,4.063C-0.578,4.577 -1.089,4.911 -1.83,5.085C-2.404,5.22 -2.999,5.227 -3.55,5.106C-4.35,4.931 -5.057,4.492 -5.54,3.87C-5.872,3.442 -6.071,2.97 -6.264,2.513C-6.311,2.402 -6.356,2.292 -6.404,2.182C-6.491,1.987 -6.566,1.835 -6.643,1.702C-6.651,1.686 -6.661,1.671 -6.672,1.653C-6.766,1.501 -6.923,1.247 -6.866,0.941C-6.86,0.909 -6.852,0.878 -6.842,0.847L-6.821,0.788L-6.787,0.735C-6.762,0.697 -6.54,0.365 -6.197,0.164C-6.067,0.066 -5.847,-0.119 -5.743,-0.252L-5.724,-0.276C-5.701,-0.302 -5.154,-0.922 -4.813,-1.24C-4.344,-1.68 -3.688,-1.92 -2.915,-1.935C-2.588,-1.941 -2.253,-1.906 -1.92,-1.833C-1.568,-1.755 -1.271,-1.648 -1.009,-1.503C-0.305,-1.115 0.211,-0.336 0.274,0.434C0.29,0.626 0.278,0.822 0.238,1.034C0.183,1.331 0.08,1.607 0.007,1.79C-0.005,1.819 -0.018,1.85 -0.032,1.884C0.021,2.169 0.102,2.743 0,3.286" style="fill:rgb(30,30,28);fill-rule:nonzero;"/>
    </g>
    <g transform="matrix(8.33333,0,0,8.33333,37.7979,608.301)">
        <path d="M0,6.445C-0.215,6.571 -0.452,6.699 -0.763,6.753C-1.354,6.854 -1.941,6.687 -2.558,6.241C-3.036,5.895 -3.431,5.451 -3.701,4.956C-4.092,4.236 -4.224,3.415 -4.07,2.643C-3.965,2.111 -3.738,1.651 -3.519,1.206C-3.466,1.098 -3.413,0.992 -3.362,0.883C-3.271,0.69 -3.205,0.534 -3.154,0.389C-3.148,0.373 -3.144,0.354 -3.137,0.335C-3.084,0.164 -2.994,-0.121 -2.726,-0.279C-2.698,-0.294 -2.669,-0.309 -2.639,-0.322L-2.581,-0.345L-2.519,-0.354C-2.474,-0.36 -2.077,-0.409 -1.7,-0.283C-1.542,-0.248 -1.258,-0.202 -1.089,-0.212L-1.059,-0.212C-1.023,-0.212 -0.196,-0.205 0.267,-0.157C0.906,-0.089 1.518,0.25 2.034,0.823C2.254,1.066 2.447,1.341 2.61,1.641C2.781,1.958 2.896,2.254 2.958,2.546C3.126,3.332 2.875,4.232 2.334,4.785C2.2,4.922 2.044,5.041 1.857,5.15C1.598,5.302 1.32,5.406 1.135,5.47C1.105,5.48 1.073,5.492 1.039,5.503C0.858,5.73 0.477,6.167 0,6.445" style="fill:rgb(30,30,28);fill-rule:nonzero;"/>
    </g>
    <g transform="matrix(8.33333,0,0,8.33333,2.65788,557.587)">
        <path d="M0,-0.152C-0.079,-0.388 -0.155,-0.646 -0.144,-0.962C-0.121,-1.561 0.163,-2.101 0.727,-2.613C1.164,-3.009 1.681,-3.304 2.221,-3.466C3.006,-3.701 3.836,-3.66 4.56,-3.35C5.059,-3.138 5.462,-2.821 5.853,-2.514C5.946,-2.441 6.04,-2.367 6.135,-2.295C6.306,-2.166 6.445,-2.069 6.576,-1.99C6.591,-1.98 6.608,-1.971 6.626,-1.962C6.782,-1.874 7.043,-1.727 7.141,-1.432C7.151,-1.402 7.159,-1.371 7.165,-1.339L7.176,-1.277L7.172,-1.214C7.169,-1.169 7.135,-0.77 6.934,-0.428C6.867,-0.28 6.764,-0.011 6.738,0.156L6.732,0.185C6.725,0.219 6.548,1.028 6.404,1.47C6.207,2.082 5.749,2.611 5.081,2.998C4.798,3.162 4.488,3.295 4.161,3.393C3.816,3.495 3.504,3.545 3.206,3.546C2.401,3.549 1.572,3.118 1.144,2.474C1.037,2.315 0.952,2.138 0.884,1.933C0.788,1.647 0.744,1.355 0.72,1.16C0.716,1.128 0.712,1.094 0.708,1.059C0.522,0.835 0.174,0.371 0,-0.152" style="fill:rgb(30,30,28);fill-rule:nonzero;"/>
    </g>
</svg>
