<?xml version="1.0" encoding="UTF-8" standalone="no"?>
<!DOCTYPE svg PUBLIC "-//W3C//DTD SVG 1.1//EN" "http://www.w3.org/Graphics/SVG/1.1/DTD/svg11.dtd">
<svg width="100%" height="100%" viewBox="0 0 686 766" version="1.1" xmlns="http://www.w3.org/2000/svg" xmlns:xlink="http://www.w3.org/1999/xlink" xml:space="preserve" xmlns:serif="http://www.serif.com/" style="fill-rule:evenodd;clip-rule:evenodd;stroke-linejoin:round;stroke-miterlimit:2;">
    <g transform="matrix(8.33333,0,0,8.33333,287.777,761.264)">
        <path d="M0,-90.775C-0.378,-90.775 -0.739,-90.499 -0.757,-90.054C-0.877,-87.012 -2.203,-81.462 -9.658,-77.954L-9.656,-77.946C-30.133,-69.095 -39.737,-45.399 -31.105,-24.763C-25.287,-10.852 -12.656,-1.872 1.291,-0.05C1.618,-0.027 1.943,0 2.277,0C9.293,0 15.402,-3.943 18.67,-9.785C17.789,-6.249 16.11,-3.047 13.86,-0.372C18.927,-1.301 23.955,-3.191 28.697,-6.253C44.18,-16.249 51.089,-35.724 45.305,-53.222C41.038,-66.129 31.14,-75.301 19.412,-79.209C19.32,-79.244 19.236,-79.284 19.139,-79.316C14.672,-80.783 6.375,-84.216 0.568,-90.522C0.407,-90.697 0.201,-90.775 0,-90.775M2.139,-82.742C7.731,-78.518 13.84,-76.066 17.547,-74.84C17.604,-74.817 17.661,-74.794 17.72,-74.771C17.783,-74.748 17.848,-74.724 17.911,-74.703C28.832,-71.064 37.172,-62.691 40.795,-51.732C43.263,-44.268 43.157,-36.021 40.498,-28.509C37.841,-21 32.734,-14.513 26.121,-10.242C25.189,-9.641 24.236,-9.086 23.263,-8.575C23.268,-8.595 23.273,-8.617 23.278,-8.637C23.854,-10.947 22.631,-13.326 20.418,-14.201C19.846,-14.427 19.254,-14.535 18.671,-14.535C16.994,-14.535 15.385,-13.644 14.523,-12.103C11.988,-7.567 7.295,-4.75 2.277,-4.75C2.108,-4.75 1.943,-4.765 1.777,-4.777C-10.889,-6.477 -21.801,-14.828 -26.725,-26.595C-30.41,-35.409 -30.471,-45.139 -26.893,-53.996C-23.318,-62.844 -16.527,-69.802 -7.771,-73.587C-7.631,-73.647 -7.496,-73.714 -7.363,-73.787C-2.246,-76.264 0.584,-79.627 2.139,-82.742" style="fill:rgb(30,30,28);fill-rule:nonzero;"/>
    </g>
    <path d="M685.33,0L0,0L0,765.527L685.33,765.527L685.33,0ZM287.777,4.806C284.627,4.806 281.618,7.106 281.468,10.814C280.468,36.164 269.418,82.414 207.293,111.648L207.31,111.714C36.668,185.473 -43.365,382.939 28.568,554.906C77.052,670.831 182.31,745.664 298.535,760.848C301.26,761.039 303.968,761.264 306.752,761.264C365.218,761.264 416.127,728.406 443.36,679.723C436.018,709.189 422.027,735.873 403.277,758.164C445.502,750.423 487.402,734.673 526.918,709.156C655.943,625.856 713.518,463.564 665.318,317.748C629.76,210.189 547.277,133.756 449.543,101.189C448.777,100.898 448.077,100.564 447.268,100.298C410.043,88.073 340.902,59.464 292.51,6.914C291.168,5.456 289.452,4.806 287.777,4.806Z" style="fill:rgb(252,84,18);"/>
</svg>
