<?xml version="1.0" encoding="UTF-8" standalone="no"?>
<!DOCTYPE svg PUBLIC "-//W3C//DTD SVG 1.1//EN" "http://www.w3.org/Graphics/SVG/1.1/DTD/svg11.dtd">
<svg width="100%" height="100%" viewBox="0 0 243 236" version="1.1" xmlns="http://www.w3.org/2000/svg" xmlns:xlink="http://www.w3.org/1999/xlink" xml:space="preserve" xmlns:serif="http://www.serif.com/" style="fill-rule:evenodd;clip-rule:evenodd;stroke-linejoin:round;stroke-miterlimit:2;">
    <g transform="matrix(8.33333,0,0,8.33333,237.301,141.895)">
        <path d="M0,-7.046C-0.039,-7.152 -0.077,-7.259 -0.125,-7.364C-1.134,-9.579 -3.257,-10.941 -5.57,-11.132C-4.327,-11.363 -3.076,-11.293 -1.907,-10.967C-2.929,-12.433 -4.248,-13.749 -5.896,-14.806C-11.277,-18.256 -18.418,-17.638 -23.11,-13.297C-26.571,-10.095 -28.043,-5.652 -27.592,-1.389C-27.589,-1.355 -27.59,-1.322 -27.586,-1.287C-27.406,0.334 -27.299,3.446 -28.454,6.185C-28.546,6.404 -28.335,6.626 -28.116,6.537C-27.139,6.137 -25.195,5.758 -23.017,7.607L-23.015,7.605C-21.125,9.315 -18.896,10.409 -16.567,10.92L-16.567,1.379L-19.9,1.379L-19.9,-2.415L-16.567,-2.415L-16.567,-5.307C-16.567,-8.597 -14.607,-10.414 -11.609,-10.414C-10.173,-10.414 -8.671,-10.158 -8.671,-10.158L-8.671,-6.927L-10.326,-6.927C-11.957,-6.927 -12.466,-5.916 -12.466,-4.878L-12.466,-2.415L-8.824,-2.415L-9.406,1.379L-12.466,1.379L-12.466,11.21C-9.027,10.953 -5.673,9.461 -3.144,6.732C0.411,2.896 1.431,-2.381 0,-7.046" style="fill:rgb(29,30,27);fill-rule:nonzero;"/>
    </g>
</svg>
