<?xml version="1.0" encoding="UTF-8" standalone="no"?>
<!DOCTYPE svg PUBLIC "-//W3C//DTD SVG 1.1//EN" "http://www.w3.org/Graphics/SVG/1.1/DTD/svg11.dtd">
<svg width="100%" height="100%" viewBox="0 0 1201 1200" version="1.1" xmlns="http://www.w3.org/2000/svg" xmlns:xlink="http://www.w3.org/1999/xlink" xml:space="preserve" xmlns:serif="http://www.serif.com/" style="fill-rule:evenodd;clip-rule:evenodd;stroke-linejoin:round;stroke-miterlimit:2;">
    <g transform="matrix(8.33333,0,0,8.33333,371.184,79.5346)">
        <path d="M0,128.979L-0.007,128.991C-13.614,123.873 -22.271,129.02 -26.267,132.61C-27.162,133.414 -28.555,132.709 -28.488,131.508C-27.652,116.405 -33.51,101.681 -37.147,94.227C-37.228,94.063 -37.279,93.909 -37.35,93.748C-46.827,74.102 -47.396,50.296 -36.31,29.022C-21.281,0.182 11.861,-15.027 43.554,-7.73C53.259,-5.496 61.835,-1.456 69.242,3.812C63.089,4.256 56.974,6.068 51.416,9.304C62.827,6.251 75.331,9.134 83.96,18.012C84.369,18.433 84.735,18.879 85.107,19.322C99.957,39.211 104.127,66.239 93.681,90.711C78.183,127.015 36.386,144.006 0,128.979" style="fill:rgb(30,30,28);fill-rule:nonzero;"/>
    </g>
    <g transform="matrix(8.33333,0,0,8.33333,-418.046,-2816.24)">
        <g transform="matrix(26.495,0,0,26.495,76.0947,428.669)">
            <path d="M0.496,-0.446C0.495,-0.505 0.479,-0.553 0.448,-0.592C0.417,-0.631 0.37,-0.65 0.307,-0.65L0.07,-0.65C0.059,-0.65 0.052,-0.641 0.052,-0.628C0.052,-0.622 0.053,-0.582 0.056,-0.507C0.06,-0.432 0.061,-0.372 0.061,-0.325C0.061,-0.278 0.059,-0.218 0.056,-0.143C0.053,-0.067 0.052,-0.027 0.052,-0.021C0.052,-0.009 0.059,-0 0.07,-0L0.224,-0C0.236,-0 0.242,-0.01 0.242,-0.021C0.242,-0.026 0.241,-0.053 0.239,-0.102C0.236,-0.152 0.235,-0.201 0.234,-0.25C0.252,-0.248 0.272,-0.247 0.29,-0.247C0.358,-0.247 0.41,-0.265 0.444,-0.301C0.479,-0.338 0.496,-0.386 0.496,-0.446ZM0.321,-0.449C0.321,-0.423 0.301,-0.408 0.261,-0.408C0.235,-0.408 0.23,-0.418 0.23,-0.434L0.23,-0.443C0.23,-0.466 0.245,-0.48 0.279,-0.48C0.312,-0.48 0.321,-0.466 0.321,-0.449Z" style="fill:white;fill-rule:nonzero;"/>
        </g>
        <g transform="matrix(26.495,0,0,26.495,89.8721,428.669)">
            <path d="M0.534,-0.012C0.534,-0.016 0.53,-0.024 0.529,-0.029C0.449,-0.254 0.434,-0.292 0.404,-0.32C0.44,-0.338 0.496,-0.383 0.496,-0.477C0.496,-0.532 0.478,-0.574 0.444,-0.604C0.409,-0.635 0.364,-0.65 0.307,-0.65L0.07,-0.65C0.059,-0.65 0.052,-0.641 0.052,-0.628C0.052,-0.622 0.053,-0.582 0.056,-0.507C0.06,-0.432 0.061,-0.372 0.061,-0.325C0.061,-0.278 0.059,-0.218 0.056,-0.143C0.053,-0.067 0.052,-0.027 0.052,-0.021C0.052,-0.009 0.059,-0 0.07,-0L0.224,-0C0.236,-0 0.242,-0.01 0.242,-0.021C0.242,-0.026 0.241,-0.053 0.239,-0.102C0.236,-0.152 0.235,-0.201 0.234,-0.25L0.244,-0.25C0.268,-0.25 0.283,-0.238 0.291,-0.218C0.296,-0.206 0.304,-0.174 0.314,-0.125C0.324,-0.075 0.333,-0.04 0.339,-0.02C0.344,-0.004 0.352,-0 0.363,-0L0.518,-0C0.532,-0 0.534,-0.006 0.534,-0.012ZM0.321,-0.449C0.321,-0.422 0.301,-0.408 0.261,-0.408C0.233,-0.408 0.23,-0.418 0.23,-0.434L0.23,-0.443C0.23,-0.466 0.245,-0.48 0.279,-0.48C0.312,-0.48 0.321,-0.467 0.321,-0.449Z" style="fill:white;fill-rule:nonzero;"/>
        </g>
        <g transform="matrix(26.495,0,0,26.495,103.835,428.669)">
            <path d="M0.489,-0.158C0.489,-0.174 0.488,-0.2 0.486,-0.238C0.484,-0.276 0.483,-0.305 0.483,-0.325C0.483,-0.345 0.484,-0.374 0.486,-0.412C0.488,-0.45 0.489,-0.477 0.489,-0.492C0.488,-0.527 0.475,-0.564 0.447,-0.6C0.418,-0.636 0.376,-0.654 0.319,-0.654L0.214,-0.654C0.157,-0.654 0.115,-0.636 0.086,-0.6C0.058,-0.564 0.045,-0.527 0.044,-0.492C0.044,-0.477 0.045,-0.45 0.047,-0.412C0.049,-0.374 0.05,-0.345 0.05,-0.325C0.05,-0.305 0.049,-0.276 0.047,-0.238C0.045,-0.2 0.044,-0.174 0.044,-0.158C0.045,-0.123 0.058,-0.086 0.086,-0.051C0.115,-0.015 0.157,0.004 0.214,0.004L0.319,0.004C0.376,0.004 0.418,-0.015 0.447,-0.051C0.475,-0.086 0.488,-0.123 0.489,-0.158ZM0.31,-0.325C0.31,-0.262 0.309,-0.219 0.306,-0.198C0.303,-0.176 0.29,-0.166 0.267,-0.166C0.243,-0.166 0.23,-0.176 0.227,-0.198C0.224,-0.219 0.223,-0.262 0.223,-0.325C0.223,-0.389 0.224,-0.431 0.227,-0.453C0.23,-0.474 0.243,-0.484 0.267,-0.484C0.29,-0.484 0.303,-0.474 0.306,-0.453C0.309,-0.431 0.31,-0.389 0.31,-0.325Z" style="fill:white;fill-rule:nonzero;"/>
        </g>
        <g transform="matrix(26.495,0,0,26.495,117.427,428.669)">
            <path d="M0.455,-0.636C0.455,-0.644 0.453,-0.65 0.44,-0.65L0.025,-0.65C0.013,-0.65 0.011,-0.644 0.011,-0.636C0.011,-0.629 0.014,-0.607 0.019,-0.569C0.024,-0.531 0.027,-0.508 0.028,-0.5C0.031,-0.484 0.041,-0.481 0.055,-0.481L0.12,-0.481C0.142,-0.481 0.144,-0.474 0.144,-0.46C0.145,-0.436 0.147,-0.372 0.147,-0.325C0.146,-0.278 0.145,-0.218 0.142,-0.143C0.139,-0.067 0.138,-0.027 0.138,-0.021C0.138,-0.009 0.145,-0 0.156,-0L0.31,-0C0.321,-0 0.328,-0.009 0.328,-0.021C0.328,-0.027 0.327,-0.067 0.324,-0.143C0.321,-0.218 0.319,-0.278 0.319,-0.325C0.319,-0.372 0.321,-0.436 0.322,-0.46C0.322,-0.474 0.324,-0.481 0.346,-0.481L0.411,-0.481C0.425,-0.481 0.435,-0.484 0.438,-0.5C0.438,-0.508 0.441,-0.531 0.447,-0.569C0.452,-0.607 0.455,-0.629 0.455,-0.636Z" style="fill:white;fill-rule:nonzero;"/>
        </g>
        <g transform="matrix(26.495,0,0,26.495,129.774,428.669)">
            <path d="M0.475,-0.015L0.466,-0.152C0.465,-0.165 0.459,-0.173 0.438,-0.173L0.27,-0.173C0.242,-0.173 0.23,-0.184 0.23,-0.199L0.23,-0.229C0.23,-0.24 0.236,-0.244 0.246,-0.244L0.363,-0.244C0.372,-0.244 0.381,-0.249 0.381,-0.265L0.381,-0.388C0.381,-0.401 0.377,-0.407 0.363,-0.407L0.244,-0.407C0.233,-0.407 0.23,-0.413 0.23,-0.421L0.23,-0.46C0.23,-0.473 0.239,-0.477 0.25,-0.477L0.441,-0.477C0.46,-0.477 0.466,-0.488 0.467,-0.494L0.475,-0.631C0.475,-0.641 0.464,-0.65 0.453,-0.65L0.07,-0.65C0.059,-0.65 0.052,-0.641 0.052,-0.628C0.052,-0.622 0.053,-0.582 0.056,-0.507C0.06,-0.432 0.061,-0.372 0.061,-0.325C0.061,-0.278 0.059,-0.218 0.056,-0.143C0.053,-0.067 0.052,-0.027 0.052,-0.021C0.052,-0.009 0.059,-0 0.07,-0L0.457,-0C0.466,-0 0.475,-0.005 0.475,-0.015Z" style="fill:white;fill-rule:nonzero;"/>
        </g>
        <g transform="matrix(26.495,0,0,26.495,143.366,428.669)">
            <path d="M0.242,-0.021C0.242,-0.027 0.241,-0.067 0.238,-0.143C0.235,-0.218 0.233,-0.278 0.233,-0.325C0.233,-0.372 0.234,-0.432 0.238,-0.507C0.241,-0.582 0.242,-0.622 0.242,-0.628C0.242,-0.641 0.235,-0.65 0.224,-0.65L0.07,-0.65C0.059,-0.65 0.052,-0.641 0.052,-0.628C0.052,-0.622 0.053,-0.582 0.056,-0.507C0.06,-0.432 0.061,-0.372 0.061,-0.325C0.061,-0.278 0.059,-0.218 0.056,-0.143C0.053,-0.067 0.052,-0.027 0.052,-0.021C0.052,-0.009 0.059,-0 0.07,-0L0.224,-0C0.235,-0 0.242,-0.009 0.242,-0.021Z" style="fill:white;fill-rule:nonzero;"/>
        </g>
        <g transform="matrix(26.495,0,0,26.495,151.155,428.669)">
            <path d="M0.509,-0.021C0.509,-0.027 0.508,-0.067 0.505,-0.143C0.502,-0.218 0.5,-0.278 0.5,-0.325C0.5,-0.372 0.501,-0.432 0.505,-0.507C0.508,-0.582 0.509,-0.622 0.509,-0.628C0.509,-0.641 0.502,-0.65 0.491,-0.65L0.352,-0.65C0.34,-0.65 0.333,-0.641 0.333,-0.628C0.333,-0.622 0.335,-0.588 0.339,-0.525C0.343,-0.462 0.345,-0.429 0.345,-0.424L0.345,-0.368L0.251,-0.628C0.245,-0.645 0.234,-0.65 0.22,-0.65L0.07,-0.65C0.059,-0.65 0.052,-0.641 0.052,-0.628C0.052,-0.622 0.053,-0.582 0.056,-0.507C0.06,-0.432 0.061,-0.372 0.061,-0.325C0.061,-0.278 0.059,-0.218 0.056,-0.143C0.053,-0.067 0.052,-0.027 0.052,-0.021C0.052,-0.009 0.059,-0 0.07,-0L0.209,-0C0.222,-0 0.228,-0.01 0.228,-0.021C0.228,-0.028 0.226,-0.064 0.222,-0.131C0.218,-0.198 0.216,-0.234 0.216,-0.239L0.216,-0.283C0.222,-0.267 0.236,-0.233 0.251,-0.19C0.274,-0.128 0.295,-0.073 0.31,-0.021C0.314,-0.007 0.332,-0 0.342,-0L0.491,-0C0.502,-0 0.509,-0.009 0.509,-0.021Z" style="fill:white;fill-rule:nonzero;"/>
        </g>
    </g>
    <g transform="matrix(8.33333,0,0,8.33333,-418.046,-2816.24)">
        <g transform="matrix(48.0957,0,0,48.0957,76.291,407.369)">
            <path d="M0.318,-0.021C0.318,-0.027 0.317,-0.067 0.316,-0.143C0.314,-0.218 0.313,-0.278 0.313,-0.325C0.313,-0.372 0.314,-0.432 0.316,-0.507C0.317,-0.582 0.318,-0.622 0.318,-0.628C0.318,-0.641 0.312,-0.65 0.3,-0.65L0.242,-0.65C0.23,-0.65 0.223,-0.641 0.223,-0.628C0.223,-0.623 0.224,-0.588 0.226,-0.525C0.228,-0.463 0.229,-0.387 0.229,-0.382C0.229,-0.373 0.224,-0.371 0.219,-0.371L0.141,-0.371C0.136,-0.371 0.131,-0.373 0.131,-0.382C0.131,-0.387 0.132,-0.463 0.134,-0.525C0.136,-0.588 0.137,-0.623 0.137,-0.628C0.137,-0.641 0.13,-0.65 0.118,-0.65L0.06,-0.65C0.048,-0.65 0.042,-0.641 0.042,-0.628C0.042,-0.622 0.042,-0.582 0.044,-0.507C0.045,-0.432 0.046,-0.372 0.046,-0.325C0.046,-0.278 0.045,-0.218 0.044,-0.143C0.042,-0.067 0.042,-0.027 0.042,-0.021C0.042,-0.009 0.048,-0 0.06,-0L0.118,-0C0.13,-0 0.137,-0.009 0.137,-0.021C0.137,-0.028 0.136,-0.064 0.134,-0.131C0.132,-0.198 0.131,-0.276 0.131,-0.281C0.131,-0.29 0.136,-0.292 0.141,-0.292L0.219,-0.292C0.224,-0.292 0.229,-0.29 0.229,-0.281C0.229,-0.276 0.228,-0.198 0.226,-0.131C0.224,-0.064 0.223,-0.028 0.223,-0.021C0.223,-0.009 0.23,-0 0.242,-0L0.3,-0C0.312,-0 0.318,-0.009 0.318,-0.021Z" style="fill:white;fill-rule:nonzero;"/>
        </g>
        <g transform="matrix(48.0957,0,0,48.0957,93.6055,407.369)">
            <path d="M0.137,-0.021C0.137,-0.027 0.136,-0.067 0.134,-0.143C0.133,-0.218 0.132,-0.278 0.132,-0.325C0.132,-0.372 0.133,-0.432 0.134,-0.507C0.136,-0.582 0.137,-0.622 0.137,-0.628C0.137,-0.641 0.13,-0.65 0.118,-0.65L0.06,-0.65C0.048,-0.65 0.042,-0.641 0.042,-0.628C0.042,-0.622 0.042,-0.582 0.044,-0.507C0.045,-0.432 0.046,-0.372 0.046,-0.325C0.046,-0.278 0.045,-0.218 0.044,-0.143C0.042,-0.067 0.042,-0.027 0.042,-0.021C0.042,-0.009 0.048,-0 0.06,-0L0.118,-0C0.13,-0 0.137,-0.009 0.137,-0.021Z" style="fill:white;fill-rule:nonzero;"/>
        </g>
        <g transform="matrix(48.0957,0,0,48.0957,102.166,407.369)">
            <path d="M0.31,-0.008C0.31,-0.013 0.309,-0.04 0.308,-0.082C0.306,-0.124 0.306,-0.156 0.306,-0.179C0.306,-0.201 0.307,-0.23 0.308,-0.265C0.31,-0.301 0.31,-0.321 0.31,-0.326C0.31,-0.337 0.303,-0.344 0.295,-0.344L0.199,-0.344C0.19,-0.344 0.186,-0.335 0.186,-0.324L0.186,-0.284C0.186,-0.273 0.191,-0.267 0.198,-0.266C0.215,-0.265 0.222,-0.26 0.222,-0.237L0.222,-0.124C0.222,-0.099 0.21,-0.074 0.181,-0.074C0.161,-0.074 0.139,-0.089 0.136,-0.123C0.133,-0.155 0.132,-0.228 0.132,-0.325C0.132,-0.422 0.133,-0.495 0.136,-0.528C0.139,-0.561 0.161,-0.577 0.181,-0.577C0.207,-0.577 0.229,-0.566 0.25,-0.55C0.253,-0.548 0.258,-0.545 0.262,-0.545C0.265,-0.545 0.268,-0.55 0.269,-0.552C0.274,-0.565 0.285,-0.586 0.292,-0.599C0.293,-0.601 0.295,-0.605 0.295,-0.61C0.295,-0.615 0.29,-0.621 0.286,-0.625C0.28,-0.63 0.263,-0.64 0.25,-0.645C0.229,-0.653 0.208,-0.658 0.186,-0.658L0.17,-0.658C0.128,-0.658 0.097,-0.641 0.075,-0.608C0.054,-0.577 0.044,-0.543 0.044,-0.512C0.044,-0.498 0.044,-0.45 0.045,-0.412C0.046,-0.374 0.047,-0.345 0.047,-0.325C0.047,-0.306 0.046,-0.276 0.045,-0.238C0.044,-0.2 0.044,-0.153 0.044,-0.139C0.044,-0.107 0.054,-0.074 0.075,-0.042C0.097,-0.009 0.128,0.007 0.17,0.007L0.188,0.007C0.203,0.007 0.223,0.003 0.233,-0.005C0.245,-0.014 0.252,-0.022 0.257,-0.029C0.26,-0.018 0.264,-0.009 0.266,-0.003C0.269,0.005 0.272,0.007 0.278,0.007L0.302,0.007C0.309,0.007 0.31,-0 0.31,-0.008Z" style="fill:white;fill-rule:nonzero;"/>
        </g>
        <g transform="matrix(48.0957,0,0,48.0957,119.048,407.369)">
            <path d="M0.318,-0.021C0.318,-0.027 0.317,-0.067 0.316,-0.143C0.314,-0.218 0.313,-0.278 0.313,-0.325C0.313,-0.372 0.314,-0.432 0.316,-0.507C0.317,-0.582 0.318,-0.622 0.318,-0.628C0.318,-0.641 0.312,-0.65 0.3,-0.65L0.242,-0.65C0.23,-0.65 0.223,-0.641 0.223,-0.628C0.223,-0.623 0.224,-0.588 0.226,-0.525C0.228,-0.463 0.229,-0.387 0.229,-0.382C0.229,-0.373 0.224,-0.371 0.219,-0.371L0.141,-0.371C0.136,-0.371 0.131,-0.373 0.131,-0.382C0.131,-0.387 0.132,-0.463 0.134,-0.525C0.136,-0.588 0.137,-0.623 0.137,-0.628C0.137,-0.641 0.13,-0.65 0.118,-0.65L0.06,-0.65C0.048,-0.65 0.042,-0.641 0.042,-0.628C0.042,-0.622 0.042,-0.582 0.044,-0.507C0.045,-0.432 0.046,-0.372 0.046,-0.325C0.046,-0.278 0.045,-0.218 0.044,-0.143C0.042,-0.067 0.042,-0.027 0.042,-0.021C0.042,-0.009 0.048,-0 0.06,-0L0.118,-0C0.13,-0 0.137,-0.009 0.137,-0.021C0.137,-0.028 0.136,-0.064 0.134,-0.131C0.132,-0.198 0.131,-0.276 0.131,-0.281C0.131,-0.29 0.136,-0.292 0.141,-0.292L0.219,-0.292C0.224,-0.292 0.229,-0.29 0.229,-0.281C0.229,-0.276 0.228,-0.198 0.226,-0.131C0.224,-0.064 0.223,-0.028 0.223,-0.021C0.223,-0.009 0.23,-0 0.242,-0L0.3,-0C0.312,-0 0.318,-0.009 0.318,-0.021Z" style="fill:white;fill-rule:nonzero;"/>
        </g>
        <g transform="matrix(48.0957,0,0,48.0957,142.711,407.369)">
            <path d="M0.137,-0.021C0.137,-0.027 0.136,-0.067 0.134,-0.143C0.133,-0.218 0.132,-0.278 0.132,-0.325C0.132,-0.372 0.133,-0.432 0.134,-0.507C0.136,-0.582 0.137,-0.622 0.137,-0.628C0.137,-0.641 0.13,-0.65 0.118,-0.65L0.06,-0.65C0.048,-0.65 0.042,-0.641 0.042,-0.628C0.042,-0.622 0.042,-0.582 0.044,-0.507C0.045,-0.432 0.046,-0.372 0.046,-0.325C0.046,-0.278 0.045,-0.218 0.044,-0.143C0.042,-0.067 0.042,-0.027 0.042,-0.021C0.042,-0.009 0.048,-0 0.06,-0L0.118,-0C0.13,-0 0.137,-0.009 0.137,-0.021Z" style="fill:white;fill-rule:nonzero;"/>
        </g>
        <g transform="matrix(48.0957,0,0,48.0957,151.272,407.369)">
            <path d="M0.321,-0.021C0.321,-0.027 0.32,-0.067 0.318,-0.143C0.317,-0.218 0.316,-0.278 0.316,-0.325C0.316,-0.372 0.317,-0.432 0.318,-0.507C0.32,-0.582 0.321,-0.622 0.321,-0.628C0.321,-0.641 0.314,-0.65 0.302,-0.65L0.249,-0.65C0.239,-0.65 0.232,-0.641 0.232,-0.628C0.232,-0.622 0.233,-0.573 0.235,-0.511C0.237,-0.448 0.237,-0.373 0.237,-0.368L0.237,-0.25L0.132,-0.628C0.128,-0.644 0.119,-0.65 0.108,-0.65L0.06,-0.65C0.048,-0.65 0.042,-0.641 0.042,-0.628C0.042,-0.622 0.042,-0.582 0.044,-0.507C0.045,-0.432 0.046,-0.372 0.046,-0.325C0.046,-0.278 0.045,-0.218 0.044,-0.143C0.042,-0.067 0.042,-0.027 0.042,-0.021C0.042,-0.009 0.048,-0 0.06,-0L0.113,-0C0.124,-0 0.13,-0.01 0.13,-0.021C0.13,-0.028 0.129,-0.079 0.127,-0.146C0.125,-0.213 0.125,-0.272 0.125,-0.283L0.125,-0.4C0.129,-0.384 0.16,-0.282 0.172,-0.24C0.189,-0.178 0.218,-0.073 0.23,-0.021C0.234,-0.008 0.245,-0 0.255,-0L0.302,-0C0.314,-0 0.321,-0.009 0.321,-0.021Z" style="fill:white;fill-rule:nonzero;"/>
        </g>
        <g transform="matrix(29.2418,0,0,29.2418,76.6367,451.291)">
            <path d="M0.359,-0.22C0.359,-0.225 0.358,-0.23 0.357,-0.235C0.352,-0.259 0.35,-0.286 0.35,-0.299C0.35,-0.308 0.348,-0.313 0.343,-0.313C0.339,-0.313 0.332,-0.308 0.329,-0.305C0.301,-0.28 0.268,-0.235 0.255,-0.208C0.246,-0.227 0.217,-0.303 0.21,-0.329C0.26,-0.363 0.316,-0.419 0.316,-0.493C0.316,-0.59 0.282,-0.659 0.208,-0.659C0.142,-0.659 0.1,-0.587 0.1,-0.491C0.1,-0.444 0.116,-0.382 0.127,-0.353C0.092,-0.33 0.027,-0.27 0.027,-0.163C0.027,-0.061 0.078,0.006 0.143,0.006C0.182,0.006 0.217,-0.015 0.237,-0.058C0.242,-0.046 0.25,-0.028 0.257,-0.014C0.262,-0.004 0.265,-0 0.274,-0L0.34,-0C0.345,-0 0.349,-0.003 0.349,-0.01C0.349,-0.016 0.346,-0.022 0.343,-0.027C0.322,-0.065 0.306,-0.093 0.288,-0.138C0.309,-0.173 0.329,-0.195 0.347,-0.207C0.354,-0.211 0.359,-0.215 0.359,-0.22ZM0.237,-0.494C0.237,-0.449 0.218,-0.417 0.191,-0.394C0.185,-0.417 0.179,-0.456 0.179,-0.494C0.179,-0.556 0.192,-0.578 0.21,-0.578C0.228,-0.578 0.237,-0.551 0.237,-0.494ZM0.206,-0.132C0.191,-0.092 0.176,-0.074 0.155,-0.074C0.133,-0.074 0.112,-0.104 0.112,-0.163C0.112,-0.23 0.125,-0.263 0.148,-0.288C0.163,-0.24 0.192,-0.166 0.206,-0.132Z" style="fill:white;fill-rule:nonzero;"/>
        </g>
        <g transform="matrix(29.2418,0,0,29.2418,94.1233,451.291)">
            <path d="M0.46,-0.631C0.46,-0.641 0.45,-0.65 0.438,-0.65L0.07,-0.65C0.059,-0.65 0.052,-0.641 0.052,-0.628C0.052,-0.622 0.053,-0.582 0.056,-0.507C0.06,-0.432 0.061,-0.372 0.061,-0.325C0.061,-0.278 0.059,-0.218 0.056,-0.143C0.053,-0.067 0.052,-0.027 0.052,-0.021C0.052,-0.009 0.059,-0 0.07,-0L0.225,-0C0.234,-0 0.243,-0.01 0.243,-0.022L0.23,-0.229C0.23,-0.24 0.234,-0.244 0.246,-0.244L0.356,-0.244C0.365,-0.244 0.374,-0.249 0.374,-0.265L0.374,-0.388C0.374,-0.401 0.37,-0.407 0.356,-0.407L0.244,-0.407C0.233,-0.407 0.23,-0.413 0.23,-0.421L0.23,-0.46C0.23,-0.473 0.239,-0.477 0.25,-0.477L0.427,-0.477C0.445,-0.477 0.452,-0.488 0.452,-0.494L0.46,-0.631Z" style="fill:white;fill-rule:nonzero;"/>
        </g>
        <g transform="matrix(29.2418,0,0,29.2418,108.247,451.291)">
            <path d="M0.242,-0.021C0.242,-0.027 0.241,-0.067 0.238,-0.143C0.235,-0.218 0.233,-0.278 0.233,-0.325C0.233,-0.372 0.234,-0.432 0.238,-0.507C0.241,-0.582 0.242,-0.622 0.242,-0.628C0.242,-0.641 0.235,-0.65 0.224,-0.65L0.07,-0.65C0.059,-0.65 0.052,-0.641 0.052,-0.628C0.052,-0.622 0.053,-0.582 0.056,-0.507C0.06,-0.432 0.061,-0.372 0.061,-0.325C0.061,-0.278 0.059,-0.218 0.056,-0.143C0.053,-0.067 0.052,-0.027 0.052,-0.021C0.052,-0.009 0.059,-0 0.07,-0L0.224,-0C0.235,-0 0.242,-0.009 0.242,-0.021Z" style="fill:white;fill-rule:nonzero;"/>
        </g>
        <g transform="matrix(29.2418,0,0,29.2418,116.844,451.291)">
            <path d="M0.5,-0.165C0.5,-0.236 0.47,-0.295 0.401,-0.327C0.458,-0.36 0.496,-0.404 0.496,-0.486C0.496,-0.577 0.418,-0.65 0.307,-0.65L0.07,-0.65C0.059,-0.65 0.052,-0.641 0.052,-0.628C0.052,-0.622 0.053,-0.582 0.056,-0.507C0.06,-0.432 0.061,-0.372 0.061,-0.325C0.061,-0.278 0.059,-0.218 0.056,-0.143C0.053,-0.067 0.052,-0.027 0.052,-0.021C0.052,-0.009 0.059,-0 0.07,-0L0.326,-0C0.421,-0 0.5,-0.074 0.5,-0.165ZM0.321,-0.443C0.321,-0.417 0.302,-0.401 0.261,-0.401C0.239,-0.401 0.23,-0.413 0.23,-0.429L0.23,-0.443C0.23,-0.466 0.245,-0.48 0.279,-0.48C0.312,-0.48 0.321,-0.46 0.321,-0.443ZM0.325,-0.207C0.325,-0.183 0.308,-0.17 0.279,-0.17L0.27,-0.17C0.245,-0.17 0.23,-0.187 0.23,-0.212L0.23,-0.226C0.23,-0.244 0.241,-0.252 0.263,-0.252C0.31,-0.252 0.325,-0.227 0.325,-0.207Z" style="fill:white;fill-rule:nonzero;"/>
        </g>
        <g transform="matrix(29.2418,0,0,29.2418,132.752,451.291)">
            <path d="M0.534,-0.012C0.534,-0.016 0.53,-0.024 0.529,-0.029C0.449,-0.254 0.434,-0.292 0.404,-0.32C0.44,-0.338 0.496,-0.383 0.496,-0.477C0.496,-0.532 0.478,-0.574 0.444,-0.604C0.409,-0.635 0.364,-0.65 0.307,-0.65L0.07,-0.65C0.059,-0.65 0.052,-0.641 0.052,-0.628C0.052,-0.622 0.053,-0.582 0.056,-0.507C0.06,-0.432 0.061,-0.372 0.061,-0.325C0.061,-0.278 0.059,-0.218 0.056,-0.143C0.053,-0.067 0.052,-0.027 0.052,-0.021C0.052,-0.009 0.059,-0 0.07,-0L0.224,-0C0.236,-0 0.242,-0.01 0.242,-0.021C0.242,-0.026 0.241,-0.053 0.239,-0.102C0.236,-0.152 0.235,-0.201 0.234,-0.25L0.244,-0.25C0.268,-0.25 0.283,-0.238 0.291,-0.218C0.296,-0.206 0.304,-0.174 0.314,-0.125C0.324,-0.075 0.333,-0.04 0.339,-0.02C0.344,-0.004 0.352,-0 0.363,-0L0.518,-0C0.532,-0 0.534,-0.006 0.534,-0.012ZM0.321,-0.449C0.321,-0.422 0.301,-0.408 0.261,-0.408C0.233,-0.408 0.23,-0.418 0.23,-0.434L0.23,-0.443C0.23,-0.466 0.245,-0.48 0.279,-0.48C0.312,-0.48 0.321,-0.467 0.321,-0.449Z" style="fill:white;fill-rule:nonzero;"/>
        </g>
        <g transform="matrix(29.2418,0,0,29.2418,148.747,451.291)">
            <path d="M0.475,-0.015L0.466,-0.152C0.465,-0.165 0.459,-0.173 0.438,-0.173L0.27,-0.173C0.242,-0.173 0.23,-0.184 0.23,-0.199L0.23,-0.229C0.23,-0.24 0.236,-0.244 0.246,-0.244L0.363,-0.244C0.372,-0.244 0.381,-0.249 0.381,-0.265L0.381,-0.388C0.381,-0.401 0.377,-0.407 0.363,-0.407L0.244,-0.407C0.233,-0.407 0.23,-0.413 0.23,-0.421L0.23,-0.46C0.23,-0.473 0.239,-0.477 0.25,-0.477L0.441,-0.477C0.46,-0.477 0.466,-0.488 0.467,-0.494L0.475,-0.631C0.475,-0.641 0.464,-0.65 0.453,-0.65L0.07,-0.65C0.059,-0.65 0.052,-0.641 0.052,-0.628C0.052,-0.622 0.053,-0.582 0.056,-0.507C0.06,-0.432 0.061,-0.372 0.061,-0.325C0.061,-0.278 0.059,-0.218 0.056,-0.143C0.053,-0.067 0.052,-0.027 0.052,-0.021C0.052,-0.009 0.059,-0 0.07,-0L0.457,-0C0.466,-0 0.475,-0.005 0.475,-0.015Z" style="fill:white;fill-rule:nonzero;"/>
        </g>
    </g>
</svg>
