<?xml version="1.0" encoding="UTF-8" standalone="no"?>
<!DOCTYPE svg PUBLIC "-//W3C//DTD SVG 1.1//EN" "http://www.w3.org/Graphics/SVG/1.1/DTD/svg11.dtd">
<svg width="100%" height="100%" viewBox="0 0 236 236" version="1.1" xmlns="http://www.w3.org/2000/svg" xmlns:xlink="http://www.w3.org/1999/xlink" xml:space="preserve" xmlns:serif="http://www.serif.com/" style="fill-rule:evenodd;clip-rule:evenodd;stroke-linejoin:round;stroke-miterlimit:2;">
    <g transform="matrix(-8.33333,0,0,8.33333,121.008,141.256)">
        <path d="M0,-5.442C1.503,-5.442 2.722,-4.224 2.722,-2.721C2.722,-1.218 1.503,0 0,0C-1.503,0 -2.722,-1.218 -2.722,-2.721C-2.722,-4.224 -1.503,-5.442 0,-5.442" style="fill:rgb(29,30,27);fill-rule:nonzero;"/>
    </g>
    <g transform="matrix(8.33333,0,0,8.33333,157.328,146.737)">
        <path d="M0,-6.757C-0.541,-6.757 -0.979,-7.195 -0.979,-7.736C-0.979,-8.278 -0.541,-8.716 0,-8.716C0.541,-8.716 0.979,-8.278 0.979,-7.736C0.979,-7.195 0.541,-6.757 0,-6.757M-4.358,0.814C-6.674,0.814 -8.551,-1.063 -8.551,-3.379C-8.551,-5.694 -6.674,-7.571 -4.358,-7.571C-2.043,-7.571 -0.166,-5.694 -0.166,-3.379C-0.166,-1.063 -2.043,0.814 -4.358,0.814M2.006,-8.194C1.858,-8.575 1.682,-8.846 1.396,-9.132C1.109,-9.418 0.838,-9.595 0.457,-9.743C0.169,-9.855 -0.264,-9.988 -1.06,-10.024C-1.92,-10.063 -2.179,-10.072 -4.358,-10.072C-6.538,-10.072 -6.797,-10.063 -7.657,-10.024C-8.453,-9.988 -8.886,-9.855 -9.173,-9.743C-9.555,-9.595 -9.826,-9.418 -10.112,-9.132C-10.397,-8.846 -10.574,-8.575 -10.723,-8.194C-10.835,-7.906 -10.968,-7.473 -11.004,-6.677C-11.043,-5.817 -11.052,-5.558 -11.052,-3.379C-11.052,-1.198 -11.043,-0.941 -11.004,-0.079C-10.968,0.717 -10.835,1.149 -10.723,1.437C-10.574,1.818 -10.397,2.09 -10.112,2.375C-9.826,2.661 -9.555,2.838 -9.173,2.986C-8.886,3.097 -8.453,3.231 -7.657,3.267C-6.797,3.306 -6.538,3.315 -4.358,3.315C-2.179,3.315 -1.92,3.306 -1.06,3.267C-0.264,3.231 0.169,3.097 0.457,2.986C0.838,2.838 1.109,2.661 1.396,2.375C1.682,2.09 1.858,1.818 2.006,1.437C2.118,1.149 2.251,0.717 2.287,-0.079C2.327,-0.941 2.335,-1.198 2.335,-3.379C2.335,-5.558 2.327,-5.817 2.287,-6.677C2.251,-7.473 2.118,-7.906 2.006,-8.194" style="fill:rgb(29,30,27);fill-rule:nonzero;"/>
    </g>
    <g transform="matrix(8.33333,0,0,8.33333,188.636,83.2258)">
        <path d="M0,7.609C-0.04,8.478 -0.178,9.071 -0.38,9.591C-0.588,10.128 -0.867,10.583 -1.321,11.037C-1.774,11.491 -2.23,11.77 -2.768,11.979C-3.287,12.18 -3.88,12.318 -4.749,12.358C-5.62,12.398 -5.897,12.407 -8.115,12.407C-10.332,12.407 -10.61,12.398 -11.481,12.358C-12.351,12.318 -12.943,12.18 -13.463,11.979C-14,11.77 -14.455,11.491 -14.909,11.037C-15.363,10.583 -15.642,10.128 -15.851,9.591C-16.053,9.071 -16.19,8.478 -16.23,7.609C-16.27,6.738 -16.279,6.46 -16.279,4.243C-16.279,2.026 -16.27,1.748 -16.23,0.877C-16.19,0.008 -16.053,-0.586 -15.851,-1.105C-15.642,-1.642 -15.363,-2.097 -14.909,-2.551C-14.455,-3.005 -14,-3.284 -13.463,-3.493C-12.943,-3.695 -12.351,-3.832 -11.481,-3.872C-10.61,-3.912 -10.332,-3.921 -8.115,-3.921C-5.897,-3.921 -5.62,-3.912 -4.749,-3.872C-3.88,-3.832 -3.287,-3.695 -2.768,-3.493C-2.23,-3.284 -1.774,-3.005 -1.321,-2.551C-0.867,-2.097 -0.588,-1.642 -0.38,-1.105C-0.178,-0.586 -0.04,0.008 0,0.877C0.04,1.748 0.049,2.026 0.049,4.243C0.049,6.46 0.04,6.738 0,7.609M4.616,-1.178C4.604,-1.211 4.596,-1.242 4.583,-1.275C3.961,-2.782 2.993,-5.742 3.343,-8.695C3.371,-8.93 3.106,-9.085 2.921,-8.938C2.093,-8.283 0.331,-7.38 -2.275,-8.552L-2.276,-8.549C-9.229,-11.945 -17.638,-9.127 -21.124,-2.196C-23.476,2.476 -22.99,7.829 -20.322,11.914C-20.254,12.005 -20.188,12.097 -20.113,12.185C-18.529,14.032 -16.112,14.752 -13.836,14.294C-14.967,14.86 -16.188,15.14 -17.4,15.151C-16.013,16.276 -14.38,17.174 -12.504,17.732C-6.377,19.554 0.312,16.978 3.615,11.506C6.052,7.469 6.233,2.792 4.616,-1.178" style="fill:rgb(29,30,27);fill-rule:nonzero;"/>
    </g>
</svg>
