<?xml version="1.0" encoding="UTF-8" standalone="no"?>
<!DOCTYPE svg PUBLIC "-//W3C//DTD SVG 1.1//EN" "http://www.w3.org/Graphics/SVG/1.1/DTD/svg11.dtd">
<svg width="100%" height="100%" viewBox="0 0 837 536" version="1.1" xmlns="http://www.w3.org/2000/svg" xmlns:xlink="http://www.w3.org/1999/xlink" xml:space="preserve" xmlns:serif="http://www.serif.com/" style="fill-rule:evenodd;clip-rule:evenodd;stroke-linejoin:round;stroke-miterlimit:2;">
    <g transform="matrix(8.33333,0,0,8.33333,161.408,160.402)">
        <path d="M0,-12.186L-2.613,0.034L-5.775,0.034L-3.16,-12.186L0,-12.186ZM13.3,-4.296L14.964,-8.884L15.922,-4.296L13.3,-4.296ZM16.827,0.034L19.751,0.034L17.199,-12.186L14.501,-12.186C13.894,-12.186 13.382,-11.833 13.155,-11.29L8.412,0.034L11.73,0.034L12.39,-1.792L16.445,-1.792L16.827,0.034ZM8.576,-3.957C8.591,-7.181 4.117,-7.359 4.147,-8.8C4.157,-9.239 4.575,-9.705 5.488,-9.824C5.94,-9.882 7.189,-9.928 8.604,-9.277L9.16,-11.868C8.399,-12.144 7.421,-12.41 6.203,-12.41C3.079,-12.41 0.879,-10.749 0.861,-8.371C0.841,-6.611 2.432,-5.63 3.63,-5.044C4.86,-4.446 5.273,-4.062 5.269,-3.527C5.26,-2.707 4.286,-2.344 3.377,-2.331C1.787,-2.306 0.865,-2.76 0.13,-3.102L-0.442,-0.424C0.296,-0.085 1.659,0.21 3.073,0.224C6.395,0.224 8.566,-1.415 8.576,-3.957M-4.517,-12.186L-9.638,0.034L-12.979,0.034L-15.5,-9.719C-15.653,-10.319 -15.785,-10.54 -16.251,-10.791C-17.011,-11.205 -18.266,-11.591 -19.369,-11.832L-19.295,-12.186L-13.916,-12.186C-13.23,-12.186 -12.613,-11.73 -12.458,-10.941L-11.127,-3.87L-7.837,-12.186L-4.517,-12.186Z" style="fill:rgb(240,238,232);fill-rule:nonzero;"/>
    </g>
    <g transform="matrix(8.33333,0,0,8.33333,468.651,494.378)">
        <path d="M0,-10.849L-3.905,-10.849C-4.173,-10.849 -4.399,-10.655 -4.441,-10.391L-6.021,-0.376C-6.053,-0.179 -5.899,0 -5.699,0L-3.835,0C-3.567,0 -3.34,-0.195 -3.298,-0.459L-2.872,-3.161C-2.831,-3.424 -2.604,-3.619 -2.337,-3.619L-1.101,-3.619C1.473,-3.619 2.957,-4.864 3.345,-7.33C3.52,-8.41 3.353,-9.258 2.847,-9.852C2.292,-10.504 1.308,-10.849 0,-10.849M0.45,-7.191C0.237,-5.789 -0.834,-5.789 -1.869,-5.789L-2.458,-5.789L-2.045,-8.407C-2.021,-8.565 -1.883,-8.682 -1.724,-8.682L-1.453,-8.682C-0.748,-8.682 -0.083,-8.682 0.261,-8.28C0.466,-8.039 0.529,-7.684 0.45,-7.191" style="fill:rgb(240,238,232);fill-rule:nonzero;"/>
    </g>
    <g transform="matrix(8.33333,0,0,8.33333,565.933,494.356)">
        <path d="M0,-7.234L-1.87,-7.234C-2.029,-7.234 -2.167,-7.117 -2.191,-6.959L-2.274,-6.436L-2.405,-6.626C-2.81,-7.213 -3.713,-7.41 -4.614,-7.41C-6.681,-7.41 -8.445,-5.844 -8.789,-3.649C-8.968,-2.553 -8.714,-1.506 -8.093,-0.776C-7.522,-0.104 -6.707,0.176 -5.737,0.176C-4.072,0.176 -3.148,-0.895 -3.148,-0.895L-3.231,-0.376C-3.264,-0.176 -3.11,0.001 -2.911,0.001L-1.227,0.001C-0.959,0.001 -0.732,-0.193 -0.69,-0.457L0.32,-6.858C0.353,-7.055 0.2,-7.234 0,-7.234M-2.606,-3.593C-2.787,-2.525 -3.635,-1.808 -4.717,-1.808C-5.26,-1.808 -5.693,-1.982 -5.973,-2.312C-6.249,-2.64 -6.354,-3.107 -6.266,-3.627C-6.098,-4.686 -5.235,-5.426 -4.17,-5.426C-3.639,-5.426 -3.207,-5.25 -2.923,-4.917C-2.638,-4.581 -2.524,-4.111 -2.606,-3.593" style="fill:rgb(240,238,232);fill-rule:nonzero;"/>
    </g>
    <g transform="matrix(8.33333,0,0,8.33333,648.941,515.464)">
        <path d="M0,-9.767L-1.88,-9.767C-2.059,-9.767 -2.228,-9.677 -2.329,-9.529L-4.921,-5.71L-6.02,-9.379C-6.089,-9.609 -6.301,-9.767 -6.541,-9.767L-8.388,-9.767C-8.612,-9.767 -8.768,-9.547 -8.696,-9.336L-6.626,-3.261L-8.572,-0.514C-8.726,-0.297 -8.571,0 -8.307,0L-6.43,0C-6.252,0 -6.085,-0.086 -5.983,-0.233L0.267,-9.255C0.417,-9.471 0.263,-9.767 0,-9.767" style="fill:rgb(240,238,232);fill-rule:nonzero;"/>
    </g>
    <g transform="matrix(8.33333,0,0,8.33333,700.788,494.378)">
        <path d="M0,-10.849L-3.906,-10.849C-4.173,-10.849 -4.399,-10.655 -4.441,-10.391L-6.021,-0.376C-6.053,-0.179 -5.899,0 -5.7,0L-3.695,0C-3.51,0 -3.351,-0.136 -3.321,-0.322L-2.873,-3.161C-2.832,-3.424 -2.604,-3.619 -2.337,-3.619L-1.102,-3.619C1.472,-3.619 2.956,-4.864 3.344,-7.33C3.52,-8.41 3.351,-9.258 2.846,-9.852C2.291,-10.504 1.308,-10.849 0,-10.849M0.451,-7.191C0.237,-5.789 -0.833,-5.789 -1.869,-5.789L-2.458,-5.789L-2.044,-8.407C-2.02,-8.565 -1.883,-8.682 -1.723,-8.682L-1.452,-8.682C-0.748,-8.682 -0.082,-8.682 0.262,-8.28C0.467,-8.039 0.529,-7.684 0.451,-7.191" style="fill:rgb(240,238,232);fill-rule:nonzero;"/>
    </g>
    <g transform="matrix(8.33333,0,0,8.33333,798.07,494.356)">
        <path d="M0,-7.234L-1.869,-7.234C-2.029,-7.234 -2.166,-7.117 -2.19,-6.959L-2.273,-6.436L-2.404,-6.626C-2.81,-7.213 -3.712,-7.41 -4.612,-7.41C-6.68,-7.41 -8.443,-5.844 -8.787,-3.649C-8.966,-2.553 -8.713,-1.506 -8.092,-0.776C-7.521,-0.104 -6.706,0.176 -5.736,0.176C-4.07,0.176 -3.147,-0.895 -3.147,-0.895L-3.23,-0.376C-3.262,-0.176 -3.109,0.001 -2.908,0.001L-1.225,0.001C-0.958,0.001 -0.73,-0.193 -0.688,-0.457L0.322,-6.858C0.354,-7.055 0.2,-7.234 0,-7.234M-2.607,-3.593C-2.786,-2.525 -3.636,-1.808 -4.717,-1.808C-5.259,-1.808 -5.694,-1.982 -5.973,-2.312C-6.249,-2.64 -6.354,-3.107 -6.267,-3.627C-6.097,-4.686 -5.235,-5.426 -4.171,-5.426C-3.64,-5.426 -3.208,-5.25 -2.924,-4.917C-2.638,-4.581 -2.524,-4.111 -2.607,-3.593" style="fill:rgb(240,238,232);fill-rule:nonzero;"/>
    </g>
    <g transform="matrix(8.33333,0,0,8.33333,816.438,492.09)">
        <path d="M0,-10.3L-1.603,-0.102C-1.634,0.096 -1.48,0.274 -1.281,0.274L0.33,0.274C0.598,0.274 0.825,0.08 0.866,-0.185L2.447,-10.198C2.479,-10.396 2.325,-10.574 2.126,-10.574L0.321,-10.574C0.162,-10.574 0.025,-10.458 0,-10.3" style="fill:rgb(240,238,232);fill-rule:nonzero;"/>
    </g>
    <g transform="matrix(8.33333,0,0,8.33333,536.058,268.911)">
        <path d="M0,1.42C0,0.75 0.434,0.197 1.144,0.197C1.814,0.197 2.288,0.71 2.288,1.42C2.288,2.091 1.814,2.644 1.144,2.644C0.434,2.604 0,2.091 0,1.42M3.077,3.314L3.077,-0.474L2.248,-0.474L2.248,0C1.972,-0.355 1.578,-0.553 1.064,-0.553C0,-0.553 -0.829,0.276 -0.829,1.42C-0.829,2.565 0,3.393 1.064,3.393C1.617,3.393 2.012,3.195 2.248,2.841L2.248,3.314L3.077,3.314ZM30.771,1.42C30.771,0.75 31.204,0.197 31.915,0.197C32.585,0.197 33.059,0.71 33.059,1.42C33.059,2.091 32.585,2.644 31.915,2.644C31.204,2.604 30.771,2.091 30.771,1.42M33.809,3.314L33.809,-1.973L32.979,-1.973L32.979,0C32.703,-0.355 32.309,-0.553 31.796,-0.553C30.731,-0.553 29.902,0.276 29.902,1.42C29.902,2.565 30.731,3.393 31.796,3.393C32.349,3.393 32.743,3.195 32.979,2.841L32.979,3.314L33.809,3.314ZM13.255,0.158C13.768,0.158 14.123,0.474 14.201,1.066L12.229,1.066C12.308,0.553 12.663,0.158 13.255,0.158M13.255,-0.553C12.15,-0.553 11.361,0.236 11.361,1.42C11.361,2.604 12.15,3.393 13.294,3.393C13.847,3.393 14.398,3.235 14.833,2.88L14.438,2.288C14.123,2.524 13.729,2.683 13.334,2.683C12.821,2.683 12.308,2.446 12.189,1.775L14.99,1.775L14.99,1.46C15.03,0.236 14.32,-0.553 13.255,-0.553M23.156,1.42C23.156,0.75 23.591,0.197 24.301,0.197C24.972,0.197 25.444,0.71 25.444,1.42C25.444,2.091 24.972,2.644 24.301,2.644C23.591,2.604 23.156,2.091 23.156,1.42M26.194,3.314L26.194,-0.474L25.366,-0.474L25.366,0C25.09,-0.355 24.695,-0.553 24.183,-0.553C23.117,-0.553 22.289,0.276 22.289,1.42C22.289,2.565 23.117,3.393 24.183,3.393C24.734,3.393 25.129,3.195 25.366,2.841L25.366,3.314L26.194,3.314ZM18.541,1.42C18.541,2.565 19.33,3.393 20.553,3.393C21.105,3.393 21.5,3.274 21.895,2.959L21.5,2.288C21.185,2.524 20.868,2.644 20.514,2.644C19.843,2.644 19.369,2.17 19.369,1.42C19.369,0.71 19.843,0.236 20.514,0.197C20.868,0.197 21.185,0.316 21.5,0.553L21.895,-0.118C21.5,-0.434 21.105,-0.553 20.553,-0.553C19.33,-0.553 18.541,0.276 18.541,1.42M29.113,-0.553C28.641,-0.553 28.324,-0.315 28.127,0L28.127,-0.474L27.299,-0.474L27.299,3.314L28.127,3.314L28.127,1.184C28.127,0.553 28.403,0.197 28.916,0.197C29.074,0.197 29.271,0.236 29.43,0.276L29.666,-0.513C29.508,-0.553 29.271,-0.553 29.113,-0.553M7.101,-0.158C6.706,-0.434 6.154,-0.553 5.562,-0.553C4.615,-0.553 3.984,-0.079 3.984,0.671C3.984,1.302 4.457,1.657 5.286,1.775L5.681,1.815C6.114,1.894 6.351,2.012 6.351,2.209C6.351,2.485 6.035,2.683 5.483,2.683C4.931,2.683 4.497,2.485 4.221,2.288L3.826,2.919C4.26,3.235 4.852,3.393 5.443,3.393C6.548,3.393 7.18,2.88 7.18,2.17C7.18,1.499 6.667,1.145 5.878,1.025L5.483,0.986C5.128,0.947 4.852,0.868 4.852,0.631C4.852,0.356 5.128,0.197 5.562,0.197C6.035,0.197 6.509,0.395 6.745,0.513L7.101,-0.158ZM17.713,-0.553C17.239,-0.553 16.924,-0.315 16.727,0L16.727,-0.474L15.897,-0.474L15.897,3.314L16.727,3.314L16.727,1.184C16.727,0.553 17.003,0.197 17.516,0.197C17.673,0.197 17.87,0.236 18.028,0.276L18.265,-0.513C18.107,-0.553 17.87,-0.553 17.713,-0.553M10.69,-0.474L9.35,-0.474L9.35,-1.617L8.521,-1.617L8.521,-0.474L7.771,-0.474L7.771,0.276L8.521,0.276L8.521,2.012C8.521,2.88 8.876,3.393 9.822,3.393C10.178,3.393 10.572,3.274 10.849,3.116L10.611,2.406C10.375,2.565 10.099,2.604 9.901,2.604C9.507,2.604 9.35,2.367 9.35,1.973L9.35,0.276L10.69,0.276L10.69,-0.474ZM-1.578,3.314L-1.578,0.947C-1.578,0.039 -2.131,-0.553 -3.077,-0.553C-3.551,-0.553 -4.063,-0.394 -4.419,0.118C-4.695,-0.315 -5.09,-0.553 -5.681,-0.553C-6.075,-0.553 -6.47,-0.434 -6.786,0L-6.786,-0.474L-7.614,-0.474L-7.614,3.314L-6.786,3.314L-6.786,1.223C-6.786,0.553 -6.431,0.236 -5.878,0.236C-5.326,0.236 -5.05,0.592 -5.05,1.223L-5.05,3.314L-4.222,3.314L-4.222,1.223C-4.222,0.553 -3.827,0.236 -3.314,0.236C-2.762,0.236 -2.485,0.592 -2.485,1.223L-2.485,3.314L-1.578,3.314Z" style="fill:rgb(240,238,232);fill-rule:nonzero;"/>
    </g>
    <g transform="matrix(8.33333,0,0,8.33333,-5915.5,-29289.5)">
        <g opacity="0.5">
            <g transform="matrix(1,0,0,1,0,3452.97)">
                <rect x="781.012" y="64.806" width="12.426" height="22.329" style="fill:rgb(240,238,232);"/>
            </g>
        </g>
    </g>
    <g transform="matrix(8.33333,0,0,8.33333,599.502,118.35)">
        <path d="M0,-0.001C0,-4.537 2.131,-8.562 5.405,-11.165C2.998,-13.059 -0.039,-14.202 -3.354,-14.202C-11.203,-14.202 -17.555,-7.852 -17.555,-0.001C-17.555,7.85 -11.203,14.201 -3.354,14.201C-0.039,14.201 2.998,13.058 5.405,11.164C2.131,8.6 0,4.536 0,-0.001" style="fill:rgb(240,238,232);fill-rule:nonzero;"/>
    </g>
    <g transform="matrix(8.33333,0,0,8.33333,836.205,118.35)">
        <path d="M0,-0.001C0,7.85 -6.352,14.201 -14.202,14.201C-17.516,14.201 -20.554,13.058 -22.96,11.164C-19.646,8.56 -17.556,4.536 -17.556,-0.001C-17.556,-4.537 -19.686,-8.562 -22.96,-11.165C-20.554,-13.059 -17.516,-14.202 -14.202,-14.202C-6.352,-14.202 0,-7.812 0,-0.001" style="fill:rgb(240,238,232);fill-rule:nonzero;"/>
    </g>
    <g transform="matrix(8.33333,0,0,8.33333,154.255,384.758)">
        <path d="M0,-0.512L1.071,-0.512C1.383,-0.512 1.638,-0.685 1.638,-0.899C1.638,-1.114 1.383,-1.286 1.071,-1.286L0,-1.286L0,-0.512M1.7,1.866L1.7,1.071C1.7,1.071 1.658,0.449 1.009,0.449L0,0.449L0,1.866L-1.037,1.866L-1.037,-2.219L1.479,-2.219C1.479,-2.219 2.792,-2.378 2.792,-1.024C2.792,-0.319 2.212,-0.07 2.212,-0.07C2.212,-0.07 2.716,0.166 2.716,0.857L2.716,1.866L1.7,1.866" style="fill:rgb(240,238,232);fill-rule:nonzero;"/>
    </g>
    <g transform="matrix(8.33333,0,0,8.33333,224.592,381.172)">
        <path d="M0,0.396L1.009,0.396L0.512,-0.821L0,0.396M5.495,2.296L3.851,-0.434L3.851,2.296L1.818,2.296L1.451,1.44L-0.442,1.44L-0.803,2.296L-2.427,2.296C-2.427,2.296 -3.823,2.096 -3.823,0.368C-3.823,-1.9 -2.239,-1.809 -2.185,-1.824L-0.906,-1.789L-0.906,-0.87L-1.956,-0.856C-1.956,-0.856 -2.641,-0.856 -2.725,0.037C-2.734,0.139 -2.738,0.233 -2.737,0.321C-2.734,1.702 -1.539,1.273 -1.5,1.26L-0.215,-1.789L1.237,-1.789L2.792,1.917L2.792,-1.789L4.258,-1.789L5.882,0.901L5.882,-1.789L6.926,-1.789L6.926,2.296L5.495,2.296" style="fill:rgb(240,238,232);fill-rule:nonzero;"/>
    </g>
    <g transform="matrix(8.33333,0,0,8.33333,39.6717,382.097)">
        <path d="M0,0.285L1.01,0.285L0.505,-0.932L0,0.285M7.314,2.185L7.314,-0.634L6.015,2.185L5.164,2.185L3.857,-0.621L3.857,2.185L1.812,2.185L1.452,1.329L-0.441,1.329L-0.809,2.185L-1.941,2.185L-0.221,-1.9L1.238,-1.9L2.813,1.854L2.813,-1.9L4.452,-1.9L5.593,0.638L6.727,-1.9L8.365,-1.9L8.365,2.185L7.314,2.185Z" style="fill:rgb(240,238,232);fill-rule:nonzero;"/>
    </g>
    <g transform="matrix(8.33333,0,0,8.33333,114.159,366.266)">
        <path d="M0,4.085L0,0L3.235,0L3.235,0.954L1.044,0.954L1.044,1.583L3.18,1.583L3.18,2.509L1.044,2.509L1.044,3.201L3.235,3.201L3.235,4.085L0,4.085Z" style="fill:rgb(240,238,232);fill-rule:nonzero;"/>
    </g>
    <g transform="matrix(8.33333,0,0,8.33333,-5915.5,15.2558)">
        <rect x="731.592" y="42.121" width="1.043" height="4.099" style="fill:rgb(240,238,232);"/>
    </g>
    <g transform="matrix(8.33333,0,0,8.33333,187.604,442.482)">
        <path d="M0,-0.512L1.072,-0.512C1.383,-0.512 1.639,-0.685 1.639,-0.899C1.639,-1.114 1.383,-1.286 1.072,-1.286L0,-1.286L0,-0.512M1.701,1.866L1.701,1.071C1.701,1.071 1.659,0.449 1.009,0.449L0,0.449L0,1.866L-1.037,1.866L-1.037,-2.219L1.479,-2.219C1.479,-2.219 2.793,-2.378 2.793,-1.024C2.793,-0.319 2.212,-0.07 2.212,-0.07C2.212,-0.07 2.71,0.166 2.71,0.856L2.71,1.866L1.701,1.866" style="fill:rgb(240,238,232);fill-rule:nonzero;"/>
    </g>
    <g transform="matrix(8.33333,0,0,8.33333,152.701,442.492)">
        <path d="M0,-0.521L1.071,-0.521C1.382,-0.521 1.638,-0.693 1.638,-0.908C1.638,-1.122 1.382,-1.294 1.071,-1.294L0,-1.294L0,-0.521M-6.947,0.973L-4.764,0.973L-3.74,-0.153L-4.764,-1.274L-6.947,-1.274L-6.947,-0.645L-4.818,-0.645L-4.818,0.282L-6.947,0.282L-6.947,0.973M-2.323,-0.153L-1.037,1.271L-1.037,-1.571L-2.323,-0.153M-1.023,1.858L-1.929,1.858L-3.028,0.648L-4.135,1.858L-7.991,1.858L-7.991,-2.234L-4.217,-2.234L-3.028,-0.935L-1.832,-2.227L-1.037,-2.227L-1.037,-2.234L1.479,-2.234C1.479,-2.234 2.792,-2.379 2.792,-1.032C2.792,0.17 2.356,0.544 1.016,0.544L0,0.544L0,1.858L-1.023,1.858" style="fill:rgb(240,238,232);fill-rule:nonzero;"/>
    </g>
    <g transform="matrix(8.33333,0,0,8.33333,260.708,423.342)">
        <path d="M0,4.149L-1.846,4.149L-1.846,3.209L-0.229,3.209C-0.229,3.209 0.353,3.278 0.353,2.884C0.353,2.517 -0.525,2.545 -0.525,2.545C-0.525,2.545 -1.956,2.67 -1.956,1.329C-1.956,-0.005 -0.664,0.071 -0.664,0.071L1.327,0.071L1.327,1.024L-0.276,1.024C-0.276,1.024 -0.83,0.914 -0.83,1.315C-0.83,1.653 -0.076,1.605 -0.076,1.605C-0.076,1.605 1.507,1.488 1.507,2.718C1.507,4.038 0.486,4.154 0.125,4.154C0.047,4.154 0,4.149 0,4.149" style="fill:rgb(240,238,232);fill-rule:nonzero;"/>
    </g>
    <g transform="matrix(8.33333,0,0,8.33333,214.452,423.991)">
        <path d="M0,4.078L0,0L3.234,0L3.234,0.946L1.044,0.946L1.044,1.575L3.18,1.575L3.18,2.502L1.044,2.502L1.044,3.193L3.234,3.193L3.234,4.078L0,4.078Z" style="fill:rgb(240,238,232);fill-rule:nonzero;"/>
    </g>
    <g transform="matrix(8.33333,0,0,8.33333,291.177,423.342)">
        <path d="M0,4.149L-1.846,4.149L-1.846,3.209L-0.234,3.209C-0.234,3.209 0.353,3.278 0.353,2.884C0.353,2.517 -0.524,2.545 -0.524,2.545C-0.524,2.545 -1.956,2.67 -1.956,1.329C-1.956,-0.005 -0.663,0.071 -0.663,0.071L1.321,0.071L1.321,1.024L-0.276,1.024C-0.276,1.024 -0.829,0.914 -0.829,1.315C-0.829,1.653 -0.075,1.605 -0.075,1.605C-0.075,1.605 1.507,1.488 1.507,2.718C1.507,4.038 0.487,4.154 0.126,4.154C0.048,4.154 0,4.149 0,4.149" style="fill:rgb(240,238,232);fill-rule:nonzero;"/>
    </g>
    <g transform="matrix(8.33333,0,0,8.33333,292.105,333.904)">
        <path d="M0,15.655C0,15.655 -0.064,15.651 -0.125,15.648L-2.739,15.649L-2.739,15.47C-3.036,15.593 -3.353,15.655 -3.656,15.655C-3.656,15.655 -3.721,15.651 -3.782,15.648L-5.33,15.649L-5.33,15.656L-9.076,15.656L-9.076,15.663L-11.622,15.663L-11.622,14.895C-11.622,14.895 -11.618,14.349 -11.617,14.246L-11.786,14.246L-11.786,15.663L-14.359,15.663L-14.359,14.128C-14.782,14.299 -15.267,14.343 -15.728,14.343L-15.975,14.343L-15.975,15.656L-19.012,15.656C-19.012,15.656 -19.507,15.111 -19.772,14.818C-20.041,15.113 -20.539,15.656 -20.539,15.656L-25.502,15.656L-25.502,10.028L-20.622,10.028C-20.622,10.028 -20.08,10.621 -19.768,10.962C-19.454,10.622 -18.911,10.035 -18.911,10.035L-18.575,10.035L-17.78,10.028L-15.291,10.028C-15.146,10.018 -14.766,10.016 -14.359,10.17L-14.359,10.042L-11.104,10.042C-10.944,10.03 -10.529,10.022 -10.101,10.2L-10.101,10.042L-5.33,10.042L-5.33,10.203C-4.879,10.021 -4.465,10.033 -4.4,10.037L-1.687,10.035L-1.687,10.209C-1.23,10.02 -0.808,10.032 -0.744,10.037L1.209,10.036L1.209,-8.504L-32.179,-8.504L-32.179,5.827L-31.037,3.116L-28.558,3.116C-28.558,3.116 -28.272,3.796 -28.261,3.824L-28.261,3.116L-25.357,3.116C-25.357,3.116 -24.923,4.082 -24.716,4.543C-24.51,4.083 -24.078,3.116 -24.078,3.116L-15.107,3.116C-14.949,3.104 -14.533,3.095 -14.103,3.274L-14.103,3.116L-11.523,3.116L-11.523,3.455C-11.146,3.22 -10.714,3.1 -10.279,3.081C-10.279,3.081 -8.896,3.119 -8.842,3.12L-8.84,3.116L-6.368,3.116C-6.368,3.116 -6.1,3.757 -6.092,3.774L-6.092,3.116L-3.425,3.116C-3.425,3.116 -3.044,3.745 -3.002,3.816L-3.002,3.116L-0.422,3.116L-0.422,8.737L-3.055,8.737C-3.055,8.737 -3.447,8.086 -3.497,8.002L-3.497,8.737L-6.805,8.737C-6.805,8.737 -7.088,8.074 -7.171,7.88L-8.048,7.88C-8.128,8.071 -8.406,8.737 -8.406,8.737L-10.597,8.737L-10.651,8.729C-10.895,8.694 -11.211,8.583 -11.523,8.385L-11.523,8.751L-13.335,8.751L-13.335,8.737L-15.624,8.737L-15.624,7.968C-15.624,7.968 -15.62,7.423 -15.619,7.32L-15.789,7.32L-15.789,8.737L-23.761,8.737L-23.761,8.65C-23.772,8.677 -23.8,8.737 -23.8,8.737L-25.632,8.737C-25.632,8.737 -25.663,8.67 -25.681,8.632L-25.681,8.737L-29.006,8.737C-29.006,8.737 -29.285,8.071 -29.365,7.88L-30.241,7.88C-30.324,8.074 -30.607,8.737 -30.607,8.737L-32.179,8.737L-32.179,24.159L1.209,24.159L1.209,15.323C0.838,15.551 0.406,15.655 0,15.655" style="fill:rgb(240,238,232);fill-rule:nonzero;"/>
    </g>
</svg>
