<?xml version="1.0" encoding="UTF-8" standalone="no"?>
<!DOCTYPE svg PUBLIC "-//W3C//DTD SVG 1.1//EN" "http://www.w3.org/Graphics/SVG/1.1/DTD/svg11.dtd">
<svg width="100%" height="100%" viewBox="0 0 3912 4064" version="1.1" xmlns="http://www.w3.org/2000/svg" xmlns:xlink="http://www.w3.org/1999/xlink" xml:space="preserve" xmlns:serif="http://www.serif.com/" style="fill-rule:evenodd;clip-rule:evenodd;stroke-linejoin:round;stroke-miterlimit:2;">
    <g transform="matrix(4.16667,0,0,4.16667,3362.53,650.871)">
        <path d="M0,639.401L0.057,639.473C-63.617,709.741 -53.148,774.589 -40.957,807.44C-38.226,814.799 -45.835,821.556 -52.964,818.272C-142.576,776.989 -245.929,777.222 -299.868,781.415C-301.053,781.507 -302.119,781.453 -303.261,781.489C-445.152,791.878 -590.919,738.247 -693.387,619.997C-832.299,459.688 -845.092,222.18 -724.843,47.437C-688.018,-6.077 -642.951,-48.411 -593.238,-80.713C-605.298,-42.324 -608.968,-0.886 -602.664,40.585C-593.82,-35.949 -546.357,-104.889 -471.813,-135.945C-468.278,-137.417 -464.694,-138.566 -461.116,-139.763C-304.864,-182.155 -130.921,-142.649 -7.521,-20.604C175.538,160.444 178.392,454.723 0,639.401" style="fill:rgb(31,31,29);fill-rule:nonzero;"/>
    </g>
    <g transform="matrix(4.16667,0,0,4.16667,1242.86,3157.29)">
        <path d="M0,-88.549C-5.963,-88.549 -7.771,-88.188 -7.771,-82.585L-7.771,-56.743C-7.771,-52.587 -6.686,-51.684 -1.445,-51.684C5.964,-51.684 9.397,-56.021 9.397,-71.02C9.397,-82.224 5.783,-88.549 0,-88.549M19.155,-46.986C15.541,-41.565 8.132,-37.227 -0.542,-37.227C-2.349,-37.227 -5.783,-37.407 -7.771,-37.77C-7.771,-28.914 -7.409,-13.012 -7.228,-3.977C-6.867,4.879 -6.867,9.758 -6.867,10.661C-6.867,12.649 -7.951,14.456 -10.3,14.456L-20.781,14.456C-22.95,14.456 -24.034,12.83 -24.034,10.661C-24.034,9.577 -24.034,2.348 -23.673,-11.386C-23.492,-24.939 -23.312,-35.781 -23.312,-44.275C-23.312,-52.768 -23.492,-63.611 -23.673,-77.164C-24.034,-90.717 -24.034,-97.945 -24.034,-99.029C-24.034,-101.379 -22.95,-103.005 -20.781,-103.005L0.542,-103.005C8.132,-103.005 15.18,-100.656 19.517,-93.247C22.77,-87.283 24.757,-79.513 24.757,-69.574C24.757,-58.912 22.589,-52.406 19.155,-46.986" style="fill:white;fill-rule:nonzero;"/>
    </g>
    <g transform="matrix(4.16667,0,0,4.16667,1493.59,3157.29)">
        <path d="M0,-88.549C-6.505,-88.549 -7.771,-87.645 -7.771,-82.766L-7.771,-56.201C-7.771,-53.311 -7.228,-52.226 -2.168,-52.226C5.06,-52.226 9.216,-55.659 9.216,-70.116C9.216,-82.946 6.687,-88.549 0,-88.549M26.022,14.456L16.445,14.456C14.276,14.456 12.469,13.733 11.927,10.842C11.204,6.685 10.481,0.902 9.397,-8.133C7.59,-21.324 5.602,-28.372 4.157,-31.625C2.35,-36.143 -0.181,-37.77 -3.795,-37.77L-7.771,-37.77C-7.59,-28.914 -7.409,-13.012 -6.867,-3.977C-6.505,4.879 -6.325,9.758 -6.325,10.661C-6.325,12.649 -7.409,14.456 -9.578,14.456L-20.781,14.456C-22.95,14.456 -24.034,12.83 -24.034,10.661C-24.034,9.577 -24.034,2.348 -23.673,-11.386C-23.492,-24.939 -23.312,-35.781 -23.312,-44.275C-23.312,-52.768 -23.492,-63.611 -23.673,-77.164C-24.034,-90.717 -24.034,-97.945 -24.034,-99.029C-24.034,-101.379 -22.95,-103.005 -20.781,-103.005L1.807,-103.005C8.494,-103.005 14.457,-100.656 18.794,-94.873C22.95,-89.633 24.757,-82.585 24.757,-72.647C24.757,-55.659 18.613,-48.07 12.831,-44.455C19.517,-38.854 20.782,-32.709 28.372,9.035C28.552,9.938 28.914,11.564 28.914,12.287C28.914,13.372 28.552,14.456 26.022,14.456" style="fill:white;fill-rule:nonzero;"/>
    </g>
    <g transform="matrix(4.16667,0,0,4.16667,1794.02,3124.91)">
        <path d="M0,-73.188C-0.542,-79.151 -3.795,-82.042 -7.951,-82.042C-12.288,-82.042 -15.541,-79.151 -16.083,-73.188C-16.625,-67.224 -16.806,-54.033 -16.806,-36.503C-16.806,-18.975 -16.625,-5.783 -16.083,0C-15.541,6.144 -12.288,8.855 -7.951,8.855C-3.795,8.855 -0.542,6.144 0,0C0.542,-5.783 0.723,-18.975 0.723,-36.503C0.723,-54.033 0.542,-67.224 0,-73.188M11.204,14.637C7.229,20.601 1.446,23.492 -6.144,23.492L-9.939,23.492C-17.529,23.492 -23.131,20.601 -27.106,14.637C-30.901,8.855 -32.708,2.891 -32.708,-2.892C-32.708,-5.421 -32.708,-13.915 -32.528,-20.782C-32.347,-27.649 -32.167,-32.889 -32.167,-36.503C-32.167,-40.118 -32.347,-45.359 -32.528,-52.225C-32.708,-59.092 -32.708,-67.766 -32.708,-70.296C-32.708,-75.898 -30.901,-82.042 -27.106,-87.644C-23.131,-93.608 -17.529,-96.68 -9.939,-96.68L-6.144,-96.68C1.446,-96.68 7.229,-93.608 11.204,-87.644C14.818,-82.042 16.625,-75.898 16.625,-70.296C16.625,-67.766 16.625,-59.092 16.445,-52.225C16.264,-45.359 16.083,-40.118 16.083,-36.503C16.083,-32.889 16.264,-27.649 16.445,-20.782C16.625,-13.915 16.625,-5.421 16.625,-2.892C16.625,2.891 14.818,8.855 11.204,14.637" style="fill:white;fill-rule:nonzero;"/>
    </g>
    <g transform="matrix(4.16667,0,0,4.16667,2094.45,3189.66)">
        <path d="M0,-104.089C-0.361,-102.462 -0.361,-101.197 -0.542,-99.752C-0.903,-96.86 -2.71,-96.318 -5.24,-96.318L-13.011,-96.318C-15.541,-96.318 -15.902,-95.957 -15.902,-93.608C-16.083,-89.09 -16.264,-60.537 -16.264,-52.044C-16.264,-43.551 -16.083,-32.708 -15.722,-19.155C-15.541,-5.421 -15.36,1.807 -15.36,2.891C-15.36,5.06 -16.625,6.686 -18.794,6.686L-29.274,6.686C-31.263,6.686 -32.528,5.06 -32.528,2.891C-32.528,1.807 -32.347,-5.421 -32.167,-19.155C-31.805,-32.708 -31.624,-43.551 -31.624,-52.044C-31.624,-60.537 -31.805,-89.09 -31.986,-93.608C-31.986,-95.957 -32.528,-96.318 -34.877,-96.318L-42.647,-96.318C-45.178,-96.318 -46.985,-96.86 -47.527,-99.752C-47.708,-101.197 -47.527,-102.281 -47.888,-104.089C-48.25,-105.896 -48.43,-106.98 -48.43,-108.245C-48.43,-109.691 -48.069,-110.775 -45.72,-110.775L-2.168,-110.775C0.181,-110.775 0.542,-109.691 0.542,-108.245C0.361,-106.98 0.181,-105.896 0,-104.089" style="fill:white;fill-rule:nonzero;"/>
    </g>
    <g transform="matrix(4.16667,0,0,4.16667,2312.79,2728.1)">
        <path d="M0,117.461L-39.937,117.461C-42.105,117.461 -43.189,115.835 -43.189,113.666C-43.189,112.582 -43.189,105.354 -42.828,91.619C-42.647,78.066 -42.467,67.224 -42.467,58.731C-42.467,50.237 -42.647,39.395 -42.828,25.841C-43.189,12.288 -43.189,5.06 -43.189,3.976C-43.189,1.626 -42.105,0 -39.937,0L-0.723,0C1.446,0 3.434,1.626 3.253,3.433L2.53,11.565C2.53,12.649 1.446,14.637 -1.987,14.637L-23.492,14.637C-25.299,14.637 -26.926,15.36 -26.926,17.709L-26.926,47.888C-26.926,49.333 -26.564,50.418 -24.396,50.418L-10.119,50.418C-7.771,50.418 -7.048,51.502 -7.048,53.852L-7.048,61.079C-7.048,64.151 -8.674,64.874 -10.119,64.874L-24.215,64.874C-26.022,64.874 -26.926,65.598 -26.926,67.585L-26.926,98.306C-26.926,101.017 -24.757,102.823 -19.878,102.823L-1.445,102.823C1.808,102.823 2.711,104.27 2.892,106.618L3.253,114.75C3.434,116.558 1.808,117.461 0,117.461" style="fill:white;fill-rule:nonzero;"/>
    </g>
    <g transform="matrix(4.16667,0,0,4.16667,2432.51,2728.1)">
        <path d="M0,117.461L-10.481,117.461C-12.65,117.461 -13.734,115.835 -13.734,113.666C-13.734,112.582 -13.734,105.354 -13.373,91.619C-13.192,78.066 -13.012,67.224 -13.012,58.731C-13.012,50.237 -13.192,39.395 -13.373,25.841C-13.734,12.288 -13.734,5.06 -13.734,3.976C-13.734,1.626 -12.65,0 -10.481,0L0,0C2.168,0 3.433,1.626 3.433,3.976C3.433,5.06 3.252,12.288 2.891,25.841C2.71,39.395 2.529,50.237 2.529,58.731C2.529,67.224 2.71,78.066 2.891,91.619C3.252,105.354 3.433,112.582 3.433,113.666C3.433,115.835 2.168,117.461 0,117.461" style="fill:white;fill-rule:nonzero;"/>
    </g>
    <g transform="matrix(4.16667,0,0,4.16667,2705.07,2728.1)">
        <path d="M0,117.461L-8.493,117.461C-10.301,117.461 -12.288,116.016 -13.011,113.666C-15.18,104.27 -20.42,85.295 -23.492,74.091C-25.661,66.501 -31.263,48.068 -31.985,45.177L-31.985,66.32C-31.985,68.308 -31.985,78.97 -31.624,91.077C-31.263,103.185 -31.082,112.401 -31.082,113.666C-31.082,115.654 -32.166,117.461 -34.154,117.461L-43.731,117.461C-45.9,117.461 -46.984,115.835 -46.984,113.666C-46.984,112.582 -46.984,105.354 -46.623,91.619C-46.442,78.066 -46.262,67.224 -46.262,58.731C-46.262,50.237 -46.442,39.395 -46.623,25.841C-46.984,12.288 -46.984,5.06 -46.984,3.976C-46.984,1.626 -45.9,0 -43.731,0L-35.058,0C-33.069,0 -31.443,1.084 -30.721,3.976L-11.746,72.283L-11.746,50.96C-11.746,50.057 -11.746,36.503 -12.107,25.118C-12.469,13.914 -12.649,5.06 -12.649,3.976C-12.649,1.626 -11.385,0 -9.577,0L0,0C2.169,0 3.434,1.626 3.434,3.976C3.434,5.06 3.253,12.288 2.892,25.841C2.711,39.395 2.53,50.237 2.53,58.731C2.53,67.224 2.711,78.066 2.892,91.619C3.253,105.354 3.434,112.582 3.434,113.666C3.434,115.835 2.169,117.461 0,117.461" style="fill:white;fill-rule:nonzero;"/>
    </g>
    <g transform="matrix(4.16667,0,0,4.16667,2842.86,2721.32)">
        <path d="M0,119.088L-10.843,119.088C-12.65,119.088 -14.276,117.643 -14.276,115.654L-14.276,103.186C-14.276,101.197 -12.65,99.752 -10.843,99.752L0,99.752C1.987,99.752 3.434,101.197 3.434,103.186L3.434,115.654C3.434,117.643 1.987,119.088 0,119.088M2.892,24.576C1.084,58.911 0.903,77.886 0.903,81.5C0.903,83.669 -0.181,85.295 -2.35,85.295L-8.313,85.295C-10.662,85.295 -11.746,83.669 -11.746,81.5C-11.746,77.886 -11.927,58.911 -13.554,24.576C-14.096,13.011 -14.638,5.964 -14.638,3.795C-14.638,1.265 -13.192,0 -11.204,0L0.542,0C2.349,0 3.976,1.265 3.976,3.795C3.976,5.964 3.434,13.011 2.892,24.576" style="fill:white;fill-rule:nonzero;"/>
    </g>
    <g transform="matrix(4.16667,0,0,4.16667,1653.2,1020.67)">
        <path d="M0,-74.251C-0.55,-80.301 -3.85,-83.234 -8.066,-83.234C-12.466,-83.234 -15.767,-80.301 -16.316,-74.251C-16.867,-68.201 -17.05,-54.817 -17.05,-37.034C-17.05,-19.251 -16.867,-5.867 -16.316,-0.001C-15.767,6.233 -12.466,8.983 -8.066,8.983C-3.85,8.983 -0.55,6.233 0,-0.001C0.55,-5.867 0.733,-19.251 0.733,-37.034C0.733,-54.817 0.55,-68.201 0,-74.251M11.367,14.85C7.333,20.9 1.467,23.833 -6.233,23.833L-10.083,23.833C-17.783,23.833 -23.467,20.9 -27.5,14.85C-31.35,8.983 -33.183,2.933 -33.183,-2.934C-33.183,-5.501 -33.183,-14.117 -33,-21.084C-32.816,-28.05 -32.633,-33.367 -32.633,-37.034C-32.633,-40.701 -32.816,-46.017 -33,-52.984C-33.183,-59.951 -33.183,-68.751 -33.183,-71.317C-33.183,-77.001 -31.35,-83.234 -27.5,-88.918C-23.467,-94.967 -17.783,-98.084 -10.083,-98.084L-6.233,-98.084C1.467,-98.084 7.333,-94.967 11.367,-88.918C15.034,-83.234 16.867,-77.001 16.867,-71.317C16.867,-68.751 16.867,-59.951 16.684,-52.984C16.5,-46.017 16.317,-40.701 16.317,-37.034C16.317,-33.367 16.5,-28.05 16.684,-21.084C16.867,-14.117 16.867,-5.501 16.867,-2.934C16.867,2.933 15.034,8.983 11.367,14.85" style="fill:white;fill-rule:nonzero;"/>
    </g>
    <g transform="matrix(4.16667,0,0,4.16667,1984.73,1023.72)">
        <path d="M0,-75.167C-4.95,-52.983 -10.267,-26.033 -14.484,-1.467C-16.5,9.534 -17.417,15.767 -17.784,17.233C-18.15,20.717 -19.801,22.184 -22.917,22.184L-29.151,22.184C-31.901,22.184 -33.917,21.083 -34.467,17.233C-34.651,16.133 -35.567,9.9 -37.584,-1.467C-41.434,-24.567 -47.118,-52.434 -52.067,-75.534C-54.634,-87.084 -55.917,-93.134 -55.917,-93.867C-55.917,-95.517 -55.184,-97.351 -52.618,-97.351L-42.534,-97.351C-40.884,-97.351 -39.234,-96.984 -38.867,-94.967C-33,-62.517 -28.601,-34.467 -25.667,-12.834C-22.551,-34.467 -18.517,-62.334 -12.65,-94.784C-12.467,-96.434 -11.367,-97.351 -8.984,-97.351L-0.184,-97.351C1.65,-97.351 3.667,-96.434 3.667,-93.867C3.667,-92.767 2.384,-86.534 0,-75.167" style="fill:white;fill-rule:nonzero;"/>
    </g>
    <g transform="matrix(4.16667,0,0,4.16667,2214.65,618.094)">
        <path d="M0,119.167L-40.517,119.167C-42.717,119.167 -43.816,117.517 -43.816,115.317C-43.816,114.217 -43.816,106.884 -43.45,92.95C-43.267,79.2 -43.083,68.2 -43.083,59.584C-43.083,50.967 -43.267,39.967 -43.45,26.216C-43.816,12.466 -43.816,5.133 -43.816,4.033C-43.816,1.65 -42.717,0 -40.517,0L-0.733,0C1.467,0 3.483,1.65 3.301,3.483L2.567,11.733C2.567,12.833 1.467,14.85 -2.017,14.85L-23.833,14.85C-25.666,14.85 -27.316,15.583 -27.316,17.966L-27.316,48.584C-27.316,50.05 -26.95,51.15 -24.75,51.15L-10.267,51.15C-7.883,51.15 -7.149,52.25 -7.149,54.633L-7.149,61.967C-7.149,65.084 -8.8,65.817 -10.267,65.817L-24.566,65.817C-26.399,65.817 -27.316,66.55 -27.316,68.567L-27.316,99.733C-27.316,102.483 -25.116,104.317 -20.166,104.317L-1.467,104.317C1.834,104.317 2.75,105.784 2.934,108.167L3.301,116.417C3.483,118.25 1.834,119.167 0,119.167" style="fill:white;fill-rule:nonzero;"/>
    </g>
    <g transform="matrix(4.16667,0,0,4.16667,2379.64,1053.51)">
        <path d="M0,-89.833C-6.601,-89.833 -7.884,-88.916 -7.884,-83.966L-7.884,-57.016C-7.884,-54.083 -7.334,-52.983 -2.2,-52.983C5.133,-52.983 9.35,-56.466 9.35,-71.133C9.35,-84.15 6.783,-89.833 0,-89.833M26.399,14.667L16.683,14.667C14.483,14.667 12.649,13.934 12.1,11.001C11.366,6.784 10.633,0.917 9.533,-8.25C7.699,-21.633 5.683,-28.783 4.216,-32.083C2.383,-36.666 -0.184,-38.316 -3.851,-38.316L-7.884,-38.316C-7.7,-29.333 -7.518,-13.199 -6.967,-4.033C-6.601,4.951 -6.417,9.901 -6.417,10.817C-6.417,12.834 -7.518,14.667 -9.717,14.667L-21.084,14.667C-23.284,14.667 -24.384,13.018 -24.384,10.817C-24.384,9.717 -24.384,2.384 -24.018,-11.549C-23.834,-25.299 -23.65,-36.299 -23.65,-44.916C-23.65,-53.533 -23.834,-64.533 -24.018,-78.283C-24.384,-92.033 -24.384,-99.367 -24.384,-100.466C-24.384,-102.85 -23.284,-104.5 -21.084,-104.5L1.833,-104.5C8.616,-104.5 14.666,-102.117 19.066,-96.25C23.283,-90.933 25.116,-83.783 25.116,-73.7C25.116,-56.466 18.883,-48.766 13.017,-45.1C19.8,-39.416 21.083,-33.183 28.783,9.167C28.967,10.084 29.333,11.734 29.333,12.467C29.333,13.567 28.967,14.667 26.399,14.667" style="fill:white;fill-rule:nonzero;"/>
    </g>
    <g transform="matrix(4.16667,0,0,4.16667,1506.63,2203.39)">
        <path d="M0,-138.897C-2.787,-142.613 -7.897,-144.471 -15.794,-144.471C-23.691,-144.471 -28.801,-142.613 -31.589,-138.897C-34.376,-135.181 -36.234,-131.464 -36.234,-126.819C-36.234,-122.173 -34.84,-118.457 -31.589,-114.741C-29.266,-111.489 -23.691,-110.096 -15.794,-109.631C-8.362,-109.631 -2.787,-111.024 0,-114.741C2.787,-118.457 4.181,-122.173 4.181,-126.819C4.181,-131 2.787,-135.181 0,-138.897M0,-24.621C-2.787,-28.801 -8.362,-31.124 -15.794,-31.124C-23.691,-31.124 -29.266,-29.266 -32.053,-24.621C-35.305,-20.44 -37.163,-15.794 -37.163,-11.614C-37.163,-6.968 -35.305,-3.251 -32.053,0.464C-29.266,3.716 -23.691,5.575 -15.794,5.575C-8.362,5.575 -2.787,4.181 0,0.464C3.251,-2.787 5.11,-6.503 5.11,-11.614C5.11,-15.794 3.716,-19.975 0,-24.621M64.106,59.461C45.06,78.042 24.621,84.546 -4.181,84.546L-27.408,84.546C-56.209,84.546 -77.113,78.042 -96.16,59.461C-111.489,44.131 -116.599,23.692 -116.599,6.503C-116.599,-9.755 -112.418,-25.085 -103.127,-40.415C-93.837,-54.815 -81.759,-64.571 -66.429,-69.216C-78.972,-75.72 -89.656,-85.475 -98.482,-98.018C-107.309,-110.096 -111.489,-125.425 -111.489,-143.543C-111.489,-163.053 -104.986,-181.17 -90.585,-197.893C-77.113,-215.081 -55.745,-223.443 -27.408,-223.443L-4.646,-223.443C24.156,-223.443 45.06,-215.081 58.997,-197.893C72.933,-181.17 79.9,-163.053 79.9,-143.543C79.9,-125.425 75.72,-110.096 66.894,-98.018C58.067,-85.475 47.383,-76.184 34.84,-69.216C49.706,-64.571 61.784,-55.28 71.074,-40.415C80.365,-25.549 85.01,-9.755 85.01,6.503C85.01,23.692 79.9,44.131 64.106,59.461" style="fill:white;fill-rule:nonzero;"/>
    </g>
    <g transform="matrix(4.16667,0,0,4.16667,2846.02,1282.05)">
        <path d="M0,305.667L-18.117,305.667C-22.298,305.667 -25.085,304.737 -27.407,300.557C-28.802,298.234 -31.124,294.054 -33.446,288.479C-36.698,292.195 -42.737,295.447 -51.1,299.628C-58.996,303.809 -68.287,305.667 -78.972,305.667L-117.528,305.667C-144.007,305.667 -163.518,296.841 -176.989,280.117C-189.996,263.858 -196.035,246.67 -196.5,230.411C-196.5,222.979 -196.035,210.9 -195.106,193.248C-194.177,175.596 -193.713,162.125 -193.713,152.834C-193.713,143.543 -194.177,130.071 -195.106,112.419C-196.035,94.766 -196.5,82.224 -196.5,75.256C-196.035,58.997 -189.996,41.809 -176.989,25.085C-163.518,8.362 -144.007,0 -117.528,0L-78.507,0C-62.248,0 -47.848,2.788 -35.305,8.827C-23.227,14.401 -14.4,19.046 -8.826,22.763C-5.574,24.621 -3.716,27.873 -3.252,31.589C-3.252,32.982 -3.716,34.376 -5.11,36.699C-14.865,51.1 -25.55,72.468 -32.982,92.443C-33.446,94.302 -34.376,95.695 -37.628,95.695C-39.485,95.695 -42.737,94.766 -45.061,92.908C-53.887,88.263 -73.397,78.972 -92.907,78.972C-104.057,78.972 -110.096,83.617 -111.489,93.837C-112.418,103.592 -112.883,123.103 -113.348,152.834C-113.348,182.1 -112.883,202.074 -111.489,211.83C-110.561,221.585 -104.057,226.23 -92.907,226.695C-80.83,226.695 -75.72,221.121 -75.72,212.759L-75.72,212.295C-75.72,207.185 -78.042,201.146 -87.798,197.894C-92.907,196.5 -95.23,194.642 -95.695,189.067L-95.695,153.298C-95.695,148.188 -91.979,144.007 -85.939,144.007L-4.646,144.007C0.929,144.007 6.039,147.259 6.504,152.369C6.504,154.692 6.039,163.982 4.646,180.706C3.717,196.965 3.252,210.437 3.252,220.656C3.252,231.341 3.717,246.206 4.646,265.717C5.574,285.227 6.504,295.911 6.504,298.234C6.504,302.415 5.11,305.667 0,305.667" style="fill:white;fill-rule:nonzero;"/>
    </g>
</svg>
