<?xml version="1.0" encoding="UTF-8" standalone="no"?>
<!DOCTYPE svg PUBLIC "-//W3C//DTD SVG 1.1//EN" "http://www.w3.org/Graphics/SVG/1.1/DTD/svg11.dtd">
<svg width="100%" height="100%" viewBox="0 0 2081 1853" version="1.1" xmlns="http://www.w3.org/2000/svg" xmlns:xlink="http://www.w3.org/1999/xlink" xml:space="preserve" xmlns:serif="http://www.serif.com/" style="fill-rule:evenodd;clip-rule:evenodd;stroke-linejoin:round;stroke-miterlimit:2;">
    <g transform="matrix(-7.01177,-4.50327,-4.50327,7.01177,638.623,1559.86)">
        <path d="M-27.448,-113.518C-44.152,-91.209 -51.436,-63.254 -45.796,-33.152C-42.812,-17.219 -36.443,-2.072 -27.448,11.822C-42.65,-1.69 -53.018,-20.724 -55.185,-42.56C-57.944,-70.334 -46.809,-96.273 -27.448,-113.518" style="fill:rgb(229,219,217);fill-rule:nonzero;"/>
    </g>
    <g transform="matrix(-7.9649,-2.45046,-2.45046,7.9649,386.918,1666.47)">
        <path d="M-26.058,-173.314C-74.999,-173.313 -114.674,-133.639 -114.674,-84.697C-114.673,-35.756 -74.998,3.919 -26.058,3.918C22.886,3.918 62.558,-35.757 62.558,-84.698C62.557,-133.639 22.884,-173.314 -26.058,-173.314" style="fill:rgb(240,238,232);fill-rule:nonzero;"/>
    </g>
    <g transform="matrix(-7.9649,-2.45046,-2.45046,7.9649,430.84,1719.16)">
        <path d="M-26.058,-173.313C-74.999,-173.312 -114.674,-133.638 -114.674,-84.696C-114.673,-35.756 -74.998,3.919 -26.058,3.919C22.886,3.919 62.557,-35.756 62.558,-84.697C62.557,-133.638 22.884,-173.313 -26.058,-173.313" style="fill:rgb(254,213,0);fill-rule:nonzero;"/>
    </g>
    <g transform="matrix(-7.02842,-4.47726,-4.47726,7.02842,683.493,1517.59)">
        <path d="M-25.935,-108.499C-41.884,-87.196 -48.839,-60.503 -43.454,-31.762C-40.605,-16.549 -34.523,-2.086 -25.935,11.182C-40.451,-1.72 -50.349,-19.895 -52.42,-40.745C-55.053,-67.265 -44.42,-92.032 -25.935,-108.499" style="fill:rgb(29,30,27);fill-rule:nonzero;"/>
    </g>
    <g transform="matrix(8.33333,0,0,8.33333,1390.45,514.488)">
        <path d="M0,101.79C-0.459,102.356 -0.844,102.985 -1.157,103.659C-3.873,109.596 -7.279,115.19 -11.282,120.282C-29.137,142.999 -58.058,154.734 -86.546,150.933C-87.163,150.81 -87.787,150.691 -88.409,150.519C-99.781,147.372 -108.644,138.056 -111.539,126.206C-112.33,122.983 -114.797,120.564 -117.839,119.723C-118.892,119.431 -120.021,119.329 -121.165,119.453C-125.615,119.928 -129.021,123.623 -129.142,128.095C-129.17,129.395 -129.163,130.7 -129.114,132.005C-144.878,118.577 -154.86,99.995 -157.34,79.316C-159.943,57.542 -153.919,36.056 -140.365,18.813C-137.024,14.564 -133.228,10.609 -129.088,7.069C-128.33,6.422 -127.701,5.655 -127.214,4.807C-126.253,4.518 -125.331,4.061 -124.496,3.442C-111.556,-6.094 -96.179,-11.578 -80.021,-12.413C-79.923,-12.416 -79.51,-12.471 -79.41,-12.48C-70.16,-12.911 -54.85,-14.668 -39.955,-20.961C-38.759,-12.688 -34.627,-3.408 -25.015,5.03C-24.803,5.245 -24.575,5.447 -24.333,5.641C3.797,28.298 13.802,66.083 0.554,99.657C0.275,100.358 0.095,101.074 0,101.79M80.888,110.7L67.832,107.644L78.253,102.437C79.449,101.841 79.929,100.391 79.337,99.198C78.739,98 77.283,97.519 76.097,98.114L65.802,103.257L70.39,93.192C70.946,91.979 70.41,90.549 69.197,89.995C67.974,89.437 66.552,89.977 65.999,91.19L59.036,106.455L32.902,113.969C29.796,112.542 18.39,107.308 8.857,102.931C23.115,66.798 12.98,24.228 -18.735,-1.314L-18.729,-1.33C-38.729,-18.516 -29.108,-37.239 -29.108,-37.239C-45.961,-24.776 -68.451,-21.932 -79.835,-21.396C-80.064,-21.384 -80.267,-21.348 -80.487,-21.328C-98.035,-20.42 -115.245,-14.466 -129.792,-3.744L-127.953,-25.404L-118.667,-43.475L-104.7,-48.623C-103.45,-49.088 -102.808,-50.474 -103.269,-51.727C-103.736,-52.979 -105.117,-53.621 -106.373,-53.159L-115.034,-49.966L-110.404,-58.131C-109.745,-59.292 -110.151,-60.766 -111.314,-61.422C-112.477,-62.082 -113.951,-61.677 -114.605,-60.514L-119.207,-52.397L-120.495,-59.455C-120.736,-60.763 -121.983,-61.629 -123.305,-61.398C-124.616,-61.157 -125.486,-59.9 -125.246,-58.588L-122.908,-45.791L-132.471,-27.189C-132.612,-26.907 -132.699,-26.602 -132.727,-26.287L-134.937,-0.231C-134.951,-0.053 -134.913,0.113 -134.89,0.282C-139.393,4.129 -143.588,8.468 -147.389,13.301C-178.455,52.823 -171.599,110.047 -132.078,141.112C-126.815,145.249 -121.233,148.691 -115.447,151.494C-118.712,144.387 -120.427,136.482 -120.212,128.332C-116.667,142.837 -105.874,154.952 -90.791,159.127C-89.839,159.391 -88.89,159.565 -87.938,159.758C-57.074,163.872 -24.899,152.054 -4.267,125.801C0.298,119.998 4.018,113.805 6.961,107.374C18.088,112.484 31.702,118.731 31.702,118.731C31.819,118.786 31.94,118.829 32.063,118.863C32.489,118.98 32.944,118.98 33.374,118.856L60.834,110.964L79.788,115.403C81.084,115.709 82.385,114.9 82.689,113.603C82.994,112.305 82.211,110.919 80.888,110.7" style="fill:rgb(29,30,27);fill-rule:nonzero;"/>
    </g>
    <g transform="matrix(4.42572,-7.06098,-7.06098,-4.42572,740.004,711.996)">
        <path d="M-4.76,-2.633C-11.919,-2.633 -17.723,-0.117 -17.723,2.986C-17.723,6.086 -11.919,8.602 -4.76,8.602C2.401,8.602 8.204,6.086 8.204,2.983C8.204,-0.12 2.4,-2.634 -4.76,-2.633" style="fill:rgb(29,30,27);fill-rule:nonzero;"/>
    </g>
    <g transform="matrix(4.42612,-7.06073,-7.06073,-4.42612,619.742,663.556)">
        <path d="M-4.024,-2.227C-10.076,-2.226 -14.983,-0.101 -14.983,2.523C-14.983,5.145 -10.076,7.271 -4.024,7.272C2.028,7.271 6.935,5.145 6.935,2.522C6.935,-0.1 2.028,-2.227 -4.024,-2.227" style="fill:rgb(29,30,27);fill-rule:nonzero;"/>
    </g>
    <g transform="matrix(8.33333,0,0,8.33333,798.798,475.871)">
        <path d="M0,86.593C0.012,86.536 0.023,86.479 0.035,86.422C-1.04,85.282 -2.172,84.231 -3.182,82.994C-5.431,80.258 -7.12,76.968 -8.461,73.379C-10.032,69.206 -10.514,64.824 -10.447,60.355C-10.378,55.636 -9.979,50.989 -8.956,46.48C-8.497,44.456 -7.684,42.718 -6.452,41.356C-5.066,39.819 -3.331,39.733 -1.633,39.724C0.333,39.712 2.306,39.801 4.267,40.011C6.288,40.229 8.309,40.562 10.31,41.009C12.076,41.404 13.814,42.029 15.564,42.554C14.081,41.934 12.674,40.994 11.192,40.378C9.204,39.553 7.176,38.854 5.131,38.335C3.373,37.89 1.573,37.67 -0.215,37.524C-2.889,37.305 -5.561,37.036 -8.246,37.38C-10.609,37.677 -12.032,39.442 -13.041,41.95C-13.888,44.051 -14.229,46.38 -14.476,48.705C-14.751,51.314 -14.916,53.952 -15.048,56.59C-15.335,62.353 -14.484,67.853 -12.058,73.014C-10.744,75.837 -9.219,78.413 -7.311,80.599C-5.624,82.545 -3.748,84.074 -1.797,85.436C-1.207,85.848 -0.599,86.208 0,86.593M-54.255,7.461C-54.249,7.447 -54.244,7.434 -54.239,7.42C-54.391,7.338 -54.537,7.238 -54.694,7.177C-57.233,6.193 -59.764,5.177 -62.321,4.269C-64.173,3.616 -66.077,3.291 -68.012,3.198C-71.07,3.051 -73.796,4.035 -75.853,6.491C-77.054,7.92 -77.872,9.773 -78.78,11.483C-80.199,14.147 -81.18,17.022 -81.835,20.064C-82.399,22.68 -82.685,25.318 -82.429,28.065C-82.197,30.562 -81.595,32.937 -80.314,35.13C-79.273,36.925 -77.979,38.447 -76.511,39.773C-74.95,41.191 -73.396,42.636 -71.761,43.931C-70.406,45.01 -68.943,45.892 -67.516,46.832C-66.977,47.188 -66.397,47.444 -65.836,47.746L-65.771,47.53C-68.286,45.699 -70.62,43.584 -72.827,41.258C-75.248,38.729 -76.886,35.748 -77.483,32.135C-77.899,29.634 -77.937,27.147 -77.491,24.722C-77.144,22.824 -76.756,20.927 -76.243,19.087C-75.878,17.774 -75.345,16.511 -74.763,15.305C-73.83,13.368 -72.854,11.445 -71.781,9.594C-70.465,7.316 -68.423,6.147 -66.148,5.547C-64.297,5.053 -62.383,5.173 -60.504,5.597C-59.121,5.91 -57.756,6.34 -56.388,6.744C-55.671,6.956 -54.965,7.219 -54.255,7.461M-83.016,-10.805C-81.149,-10.155 -79.329,-9.489 -77.494,-8.877C-75.033,-8.051 -72.562,-7.267 -70.098,-6.451C-69.277,-6.178 -68.459,-5.896 -67.644,-5.602C-66.533,-5.2 -65.429,-4.776 -64.318,-4.373C-62.604,-3.747 -60.87,-3.185 -59.174,-2.494C-55.846,-1.126 -52.612,0.514 -49.451,2.374C-46.086,4.379 -42.825,6.607 -39.821,9.326C-37.652,11.309 -35.698,13.647 -33.562,15.705C-31.767,17.448 -29.896,19.103 -27.963,20.613C-25.528,22.53 -22.949,24.152 -20.237,25.376C-17.667,26.545 -15.04,27.46 -12.354,28.101C-9.148,28.869 -5.919,29.027 -2.673,29.053C0.523,29.075 3.671,29.779 6.771,30.676C9.552,31.486 12.296,32.55 15.007,33.701C17.548,34.788 20.059,36.028 22.519,37.408C24.957,38.784 27.316,40.413 29.704,41.954C31.053,42.829 32.396,43.719 33.735,44.621C36.103,46.223 38.454,47.875 40.828,49.462C41.874,50.164 42.969,50.725 44.121,51.399C43.851,52.297 43.655,52.945 43.46,53.592C42.471,56.873 41.488,60.15 40.485,63.406C40.409,63.654 40.185,63.97 40.023,63.978C37.466,64.093 35.995,66.182 34.986,69.266C34.478,70.82 33.816,72.271 33.194,73.739C32.354,75.718 31.511,77.689 30.625,79.614C29.938,81.105 29.23,82.581 28.449,83.963C26.916,86.667 25.388,89.37 23.745,91.903C22.731,93.46 21.607,94.974 20.116,95.614C18.829,96.162 17.505,96.614 16.166,96.875C13.448,97.398 10.7,97.147 7.96,96.427C5.724,95.84 3.509,95.093 1.391,93.776C-0.176,92.805 -1.771,91.923 -3.308,90.866C-5.713,89.22 -8.018,87.31 -10.167,85.07C-11.66,83.523 -13.181,82.01 -14.585,80.331C-16.233,78.371 -17.381,75.898 -18.396,73.346C-20.091,69.117 -21.046,64.667 -21.568,60.083C-22.162,54.929 -22.127,49.827 -21.669,44.743C-21.538,43.299 -21.255,41.827 -21.382,40.404C-21.591,38.073 -22.637,36.216 -24.338,35.214C-25.515,34.524 -26.766,34.771 -27.982,35.281C-29.423,35.882 -30.251,37.26 -30.998,38.744C-32.349,41.427 -34.063,43.699 -35.809,45.921C-37.487,48.048 -39.348,49.883 -41.337,51.507C-44.332,53.931 -47.575,55.627 -51.175,56.313C-53.362,56.72 -55.566,56.577 -57.779,55.847C-60.188,55.054 -62.621,54.38 -64.993,53.415C-67.125,52.552 -69.216,51.448 -71.278,50.312C-73.674,49.001 -75.907,47.307 -78.019,45.387C-81.127,42.59 -83.761,39.335 -85.882,35.543C-87.28,33.067 -87.677,30.433 -87.659,27.736C-87.644,25.424 -87.563,23.109 -87.351,20.827C-87.125,18.398 -86.784,15.981 -86.36,13.594C-85.847,10.7 -85.172,7.844 -84.605,4.954C-84.201,2.899 -84.633,1.028 -85.992,-0.537C-86.259,-0.843 -86.35,-1.051 -86.215,-1.453C-85.47,-3.683 -84.763,-5.936 -84.016,-8.178C-83.73,-9.033 -83.377,-9.861 -83.016,-10.805" style="fill:rgb(29,30,27);fill-rule:nonzero;"/>
    </g>
    <g transform="matrix(8.33333,0,0,8.33333,346.674,837.01)">
        <path d="M0,-35.876C-0.71,-36.117 -1.416,-36.381 -2.133,-36.593C-3.501,-36.997 -4.866,-37.426 -6.249,-37.74C-8.128,-38.164 -10.042,-38.283 -11.894,-37.79C-14.168,-37.19 -16.21,-36.021 -17.526,-33.743C-18.599,-31.892 -19.575,-29.968 -20.508,-28.032C-21.09,-26.826 -21.623,-25.563 -21.988,-24.25C-22.501,-22.409 -22.889,-20.512 -23.236,-18.614C-23.682,-16.19 -23.645,-13.703 -23.229,-11.202C-22.631,-7.589 -20.993,-4.607 -18.572,-2.079C-16.365,0.248 -14.031,2.363 -11.517,4.193L-11.581,4.41C-12.143,4.107 -12.722,3.851 -13.261,3.496C-14.688,2.556 -16.151,1.673 -17.506,0.594C-19.141,-0.7 -20.695,-2.146 -22.256,-3.564C-23.725,-4.89 -25.019,-6.412 -26.06,-8.207C-27.34,-10.399 -27.942,-12.774 -28.174,-15.272C-28.43,-18.019 -28.145,-20.657 -27.58,-23.273C-26.925,-26.315 -25.944,-29.189 -24.525,-31.854C-23.617,-33.563 -22.799,-35.417 -21.598,-36.845C-19.541,-39.302 -16.815,-40.286 -13.757,-40.138C-11.822,-40.046 -9.918,-39.72 -8.066,-39.067C-5.509,-38.16 -2.979,-37.144 -0.439,-36.16C-0.282,-36.099 -0.136,-35.999 0.016,-35.917C0.011,-35.903 0.006,-35.89 0,-35.876" style="fill:white;fill-rule:nonzero;"/>
    </g>
    <g transform="matrix(8.33333,0,0,8.33333,798.798,784.504)">
        <path d="M0,49.557C-0.599,49.172 -1.207,48.812 -1.797,48.4C-3.748,47.038 -5.624,45.509 -7.311,43.563C-9.219,41.377 -10.744,38.801 -12.058,35.978C-14.484,30.817 -15.335,25.317 -15.048,19.554C-14.916,16.916 -14.751,14.278 -14.476,11.669C-14.229,9.344 -13.888,7.015 -13.041,4.914C-12.032,2.406 -10.609,0.641 -8.246,0.344C-5.561,0 -2.889,0.269 -0.215,0.488C1.573,0.634 3.373,0.854 5.131,1.299C7.176,1.818 9.204,2.517 11.192,3.342C12.674,3.958 14.081,4.898 15.564,5.518C13.814,4.993 12.076,4.368 10.31,3.973C8.309,3.526 6.288,3.193 4.267,2.975C2.306,2.765 0.333,2.676 -1.633,2.688C-3.331,2.697 -5.066,2.783 -6.452,4.32C-7.684,5.682 -8.497,7.42 -8.956,9.444C-9.979,13.953 -10.378,18.6 -10.447,23.319C-10.514,27.788 -10.032,32.17 -8.461,36.343C-7.12,39.932 -5.431,43.222 -3.182,45.958C-2.172,47.195 -1.04,48.246 0.035,49.386C0.023,49.443 0.012,49.5 0,49.557" style="fill:white;fill-rule:nonzero;"/>
    </g>
    <g transform="matrix(8.33333,0,0,8.33333,1146.75,1208.28)">
        <path d="M0,-37.234L46.529,-16.483C46.529,-16.483 50.663,-13.42 50.901,-9.105C50.984,-7.609 51.837,-4.255 52.041,-3.327C52.352,-1.912 51.474,-0.521 50.051,-0.248C48.761,0 47.521,-0.809 47.213,-2.086C46.578,-4.711 45.129,-8.959 42.071,-11.423C38.646,-14.184 -6.31,-25.14 -6.31,-25.14L0,-37.234Z" style="fill:rgb(29,30,27);fill-rule:nonzero;"/>
    </g>
</svg>
