<?xml version="1.0" encoding="UTF-8" standalone="no"?>
<!DOCTYPE svg PUBLIC "-//W3C//DTD SVG 1.1//EN" "http://www.w3.org/Graphics/SVG/1.1/DTD/svg11.dtd">
<svg width="100%" height="100%" viewBox="0 0 1426 1202" version="1.1" xmlns="http://www.w3.org/2000/svg" xmlns:xlink="http://www.w3.org/1999/xlink" xml:space="preserve" xmlns:serif="http://www.serif.com/" style="fill-rule:evenodd;clip-rule:evenodd;stroke-miterlimit:10;">
    <g transform="matrix(8.33333,0,0,8.33333,144.328,390.804)">
        <path d="M0,32.315C-0.038,31.852 -0.137,31.393 -0.288,30.945C-1.643,27.013 -2.529,22.937 -2.92,18.831C-4.663,0.512 3.521,-17.603 18.328,-28.363C18.667,-28.577 19.007,-28.797 19.369,-28.991C25.996,-32.534 34.175,-32.13 40.716,-27.937C42.496,-26.798 44.696,-26.766 46.469,-27.714C47.082,-28.042 47.647,-28.491 48.121,-29.051C49.965,-31.225 49.912,-34.424 48.004,-36.54C47.445,-37.152 46.869,-37.751 46.273,-38.331C59.441,-39.062 72.207,-34.877 82.434,-26.43C93.198,-17.531 99.857,-4.976 101.18,8.929C101.506,12.357 101.492,15.848 101.138,19.299C101.072,19.93 101.119,20.56 101.267,21.166C100.95,21.72 100.726,22.336 100.612,22.989C98.833,33.07 94.15,42.353 87.065,49.836C87.021,49.88 86.855,50.086 86.813,50.134C82.736,54.396 76.447,61.931 72.343,71.377C68.156,68.086 62.175,65.622 54.036,65.952C53.844,65.946 53.65,65.953 53.453,65.969C30.528,67.876 9.317,54.844 0.681,33.542C0.501,33.096 0.27,32.686 0,32.315" style="fill:white;fill-rule:nonzero;"/>
    </g>
    <g transform="matrix(8.33333,0,0,8.33333,172.421,388.289)">
        <path d="M0,32.315C-0.038,31.852 -0.137,31.393 -0.288,30.945C-1.643,27.013 -2.529,22.937 -2.92,18.831C-4.663,0.512 3.521,-17.603 18.328,-28.363C18.667,-28.577 19.007,-28.797 19.369,-28.991C25.996,-32.534 34.175,-32.13 40.716,-27.937C42.496,-26.798 44.696,-26.766 46.469,-27.714C47.082,-28.042 47.648,-28.491 48.121,-29.051C49.965,-31.225 49.912,-34.424 48.004,-36.54C47.445,-37.152 46.869,-37.751 46.274,-38.331C59.441,-39.062 72.208,-34.877 82.434,-26.43C93.198,-17.531 99.857,-4.976 101.181,8.929C101.506,12.357 101.492,15.848 101.138,19.299C101.072,19.93 101.119,20.56 101.267,21.166C100.951,21.72 100.726,22.336 100.613,22.989C98.834,33.07 94.15,42.353 87.065,49.836C87.021,49.88 86.855,50.086 86.813,50.134C82.737,54.396 76.448,61.932 72.343,71.377C68.157,68.086 62.176,65.622 54.036,65.952C53.844,65.946 53.65,65.953 53.454,65.969C30.528,67.876 9.318,54.844 0.681,33.542C0.502,33.096 0.271,32.687 0,32.315" style="fill:rgb(254,213,0);fill-rule:nonzero;"/>
    </g>
    <g transform="matrix(8.17729,-1.6051,-1.6051,-8.17729,434.317,841.632)">
        <path d="M-7.419,-1.809C-17.537,11.706 -21.949,28.639 -18.533,46.873C-16.725,56.524 -12.868,65.7 -7.419,74.116C-16.628,65.931 -22.907,54.401 -24.221,41.173C-25.891,24.35 -19.147,8.638 -7.419,-1.809Z" style="fill:rgb(29,30,27);fill-rule:nonzero;stroke:rgb(29,30,27);stroke-width:0.56px;"/>
    </g>
    <g transform="matrix(8.33333,0,0,8.33333,144.328,428.029)">
        <path d="M0,27.848C-0.038,27.385 -0.137,26.926 -0.288,26.478C-1.643,22.546 -2.529,18.47 -2.92,14.364C-4.663,-3.955 3.521,-22.07 18.328,-32.83C18.667,-33.044 19.007,-33.264 19.369,-33.458C25.996,-37.001 34.175,-36.597 40.716,-32.404C42.496,-31.265 44.696,-31.233 46.469,-32.181C47.082,-32.509 47.647,-32.958 48.121,-33.518C49.965,-35.692 49.912,-38.891 48.004,-41.007C47.445,-41.619 46.869,-42.218 46.273,-42.798C59.441,-43.529 72.207,-39.344 82.434,-30.897C93.198,-21.998 99.857,-9.443 101.18,4.462C101.506,7.89 101.492,11.381 101.138,14.832C101.072,15.463 101.119,16.093 101.267,16.699C100.95,17.253 100.726,17.869 100.612,18.522C98.833,28.603 94.15,37.886 87.065,45.369C87.021,45.413 86.855,45.619 86.813,45.667C82.736,49.929 76.447,57.464 72.343,66.91C68.156,63.619 62.175,61.155 54.036,61.485C53.844,61.479 53.65,61.486 53.453,61.502C30.528,63.409 9.317,50.377 0.681,29.075C0.501,28.629 0.27,28.219 0,27.848ZM-4.586,31.212C4.709,54.138 28.081,69.32 53.927,67.168L53.931,67.179C70.703,66.32 74.49,79.18 74.49,79.18C76.788,66.031 85.911,54.84 90.926,49.593C91.026,49.487 91.104,49.381 91.196,49.276C98.891,41.149 104.213,30.844 106.212,19.509C106.212,19.509 106.655,16.648 106.794,15.413C107.181,11.661 107.21,7.818 106.841,3.919C103.809,-27.952 75.512,-51.332 43.641,-48.3C39.396,-47.896 35.31,-47.032 31.41,-45.783C36.038,-43.94 40.301,-41.047 43.781,-37.194C35.775,-42.327 25.477,-43.173 16.687,-38.473C16.132,-38.177 15.617,-37.84 15.094,-37.511C-0.947,-25.852 -10.595,-6.27 -8.579,14.901C-8.136,19.581 -7.13,24.072 -5.663,28.329" style="fill:rgb(29,30,27);fill-rule:nonzero;stroke:rgb(29,30,27);stroke-width:0.56px;"/>
    </g>
    <g transform="matrix(1.66542,8.16522,8.16522,-1.66542,728.926,619.164)">
        <path d="M3.505,-2.863C-1.055,-2.863 -4.751,-1.26 -4.751,0.715C-4.75,2.692 -1.054,4.293 3.505,4.292C8.066,4.292 11.761,2.69 11.761,0.713C11.761,-1.263 8.065,-2.864 3.505,-2.863" style="fill:rgb(29,30,27);fill-rule:nonzero;"/>
    </g>
    <g transform="matrix(1.66542,8.16522,8.16522,-1.66542,728.926,619.164)">
        <ellipse cx="3.505" cy="0.714" rx="8.256" ry="3.579" style="fill:none;stroke:rgb(29,30,27);stroke-width:0.56px;"/>
    </g>
    <g transform="matrix(1.66423,8.16546,8.16546,-1.66423,805.854,597.237)">
        <path d="M2.963,-2.42C-0.891,-2.421 -4.016,-1.066 -4.017,0.604C-4.016,2.274 -0.892,3.629 2.963,3.629C6.818,3.629 9.942,2.275 9.943,0.604C9.942,-1.065 6.818,-2.42 2.963,-2.42" style="fill:rgb(29,30,27);fill-rule:nonzero;"/>
    </g>
    <g transform="matrix(1.66423,8.16546,8.16546,-1.66423,805.854,597.237)">
        <ellipse cx="2.963" cy="0.604" rx="6.98" ry="3.025" style="fill:none;stroke:rgb(29,30,27);stroke-width:0.56px;"/>
    </g>
    <g transform="matrix(8.33333,0,0,8.33333,146.958,1143.96)">
        <path d="M0,-45.466C-1.232,-44.017 -8.482,-31.692 -8.482,-31.692L-8.253,-8.95L2.426,0" style="fill:none;fill-rule:nonzero;stroke:rgb(29,30,27);stroke-width:3.76px;stroke-linecap:round;stroke-linejoin:round;"/>
    </g>
    <g transform="matrix(8.33333,0,0,8.33333,15.675,1071.68)">
        <path d="M0,13.46L7.501,-0.276L10.247,13.736" style="fill:none;fill-rule:nonzero;stroke:rgb(29,30,27);stroke-width:3.76px;stroke-linecap:round;stroke-linejoin:round;"/>
    </g>
    <g transform="matrix(8.33333,0,0,8.33333,987.648,555.264)">
        <path d="M0,-26.575C1.887,-26.819 16.172,-26.178 16.172,-26.178L35.112,-13.588L36.795,0.244" style="fill:none;fill-rule:nonzero;stroke:rgb(29,30,27);stroke-width:3.76px;stroke-linecap:round;stroke-linejoin:round;"/>
    </g>
    <g transform="matrix(8.33333,0,0,8.33333,1410.29,514.88)">
        <path d="M0,-7.543L-15.604,-8.742L-5.354,1.199" style="fill:none;fill-rule:nonzero;stroke:rgb(29,30,27);stroke-width:3.76px;stroke-linecap:round;stroke-linejoin:round;"/>
    </g>
</svg>
