<?xml version="1.0" encoding="UTF-8" standalone="no"?>
<!DOCTYPE svg PUBLIC "-//W3C//DTD SVG 1.1//EN" "http://www.w3.org/Graphics/SVG/1.1/DTD/svg11.dtd">
<svg width="100%" height="100%" viewBox="0 0 1310 1340" version="1.1" xmlns="http://www.w3.org/2000/svg" xmlns:xlink="http://www.w3.org/1999/xlink" xml:space="preserve" xmlns:serif="http://www.serif.com/" style="fill-rule:evenodd;clip-rule:evenodd;stroke-miterlimit:10;">
    <g transform="matrix(8.33333,0,0,8.33333,554.982,845.195)">
        <path d="M0,-83.836C0.44,-83.984 0.862,-84.191 1.26,-84.447C4.745,-86.714 8.485,-88.563 12.374,-89.937C29.724,-96.069 49.282,-92.522 63.311,-80.764C63.602,-80.487 63.896,-80.211 64.173,-79.906C69.217,-74.336 70.808,-66.303 68.325,-58.94C67.652,-56.938 68.154,-54.795 69.503,-53.305C69.971,-52.79 70.544,-52.35 71.201,-52.026C73.757,-50.765 76.849,-51.591 78.438,-53.955C78.897,-54.646 79.338,-55.35 79.757,-56.068C83.658,-43.47 82.692,-30.071 76.976,-18.102C70.952,-5.501 60.387,4.003 47.217,8.657C43.971,9.804 40.58,10.637 37.146,11.13C36.518,11.22 35.918,11.418 35.366,11.708C34.751,11.536 34.1,11.467 33.439,11.515C23.227,12.233 13.085,9.94 4.108,4.88C4.055,4.849 3.813,4.737 3.758,4.708C-1.365,1.787 -10.2,-2.488 -20.358,-4.182C-18.182,-9.04 -17.24,-15.44 -19.534,-23.257C-19.574,-23.445 -19.628,-23.631 -19.692,-23.818C-27.099,-45.597 -19.599,-69.334 -1.024,-82.878C-0.636,-83.16 -0.295,-83.483 0,-83.836" style="fill:rgb(240,238,232);fill-rule:nonzero;"/>
    </g>
    <g transform="matrix(8.33333,0,0,8.33333,564.234,871.834)">
        <path d="M0,-83.835C0.439,-83.983 0.861,-84.19 1.26,-84.446C4.745,-86.713 8.484,-88.562 12.374,-89.936C29.724,-96.069 49.282,-92.521 63.311,-80.763C63.601,-80.486 63.896,-80.21 64.172,-79.905C69.217,-74.335 70.808,-66.302 68.325,-58.94C67.651,-56.937 68.153,-54.794 69.503,-53.304C69.97,-52.789 70.543,-52.349 71.2,-52.025C73.756,-50.764 76.848,-51.591 78.438,-53.955C78.896,-54.645 79.338,-55.349 79.756,-56.067C83.658,-43.469 82.692,-30.07 76.976,-18.101C70.952,-5.5 60.386,4.004 47.216,8.658C43.97,9.805 40.579,10.638 37.146,11.131C36.517,11.22 35.917,11.419 35.366,11.708C34.751,11.537 34.099,11.467 33.438,11.516C23.227,12.234 13.085,9.941 4.107,4.881C4.055,4.85 3.813,4.738 3.757,4.709C-1.366,1.787 -10.201,-2.487 -20.359,-4.181C-18.182,-9.039 -17.24,-15.44 -19.534,-23.256C-19.575,-23.444 -19.629,-23.63 -19.692,-23.817C-27.1,-45.596 -19.599,-69.333 -1.025,-82.877C-0.637,-83.159 -0.295,-83.482 0,-83.835" style="fill:rgb(254,213,0);fill-rule:nonzero;"/>
    </g>
    <g transform="matrix(3.5396,7.54425,7.54425,-3.5396,431.051,72.2312)">
        <path d="M36.924,-20.213C26.806,-6.699 22.394,10.236 25.811,28.469C27.618,38.119 31.477,47.295 36.924,55.711C27.716,47.526 21.436,35.997 20.122,22.77C18.452,5.946 25.197,-9.766 36.924,-20.213Z" style="fill:rgb(29,31,28);fill-rule:nonzero;stroke:rgb(29,30,27);stroke-width:0.56px;"/>
    </g>
    <g transform="matrix(8.33333,0,0,8.33333,554.982,840.578)">
        <path d="M0,-83.282C0.44,-83.43 0.862,-83.637 1.26,-83.893C4.745,-86.16 8.485,-88.009 12.374,-89.383C29.724,-95.515 49.282,-91.968 63.311,-80.21C63.602,-79.933 63.896,-79.657 64.173,-79.352C69.217,-73.782 70.808,-65.749 68.325,-58.386C67.652,-56.384 68.154,-54.241 69.503,-52.751C69.971,-52.236 70.544,-51.796 71.201,-51.472C73.757,-50.211 76.849,-51.037 78.438,-53.401C78.897,-54.092 79.338,-54.796 79.757,-55.514C83.658,-42.916 82.692,-29.517 76.976,-17.548C70.952,-4.947 60.387,4.557 47.217,9.211C43.971,10.358 40.58,11.191 37.146,11.684C36.518,11.774 35.918,11.972 35.366,12.262C34.751,12.09 34.1,12.021 33.439,12.069C23.227,12.787 13.085,10.494 4.108,5.434C4.055,5.403 3.813,5.291 3.758,5.262C-1.365,2.341 -10.2,-1.934 -20.358,-3.628C-18.182,-8.486 -17.24,-14.886 -19.534,-22.703C-19.574,-22.891 -19.628,-23.077 -19.692,-23.264C-27.099,-45.043 -19.599,-68.78 -1.024,-82.324C-0.636,-82.606 -0.295,-82.929 0,-83.282ZM-4.375,-86.915C-24.364,-72.34 -33.427,-45.985 -25.074,-21.431L-25.084,-21.425C-20.185,-5.361 -31.743,1.43 -31.743,1.43C-18.429,0.473 -5.36,6.61 0.945,10.203C1.073,10.275 1.194,10.325 1.319,10.389C11.068,15.884 22.356,18.549 33.838,17.741C33.838,17.741 36.722,17.478 37.953,17.313C41.687,16.779 45.423,15.875 49.115,14.571C79.302,3.904 95.123,-29.217 84.456,-59.403C83.035,-63.422 81.207,-67.178 79.05,-70.658C78.383,-65.721 76.609,-60.885 73.716,-56.574C76.754,-65.585 75.079,-75.782 68.389,-83.17C67.966,-83.636 67.516,-84.054 67.069,-84.482C51.869,-97.219 30.532,-101.831 10.481,-94.743C6.048,-93.178 1.936,-91.115 -1.84,-88.659" style="fill:rgb(29,31,28);fill-rule:nonzero;stroke:rgb(29,30,27);stroke-width:0.56px;"/>
    </g>
    <g transform="matrix(-7.51808,3.59484,3.59484,7.51808,735.834,740.492)">
        <path d="M1.544,-6.805C-3.016,-6.805 -6.714,-5.202 -6.712,-3.227C-6.713,-1.251 -3.015,0.351 1.544,0.351C6.103,0.35 9.801,-1.253 9.8,-3.228C9.8,-5.204 6.102,-6.806 1.544,-6.805" style="fill:rgb(29,31,28);fill-rule:nonzero;"/>
    </g>
    <g transform="matrix(-7.51808,3.59484,3.59484,7.51808,735.834,740.492)">
        <ellipse cx="1.544" cy="-3.227" rx="8.257" ry="3.578" style="fill:none;stroke:rgb(29,30,27);stroke-width:0.56px;"/>
    </g>
    <g transform="matrix(-7.51851,3.59395,3.59395,7.51851,775.839,804.135)">
        <path d="M1.305,-5.753C-2.55,-5.753 -5.675,-4.399 -5.676,-2.729C-5.675,-1.058 -2.55,0.296 1.305,0.297C5.159,0.297 8.284,-1.058 8.284,-2.728C8.284,-4.398 5.16,-5.752 1.305,-5.753" style="fill:rgb(29,31,28);fill-rule:nonzero;"/>
    </g>
    <g transform="matrix(-7.51851,3.59395,3.59395,7.51851,775.839,804.135)">
        <ellipse cx="1.304" cy="-2.728" rx="6.98" ry="3.025" style="fill:none;stroke:rgb(29,30,27);stroke-width:0.56px;"/>
    </g>
    <g transform="matrix(8.33333,0,0,8.33333,453.769,245.268)">
        <path d="M0,-8.484C-1.704,-9.329 -15.42,-13.375 -15.42,-13.375L-37.428,-7.639L-43.521,4.891" style="fill:none;fill-rule:nonzero;stroke:rgb(29,30,27);stroke-width:3.76px;stroke-linecap:round;stroke-linejoin:round;"/>
    </g>
    <g transform="matrix(8.33333,0,0,8.33333,15.675,232.117)">
        <path d="M0,-10.008L15.144,-6.061L2.216,0" style="fill:none;fill-rule:nonzero;stroke:rgb(29,30,27);stroke-width:3.76px;stroke-linecap:round;stroke-linejoin:round;"/>
    </g>
    <g transform="matrix(8.33333,0,0,8.33333,1075.98,1237.28)">
        <path d="M0,-42.198C0.693,-40.427 3.535,-26.412 3.535,-26.412L-4.087,-4.985L-17.099,0" style="fill:none;fill-rule:nonzero;stroke:rgb(29,30,27);stroke-width:3.76px;stroke-linecap:round;stroke-linejoin:round;"/>
    </g>
    <g transform="matrix(8.33333,0,0,8.33333,1063.74,1195.74)">
        <path d="M0,15.429L-2.618,0L-9.778,12.354" style="fill:none;fill-rule:nonzero;stroke:rgb(29,30,27);stroke-width:3.76px;stroke-linecap:round;stroke-linejoin:round;"/>
    </g>
</svg>
