<?xml version="1.0" encoding="UTF-8" standalone="no"?>
<!DOCTYPE svg PUBLIC "-//W3C//DTD SVG 1.1//EN" "http://www.w3.org/Graphics/SVG/1.1/DTD/svg11.dtd">
<svg width="100%" height="100%" viewBox="0 0 1343 1041" version="1.1" xmlns="http://www.w3.org/2000/svg" xmlns:xlink="http://www.w3.org/1999/xlink" xml:space="preserve" xmlns:serif="http://www.serif.com/" style="fill-rule:evenodd;clip-rule:evenodd;stroke-miterlimit:10;">
    <g transform="matrix(8.33333,0,0,8.33333,517.705,211.509)">
        <path d="M0,76.857C-0.25,76.451 -0.555,76.075 -0.902,75.735C-3.976,72.759 -6.686,69.432 -8.957,65.847C-19.087,49.854 -20.015,29.424 -11.44,12.658C-11.229,12.303 -11.02,11.944 -10.778,11.597C-6.349,5.261 1.343,1.823 9.296,2.624C11.459,2.839 13.492,1.844 14.678,0.15C15.088,-0.437 15.397,-1.113 15.571,-1.846C16.25,-4.699 14.711,-7.61 11.976,-8.663C11.179,-8.964 10.371,-9.245 9.555,-9.499C21.294,-16.302 34.954,-18.408 48.27,-15.419C62.288,-12.269 74.243,-3.851 81.932,8.289C83.826,11.282 85.439,14.491 86.722,17.822C86.955,18.431 87.292,18.988 87.709,19.474C87.678,20.13 87.758,20.8 87.958,21.451C91.021,31.528 91.047,42.225 88.031,52.389C88.012,52.45 87.955,52.717 87.939,52.78C86.184,58.588 83.924,68.429 84.555,79.005C79.183,77.936 72.548,78.461 65.235,82.553C65.056,82.637 64.882,82.734 64.709,82.841C44.565,95.265 19.039,93.187 1.196,77.666C0.824,77.34 0.421,77.073 0,76.857" style="fill:rgb(240,238,232);fill-rule:nonzero;"/>
    </g>
    <g transform="matrix(8.33333,0,0,8.33333,546.204,218.63)">
        <path d="M0,76.858C-0.25,76.451 -0.555,76.076 -0.901,75.735C-3.975,72.759 -6.687,69.433 -8.957,65.847C-19.087,49.854 -20.015,29.424 -11.44,12.659C-11.229,12.304 -11.02,11.944 -10.777,11.598C-6.349,5.261 1.343,1.823 9.296,2.625C11.459,2.84 13.493,1.845 14.678,0.15C15.088,-0.436 15.397,-1.112 15.571,-1.846C16.25,-4.698 14.712,-7.609 11.977,-8.662C11.179,-8.963 10.371,-9.245 9.556,-9.499C21.295,-16.301 34.954,-18.407 48.27,-15.418C62.289,-12.268 74.243,-3.851 81.932,8.29C83.827,11.282 85.44,14.492 86.722,17.823C86.956,18.432 87.292,18.988 87.709,19.475C87.678,20.131 87.758,20.8 87.958,21.452C91.021,31.529 91.048,42.226 88.031,52.389C88.013,52.451 87.956,52.717 87.939,52.781C86.185,58.588 83.924,68.43 84.556,79.006C79.184,77.937 72.549,78.461 65.235,82.554C65.057,82.638 64.882,82.734 64.709,82.841C44.565,95.265 19.039,93.188 1.196,77.667C0.824,77.341 0.421,77.073 0,76.858" style="fill:rgb(254,213,0);fill-rule:nonzero;"/>
    </g>
    <g transform="matrix(6.56524,-5.13245,-5.13245,-6.56524,941.083,751.182)">
        <path d="M-24.296,-8.988C-34.705,4.915 -39.244,22.337 -35.73,41.095C-33.87,51.025 -29.9,60.465 -24.296,69.123C-33.77,60.702 -40.23,48.841 -41.582,35.233C-43.3,17.924 -36.361,1.759 -24.296,-8.988" style="fill:rgb(29,30,27);fill-rule:nonzero;"/>
    </g>
    <g transform="matrix(8.33333,0,0,8.33333,517.705,161.734)">
        <path d="M0,82.83C-0.25,82.424 -0.555,82.048 -0.902,81.708C-3.976,78.732 -6.686,75.405 -8.957,71.82C-19.087,55.827 -20.015,35.397 -11.44,18.631C-11.229,18.276 -11.02,17.917 -10.778,17.57C-6.349,11.234 1.343,7.796 9.296,8.597C11.459,8.812 13.492,7.817 14.678,6.123C15.088,5.536 15.397,4.86 15.571,4.127C16.25,1.274 14.711,-1.637 11.976,-2.69C11.179,-2.991 10.371,-3.272 9.555,-3.526C21.294,-10.329 34.954,-12.435 48.27,-9.446C62.288,-6.296 74.243,2.122 81.932,14.262C83.826,17.255 85.439,20.464 86.722,23.795C86.955,24.404 87.292,24.961 87.709,25.447C87.678,26.103 87.758,26.773 87.958,27.424C91.021,37.501 91.047,48.198 88.031,58.362C88.012,58.423 87.955,58.69 87.939,58.753C86.184,64.561 83.924,74.402 84.555,84.978C79.183,83.909 72.548,84.434 65.235,88.526C65.056,88.61 64.882,88.707 64.709,88.814C44.565,101.238 19.039,99.16 1.196,83.639C0.824,83.313 0.421,83.046 0,82.83ZM-2.641,88.052C16.562,104.756 45.072,107.8 67.781,93.792L67.79,93.8C82.776,85.201 92.239,95.236 92.239,95.236C88.225,82.102 91.383,67.589 93.54,60.439C93.582,60.296 93.604,60.162 93.64,60.022C96.915,48.984 96.999,37.053 93.555,25.724C93.555,25.724 92.63,22.892 92.182,21.694C90.789,18.072 89.026,14.533 86.872,11.129C69.249,-16.698 32.403,-24.97 4.576,-7.348C0.872,-5.001 -2.475,-2.306 -5.471,0.656C-0.367,0.192 4.891,0.861 9.878,2.775C0.144,1.795 -9.699,5.813 -15.574,14.218C-15.945,14.748 -16.261,15.297 -16.588,15.842C-25.874,34.008 -25.606,56.465 -13.899,74.947C-11.312,79.035 -8.3,82.686 -4.971,85.91" style="fill:rgb(29,31,28);fill-rule:nonzero;stroke:rgb(29,30,27);stroke-width:0.56px;"/>
    </g>
    <g transform="matrix(8.33333,0,0,8.33333,406.694,933.478)">
        <path d="M0,-20.667C-1.924,-21.054 -16.668,-21.426 -16.668,-21.426L-30.723,-13.352L-33.451,0.759" style="fill:none;fill-rule:nonzero;stroke:rgb(29,30,27);stroke-width:3.88px;stroke-linecap:round;stroke-linejoin:round;"/>
    </g>
    <g transform="matrix(8.33333,0,0,8.33333,16.1667,900.386)">
        <path d="M0,-9.272L16.141,-9.38L4.877,0.108" style="fill:none;fill-rule:nonzero;stroke:rgb(29,30,27);stroke-width:3.88px;stroke-linecap:round;stroke-linejoin:round;"/>
    </g>
    <g transform="matrix(8.33333,0,0,8.33333,1040.77,557.998)">
        <path d="M0,13.126L2.188,0L-4.517,2.931" style="fill:none;fill-rule:nonzero;stroke:rgb(29,30,27);stroke-width:4.16px;stroke-linejoin:round;"/>
    </g>
    <g transform="matrix(8.33333,0,0,8.33333,1114.33,509.1)">
        <path d="M0,-7.513L-1.037,0L7.813,-2.815" style="fill:none;fill-rule:nonzero;stroke:rgb(29,30,27);stroke-width:4.16px;stroke-linejoin:round;"/>
    </g>
</svg>
