<?xml version="1.0" encoding="UTF-8" standalone="no"?>
<!DOCTYPE svg PUBLIC "-//W3C//DTD SVG 1.1//EN" "http://www.w3.org/Graphics/SVG/1.1/DTD/svg11.dtd">
<svg width="100%" height="100%" viewBox="0 0 1064 1116" version="1.1" xmlns="http://www.w3.org/2000/svg" xmlns:xlink="http://www.w3.org/1999/xlink" xml:space="preserve" xmlns:serif="http://www.serif.com/" style="fill-rule:evenodd;clip-rule:evenodd;stroke-miterlimit:10;">
    <g transform="matrix(8.33333,0,0,8.33333,404.48,763.048)">
        <path d="M0,-77.777C0.396,-77.877 0.782,-78.03 1.149,-78.227C4.372,-79.979 7.789,-81.344 11.304,-82.282C26.985,-86.469 43.938,-81.99 55.456,-70.677C55.692,-70.414 55.933,-70.15 56.154,-69.863C60.202,-64.615 61.043,-57.441 58.349,-51.14C57.618,-49.425 57.91,-47.506 58.993,-46.103C59.368,-45.616 59.842,-45.19 60.397,-44.86C62.557,-43.573 65.333,-44.085 66.895,-46.053C67.347,-46.628 67.783,-47.217 68.201,-47.819C70.757,-36.471 68.977,-24.756 63.118,-14.629C56.946,-3.967 46.995,3.656 35.092,6.833C32.157,7.616 29.118,8.113 26.064,8.308C25.506,8.343 24.965,8.476 24.459,8.692C23.931,8.498 23.362,8.392 22.778,8.389C13.748,8.311 4.99,5.59 -2.552,0.517C-2.597,0.486 -2.801,0.371 -2.848,0.342C-7.149,-2.584 -14.622,-6.956 -23.437,-9.151C-21.184,-13.272 -19.912,-18.835 -21.386,-25.867C-21.408,-26.035 -21.442,-26.202 -21.486,-26.371C-26.485,-46.036 -18.241,-66.387 -0.968,-77.006C-0.606,-77.227 -0.284,-77.488 0,-77.777" style="fill:rgb(240,238,232);fill-rule:nonzero;"/>
    </g>
    <g transform="matrix(8.33333,0,0,8.33333,447.742,763.048)">
        <path d="M0,-77.777C0.397,-77.877 0.782,-78.03 1.15,-78.227C4.372,-79.979 7.789,-81.344 11.305,-82.282C26.986,-86.469 43.938,-81.99 55.456,-70.677C55.692,-70.414 55.934,-70.15 56.154,-69.863C60.203,-64.615 61.044,-57.441 58.35,-51.14C57.618,-49.425 57.911,-47.506 58.994,-46.103C59.369,-45.616 59.842,-45.19 60.397,-44.86C62.558,-43.573 65.333,-44.085 66.895,-46.053C67.347,-46.628 67.784,-47.217 68.201,-47.819C70.757,-36.471 68.978,-24.756 63.119,-14.629C56.947,-3.967 46.995,3.656 35.092,6.833C32.158,7.616 29.118,8.113 26.064,8.308C25.506,8.343 24.965,8.476 24.46,8.692C23.931,8.498 23.362,8.392 22.778,8.389C13.749,8.311 4.991,5.59 -2.551,0.517C-2.596,0.486 -2.8,0.371 -2.848,0.342C-7.149,-2.584 -14.621,-6.956 -23.436,-9.151C-21.184,-13.272 -19.911,-18.835 -21.385,-25.867C-21.407,-26.035 -21.441,-26.202 -21.485,-26.371C-26.485,-46.036 -18.24,-66.387 -0.968,-77.006C-0.606,-77.227 -0.283,-77.488 0,-77.777" style="fill:rgb(254,213,0);fill-rule:nonzero;"/>
    </g>
    <g transform="matrix(2.93432,7.79963,7.79963,-2.93432,324.518,22.0388)">
        <path d="M34.459,-19.535C25.534,-7.615 21.642,7.321 24.655,23.404C26.25,31.917 29.653,40.01 34.459,47.434C26.336,40.214 20.796,30.044 19.638,18.377C18.164,3.537 24.114,-10.322 34.459,-19.535" style="fill:rgb(29,30,27);fill-rule:nonzero;"/>
    </g>
    <g transform="matrix(8.33333,0,0,8.33333,420.561,757.357)">
        <path d="M0,-76.992C0.396,-77.092 0.782,-77.245 1.149,-77.442C4.372,-79.193 7.789,-80.559 11.304,-81.497C26.985,-85.684 43.938,-81.205 55.456,-69.892C55.691,-69.629 55.933,-69.365 56.154,-69.078C60.202,-63.829 61.043,-56.656 58.349,-50.355C57.618,-48.64 57.91,-46.721 58.993,-45.318C59.368,-44.831 59.842,-44.405 60.397,-44.075C62.557,-42.788 65.333,-43.3 66.895,-45.268C67.347,-45.843 67.783,-46.432 68.201,-47.034C70.757,-35.686 68.977,-23.971 63.118,-13.844C56.946,-3.182 46.995,4.441 35.092,7.618C32.157,8.401 29.118,8.898 26.063,9.093C25.505,9.128 24.965,9.261 24.459,9.477C23.931,9.283 23.362,9.177 22.778,9.174C13.748,9.096 4.99,6.375 -2.552,1.302C-2.597,1.271 -2.801,1.156 -2.849,1.127C-7.149,-1.799 -14.622,-6.171 -23.437,-8.366C-21.184,-12.487 -19.912,-18.05 -21.386,-25.082C-21.408,-25.25 -21.442,-25.417 -21.486,-25.586C-26.485,-45.251 -18.241,-65.602 -0.968,-76.221C-0.606,-76.442 -0.284,-76.703 0,-76.992ZM-3.596,-80.491C-22.185,-69.063 -31.984,-46.519 -26.346,-24.348L-26.354,-24.344C-23.162,-9.878 -33.798,-4.709 -33.798,-4.709C-22.024,-4.626 -10.96,1.678 -5.664,5.276C-5.557,5.348 -5.454,5.4 -5.348,5.465C2.843,10.974 12.583,14.102 22.734,14.189C22.734,14.189 25.288,14.158 26.383,14.099C29.703,13.888 33.051,13.353 36.389,12.463C63.673,5.18 79.886,-22.844 72.603,-50.127C71.633,-53.76 70.286,-57.189 68.632,-60.4C67.702,-56.105 65.807,-51.975 62.963,-48.386C66.261,-56.098 65.496,-65.181 60.126,-72.142C59.787,-72.582 59.42,-72.981 59.058,-73.388C46.576,-85.643 28.136,-91.181 10.013,-86.342C6.005,-85.274 2.245,-83.745 -1.245,-81.848" style="fill:rgb(29,31,28);fill-rule:nonzero;stroke:rgb(29,30,27);stroke-width:0.56px;"/>
    </g>
    <g transform="matrix(8.33333,0,0,8.33333,415.605,625.588)">
        <path d="M0,-4.189L11.482,1.388L10.606,-5.577" style="fill:none;fill-rule:nonzero;stroke:rgb(29,30,27);stroke-width:3.99px;stroke-linejoin:round;"/>
    </g>
    <g transform="matrix(8.33333,0,0,8.33333,598.857,742.657)">
        <path d="M0,-2.92L-6.63,-5.914L-6.443,2.994" style="fill:none;fill-rule:nonzero;stroke:rgb(29,30,27);stroke-width:3.99px;stroke-linejoin:round;"/>
    </g>
    <g transform="matrix(8.33333,0,0,8.33333,227.519,550.365)">
        <path d="M0,-25.777C-1.324,-25.287 -10.499,-19.939 -10.499,-19.939L-16.057,-9.677L-12.393,0" style="fill:none;fill-rule:nonzero;stroke:rgb(29,30,27);stroke-width:2.79px;stroke-linecap:round;stroke-linejoin:round;"/>
    </g>
    <g transform="matrix(8.33333,0,0,8.33333,11.6417,502.252)">
        <path d="M0,2.267L9.849,-3.903L6.536,6.17" style="fill:none;fill-rule:nonzero;stroke:rgb(29,30,27);stroke-width:2.79px;stroke-linecap:round;stroke-linejoin:round;"/>
    </g>
    <g transform="matrix(8.33333,0,0,8.33333,726.852,1096.4)">
        <path d="M0,-30.539C-1.175,-26.202 -2.207,-21.614 -2.207,-21.614L-7.718,-10.271L-3.301,0" style="fill:none;fill-rule:nonzero;stroke:rgb(29,30,27);stroke-width:3.02px;stroke-linecap:round;stroke-linejoin:round;"/>
    </g>
    <g transform="matrix(8.33333,0,0,8.33333,576.404,1043.31)">
        <path d="M0,3.229L10.336,-3.901L7.241,7.13" style="fill:none;fill-rule:nonzero;stroke:rgb(29,30,27);stroke-width:3.02px;stroke-linecap:round;stroke-linejoin:round;"/>
    </g>
</svg>
