<?xml version="1.0" encoding="UTF-8" standalone="no"?>
<!DOCTYPE svg PUBLIC "-//W3C//DTD SVG 1.1//EN" "http://www.w3.org/Graphics/SVG/1.1/DTD/svg11.dtd">
<svg width="100%" height="100%" viewBox="0 0 1952 1787" version="1.1" xmlns="http://www.w3.org/2000/svg" xmlns:xlink="http://www.w3.org/1999/xlink" xml:space="preserve" xmlns:serif="http://www.serif.com/" style="fill-rule:evenodd;clip-rule:evenodd;stroke-linecap:round;stroke-linejoin:round;stroke-miterlimit:10;">
    <g transform="matrix(8.33333,0,0,8.33333,1865.75,998.167)">
        <path d="M0,-14.824C-0.08,-14.07 -0.061,-13.303 0.047,-12.537C1.033,-5.816 1.224,0.997 0.608,7.708C-2.135,37.649 -20.755,64.258 -47.785,77.054C-48.394,77.296 -49.007,77.546 -49.646,77.747C-61.359,81.432 -74.369,78.309 -83.602,69.597C-86.115,67.231 -89.639,66.513 -92.771,67.498C-93.855,67.839 -94.9,68.39 -95.829,69.145C-99.446,72.077 -100.33,77.231 -97.906,81.205C-97.195,82.357 -96.451,83.492 -95.671,84.604C-117.034,81.794 -136.265,71.213 -150.128,54.555C-164.72,37.011 -171.612,14.838 -169.529,-7.887C-169.016,-13.49 -167.937,-19.092 -166.324,-24.525C-166.028,-25.519 -165.913,-26.544 -165.967,-27.561C-165.291,-28.357 -164.744,-29.277 -164.365,-30.29C-158.458,-45.939 -148.131,-59.427 -134.491,-69.298C-134.407,-69.355 -134.077,-69.637 -133.996,-69.7C-126.161,-75.31 -113.784,-85.506 -104.335,-99.428C-98.61,-92.879 -89.752,-87.112 -76.584,-85.18C-76.276,-85.112 -75.964,-85.064 -75.643,-85.032C-38.258,-81.157 -8.145,-53.817 -0.723,-17C-0.569,-16.23 -0.321,-15.503 0,-14.824" style="fill:rgb(240,238,232);fill-rule:nonzero;"/>
    </g>
    <g transform="matrix(8.33333,0,0,8.33333,1888.68,1005.81)">
        <path d="M0,-14.824C-0.08,-14.07 -0.061,-13.303 0.048,-12.538C1.033,-5.816 1.224,0.997 0.608,7.708C-2.135,37.649 -20.755,64.258 -47.785,77.054C-48.394,77.296 -49.006,77.546 -49.646,77.747C-61.358,81.432 -74.369,78.309 -83.602,69.598C-86.115,67.231 -89.639,66.513 -92.771,67.498C-93.855,67.839 -94.9,68.39 -95.829,69.145C-99.446,72.077 -100.33,77.231 -97.906,81.205C-97.195,82.357 -96.451,83.492 -95.671,84.604C-117.034,81.794 -136.265,71.213 -150.128,54.555C-164.72,37.011 -171.612,14.838 -169.529,-7.887C-169.016,-13.49 -167.937,-19.092 -166.324,-24.525C-166.028,-25.519 -165.913,-26.544 -165.967,-27.561C-165.291,-28.357 -164.743,-29.277 -164.365,-30.29C-158.458,-45.939 -148.131,-59.427 -134.49,-69.298C-134.407,-69.355 -134.077,-69.637 -133.996,-69.7C-126.161,-75.31 -113.784,-85.506 -104.335,-99.428C-98.609,-92.879 -89.752,-87.112 -76.583,-85.18C-76.276,-85.112 -75.964,-85.064 -75.643,-85.032C-38.258,-81.157 -8.145,-53.817 -0.723,-17C-0.569,-16.23 -0.321,-15.503 0,-14.824" style="fill:rgb(254,213,0);fill-rule:nonzero;"/>
    </g>
    <g transform="matrix(-8.33309,0.0631473,0.0631473,8.33309,1814.01,1502.77)">
        <path d="M30.035,-124.159C13.502,-102.079 6.294,-74.412 11.875,-44.621C14.828,-28.853 21.132,-13.861 30.035,-0.11C14.988,-13.483 4.728,-32.321 2.583,-53.932C-0.147,-81.42 10.873,-107.092 30.035,-124.159" style="fill:rgb(29,30,27);fill-rule:nonzero;"/>
    </g>
    <g transform="matrix(8.33333,0,0,8.33333,1865.75,914.117)">
        <path d="M0,-4.738C-0.08,-3.984 -0.061,-3.217 0.047,-2.451C1.033,4.27 1.224,11.083 0.608,17.794C-2.135,47.735 -20.755,74.344 -47.785,87.14C-48.394,87.382 -49.007,87.632 -49.646,87.833C-61.359,91.518 -74.369,88.395 -83.602,79.683C-86.115,77.317 -89.639,76.599 -92.771,77.584C-93.855,77.925 -94.9,78.476 -95.829,79.231C-99.446,82.163 -100.33,87.317 -97.906,91.291C-97.195,92.443 -96.451,93.578 -95.671,94.69C-117.034,91.88 -136.265,81.299 -150.128,64.641C-164.72,47.097 -171.612,24.924 -169.529,2.199C-169.016,-3.404 -167.937,-9.006 -166.324,-14.439C-166.028,-15.433 -165.913,-16.458 -165.967,-17.475C-165.291,-18.271 -164.744,-19.191 -164.365,-20.204C-158.458,-35.853 -148.131,-49.341 -134.491,-59.212C-134.407,-59.269 -134.077,-59.551 -133.996,-59.614C-126.161,-65.224 -113.784,-75.42 -104.335,-89.342C-98.61,-82.793 -89.752,-77.026 -76.584,-75.094C-76.276,-75.026 -75.964,-74.978 -75.643,-74.946C-38.258,-71.071 -8.145,-43.731 -0.723,-6.914C-0.569,-6.144 -0.321,-5.417 0,-4.738M8.381,-8.752C0.394,-48.375 -32.54,-79.821 -74.688,-84.187L-74.691,-84.205C-101.881,-87.9 -104.07,-109.694 -104.07,-109.694C-111.739,-89.277 -129.771,-74.07 -139.41,-67.162C-139.604,-67.022 -139.761,-66.876 -139.941,-66.733C-154.754,-56.014 -166.417,-41.078 -173.056,-23.484C-173.056,-23.484 -174.634,-19.025 -175.23,-17.084C-176.986,-11.177 -178.196,-5.014 -178.782,1.357C-183.557,53.448 -145.196,99.546 -93.107,104.322C-86.171,104.956 -79.349,104.806 -72.709,103.981C-79.581,99.619 -85.551,93.686 -89.974,86.447C-78.672,97.11 -62.393,101.584 -46.858,96.698C-45.877,96.39 -44.949,96.005 -44.01,95.635C-14.727,81.768 6.688,53.246 9.857,18.645C10.561,10.995 10.306,3.482 9.238,-3.799" style="fill:rgb(29,30,27);fill-rule:nonzero;"/>
    </g>
    <g transform="matrix(-0.124035,-8.33241,-8.33241,0.124035,902.853,667.222)">
        <path d="M-5.844,-5.932C-13.294,-5.932 -19.334,-3.315 -19.333,-0.085C-19.333,3.142 -13.294,5.759 -5.844,5.759C1.607,5.758 7.647,3.14 7.645,-0.088C7.645,-3.317 1.606,-5.934 -5.844,-5.932" style="fill:rgb(29,30,27);fill-rule:nonzero;"/>
    </g>
    <g transform="matrix(-0.123094,-8.33242,-8.33242,0.123094,774.559,694.033)">
        <path d="M-4.941,-5.015C-11.239,-5.016 -16.345,-2.802 -16.344,-0.074C-16.345,2.656 -11.239,4.869 -4.941,4.87C1.357,4.87 6.463,2.657 6.463,-0.072C6.463,-2.801 1.358,-5.014 -4.941,-5.015" style="fill:rgb(29,30,27);fill-rule:nonzero;"/>
    </g>
    <g transform="matrix(8.33333,0,0,8.33333,412.573,884.513)">
        <path d="M0,21.163C-0.455,18.984 -10.158,16.101 -10.158,16.101L-31.338,0L-47.269,3.448" style="fill:none;fill-rule:nonzero;stroke:rgb(29,30,27);stroke-width:4.4px;"/>
    </g>
    <g transform="matrix(8.33333,0,0,8.33333,90.4858,884.512)">
        <path d="M0,-16.783L7.312,0L-7.606,-7.512" style="fill:none;fill-rule:nonzero;stroke:rgb(29,30,27);stroke-width:4.4px;"/>
    </g>
</svg>
