<?xml version="1.0" encoding="UTF-8" standalone="no"?>
<!DOCTYPE svg PUBLIC "-//W3C//DTD SVG 1.1//EN" "http://www.w3.org/Graphics/SVG/1.1/DTD/svg11.dtd">
<svg width="100%" height="100%" viewBox="0 0 5216 2855" version="1.1" xmlns="http://www.w3.org/2000/svg" xmlns:xlink="http://www.w3.org/1999/xlink" xml:space="preserve" xmlns:serif="http://www.serif.com/" style="fill-rule:evenodd;clip-rule:evenodd;stroke-miterlimit:10;">
    <g transform="matrix(8.33333,0,0,8.33333,-2028.68,-2024.03)">
        <g opacity="0.1">
            <g transform="matrix(0,1,1,0,341.357,466.603)">
                <path d="M97.674,-97.674C100.735,-97.674 103.215,-53.944 103.215,0C103.215,53.943 100.735,97.674 97.674,97.674C94.614,97.674 92.133,53.943 92.133,0C92.133,-53.944 94.614,-97.674 97.674,-97.674" style="fill:rgb(29,30,27);fill-rule:nonzero;"/>
            </g>
        </g>
    </g>
    <g transform="matrix(8.33333,0,0,8.33333,3886.92,1523.51)">
        <path d="M0,32.315C-0.038,31.852 -0.137,31.393 -0.288,30.945C-1.643,27.013 -2.529,22.937 -2.92,18.831C-4.663,0.512 3.521,-17.603 18.328,-28.363C18.667,-28.577 19.007,-28.797 19.369,-28.991C25.996,-32.534 34.175,-32.13 40.716,-27.937C42.496,-26.798 44.696,-26.766 46.469,-27.714C47.082,-28.042 47.647,-28.491 48.121,-29.051C49.965,-31.225 49.912,-34.424 48.004,-36.54C47.445,-37.152 46.869,-37.751 46.273,-38.331C59.441,-39.062 72.207,-34.877 82.434,-26.43C93.198,-17.531 99.857,-4.976 101.18,8.929C101.506,12.357 101.492,15.848 101.138,19.299C101.072,19.93 101.119,20.56 101.267,21.166C100.95,21.72 100.726,22.336 100.612,22.989C98.833,33.07 94.15,42.353 87.065,49.836C87.021,49.88 86.855,50.086 86.813,50.134C82.736,54.396 76.447,61.931 72.343,71.377C68.156,68.086 62.175,65.622 54.036,65.952C53.844,65.946 53.65,65.953 53.453,65.969C30.528,67.876 9.317,54.844 0.681,33.542C0.501,33.096 0.27,32.686 0,32.315" style="fill:white;fill-rule:nonzero;"/>
    </g>
    <g transform="matrix(8.33333,0,0,8.33333,3915.02,1520.99)">
        <path d="M0,32.315C-0.038,31.852 -0.137,31.393 -0.288,30.945C-1.643,27.013 -2.529,22.937 -2.92,18.831C-4.663,0.512 3.521,-17.603 18.328,-28.363C18.667,-28.577 19.007,-28.797 19.369,-28.991C25.996,-32.534 34.175,-32.13 40.716,-27.937C42.496,-26.798 44.696,-26.766 46.469,-27.714C47.082,-28.042 47.648,-28.491 48.121,-29.051C49.965,-31.225 49.912,-34.424 48.004,-36.54C47.445,-37.152 46.869,-37.751 46.274,-38.331C59.441,-39.062 72.208,-34.877 82.434,-26.43C93.198,-17.531 99.857,-4.976 101.181,8.929C101.506,12.357 101.492,15.848 101.138,19.299C101.072,19.93 101.119,20.56 101.267,21.166C100.951,21.72 100.726,22.336 100.613,22.989C98.834,33.07 94.15,42.353 87.065,49.836C87.021,49.88 86.855,50.086 86.813,50.134C82.737,54.396 76.448,61.932 72.343,71.377C68.157,68.086 62.176,65.622 54.036,65.952C53.844,65.946 53.65,65.953 53.454,65.969C30.528,67.876 9.318,54.844 0.681,33.542C0.502,33.096 0.271,32.687 0,32.315" style="fill:rgb(254,213,0);fill-rule:nonzero;"/>
    </g>
    <g transform="matrix(8.17729,-1.6051,-1.6051,-8.17729,4176.91,1974.34)">
        <path d="M-7.419,-1.809C-17.537,11.706 -21.949,28.639 -18.533,46.873C-16.725,56.524 -12.868,65.7 -7.419,74.116C-16.628,65.931 -22.907,54.401 -24.221,41.173C-25.891,24.35 -19.147,8.638 -7.419,-1.809Z" style="fill:rgb(29,30,27);fill-rule:nonzero;stroke:rgb(29,30,27);stroke-width:0.56px;"/>
    </g>
    <g transform="matrix(8.33333,0,0,8.33333,3886.92,1560.73)">
        <path d="M0,27.848C-0.038,27.385 -0.137,26.926 -0.288,26.478C-1.643,22.546 -2.529,18.47 -2.92,14.364C-4.663,-3.955 3.521,-22.07 18.328,-32.83C18.667,-33.044 19.007,-33.264 19.369,-33.458C25.996,-37.001 34.175,-36.597 40.716,-32.404C42.496,-31.265 44.696,-31.233 46.469,-32.181C47.082,-32.509 47.647,-32.958 48.121,-33.518C49.965,-35.692 49.912,-38.891 48.004,-41.007C47.445,-41.619 46.869,-42.218 46.273,-42.798C59.441,-43.529 72.207,-39.344 82.434,-30.897C93.198,-21.998 99.857,-9.443 101.18,4.462C101.506,7.89 101.492,11.381 101.138,14.832C101.072,15.463 101.119,16.093 101.267,16.699C100.95,17.253 100.726,17.869 100.612,18.522C98.833,28.603 94.15,37.886 87.065,45.369C87.021,45.413 86.855,45.619 86.813,45.667C82.736,49.929 76.447,57.464 72.343,66.91C68.156,63.619 62.175,61.155 54.036,61.485C53.844,61.479 53.65,61.486 53.453,61.502C30.528,63.409 9.317,50.377 0.681,29.075C0.501,28.629 0.27,28.219 0,27.848ZM-4.586,31.212C4.709,54.138 28.081,69.32 53.927,67.168L53.931,67.179C70.703,66.32 74.49,79.18 74.49,79.18C76.788,66.031 85.911,54.84 90.926,49.593C91.026,49.487 91.104,49.381 91.196,49.276C98.891,41.149 104.213,30.844 106.212,19.509C106.212,19.509 106.655,16.648 106.794,15.413C107.181,11.661 107.21,7.818 106.841,3.919C103.809,-27.952 75.512,-51.332 43.641,-48.3C39.396,-47.896 35.31,-47.032 31.41,-45.783C36.038,-43.94 40.301,-41.047 43.781,-37.194C35.775,-42.327 25.477,-43.173 16.687,-38.473C16.132,-38.177 15.617,-37.84 15.094,-37.511C-0.947,-25.852 -10.595,-6.27 -8.579,14.901C-8.136,19.581 -7.13,24.072 -5.663,28.329" style="fill:rgb(29,30,27);fill-rule:nonzero;stroke:rgb(29,30,27);stroke-width:0.56px;"/>
    </g>
    <g transform="matrix(1.66542,8.16522,8.16522,-1.66542,4471.52,1751.87)">
        <path d="M3.505,-2.863C-1.055,-2.863 -4.751,-1.26 -4.751,0.715C-4.75,2.692 -1.054,4.293 3.505,4.292C8.066,4.292 11.761,2.69 11.761,0.713C11.761,-1.263 8.065,-2.864 3.505,-2.863" style="fill:rgb(29,30,27);fill-rule:nonzero;"/>
    </g>
    <g transform="matrix(1.66542,8.16522,8.16522,-1.66542,4471.52,1751.87)">
        <ellipse cx="3.505" cy="0.714" rx="8.256" ry="3.579" style="fill:none;stroke:rgb(29,30,27);stroke-width:0.56px;"/>
    </g>
    <g transform="matrix(1.66423,8.16546,8.16546,-1.66423,4548.45,1729.94)">
        <path d="M2.963,-2.42C-0.891,-2.421 -4.016,-1.066 -4.017,0.604C-4.016,2.274 -0.892,3.629 2.963,3.629C6.818,3.629 9.942,2.275 9.943,0.604C9.942,-1.065 6.818,-2.42 2.963,-2.42" style="fill:rgb(29,30,27);fill-rule:nonzero;"/>
    </g>
    <g transform="matrix(1.66423,8.16546,8.16546,-1.66423,4548.45,1729.94)">
        <ellipse cx="2.963" cy="0.604" rx="6.98" ry="3.025" style="fill:none;stroke:rgb(29,30,27);stroke-width:0.56px;"/>
    </g>
    <g transform="matrix(8.33333,0,0,8.33333,3889.55,2276.66)">
        <path d="M0,-45.466C-1.232,-44.017 -8.482,-31.692 -8.482,-31.692L-8.253,-8.95L2.426,0" style="fill:none;fill-rule:nonzero;stroke:rgb(29,30,27);stroke-width:3.76px;stroke-linecap:round;stroke-linejoin:round;"/>
    </g>
    <g transform="matrix(8.33333,0,0,8.33333,3758.27,2204.38)">
        <path d="M0,13.46L7.501,-0.276L10.247,13.736" style="fill:none;fill-rule:nonzero;stroke:rgb(29,30,27);stroke-width:3.76px;stroke-linecap:round;stroke-linejoin:round;"/>
    </g>
    <g transform="matrix(8.33333,0,0,8.33333,4730.24,1687.97)">
        <path d="M0,-26.575C1.887,-26.819 16.172,-26.178 16.172,-26.178L35.112,-13.588L36.795,0.244" style="fill:none;fill-rule:nonzero;stroke:rgb(29,30,27);stroke-width:3.76px;stroke-linecap:round;stroke-linejoin:round;"/>
    </g>
    <g transform="matrix(8.33333,0,0,8.33333,5152.88,1647.59)">
        <path d="M0,-7.543L-15.604,-8.742L-5.354,1.199" style="fill:none;fill-rule:nonzero;stroke:rgb(29,30,27);stroke-width:3.76px;stroke-linecap:round;stroke-linejoin:round;"/>
    </g>
    <g transform="matrix(8.33333,0,0,8.33333,3965.95,1623.51)">
        <path d="M0,-14.824C-0.08,-14.07 -0.061,-13.303 0.047,-12.537C1.033,-5.816 1.224,0.997 0.608,7.708C-2.135,37.649 -20.755,64.258 -47.785,77.054C-48.394,77.296 -49.007,77.546 -49.646,77.747C-61.359,81.432 -74.369,78.309 -83.602,69.597C-86.115,67.231 -89.639,66.513 -92.771,67.498C-93.855,67.839 -94.9,68.39 -95.829,69.145C-99.446,72.077 -100.33,77.231 -97.906,81.205C-97.195,82.357 -96.451,83.492 -95.671,84.604C-117.034,81.794 -136.265,71.213 -150.128,54.555C-164.72,37.011 -171.612,14.838 -169.529,-7.887C-169.016,-13.49 -167.937,-19.092 -166.324,-24.525C-166.028,-25.519 -165.913,-26.544 -165.967,-27.561C-165.291,-28.357 -164.744,-29.277 -164.365,-30.29C-158.458,-45.939 -148.131,-59.427 -134.491,-69.298C-134.407,-69.355 -134.077,-69.637 -133.996,-69.7C-126.161,-75.31 -113.784,-85.506 -104.335,-99.428C-98.61,-92.879 -89.752,-87.112 -76.584,-85.18C-76.276,-85.112 -75.964,-85.064 -75.643,-85.032C-38.258,-81.157 -8.145,-53.817 -0.723,-17C-0.569,-16.23 -0.321,-15.503 0,-14.824" style="fill:rgb(240,238,232);fill-rule:nonzero;"/>
    </g>
    <g transform="matrix(8.33333,0,0,8.33333,3988.88,1631.15)">
        <path d="M0,-14.824C-0.08,-14.07 -0.061,-13.303 0.048,-12.538C1.033,-5.816 1.224,0.997 0.608,7.708C-2.135,37.649 -20.755,64.258 -47.785,77.054C-48.394,77.296 -49.006,77.546 -49.646,77.747C-61.358,81.432 -74.369,78.309 -83.602,69.598C-86.115,67.231 -89.639,66.513 -92.771,67.498C-93.855,67.839 -94.9,68.39 -95.829,69.145C-99.446,72.077 -100.33,77.231 -97.906,81.205C-97.195,82.357 -96.451,83.492 -95.671,84.604C-117.034,81.794 -136.265,71.213 -150.128,54.555C-164.72,37.011 -171.612,14.838 -169.529,-7.887C-169.016,-13.49 -167.937,-19.092 -166.324,-24.525C-166.028,-25.519 -165.913,-26.544 -165.967,-27.561C-165.291,-28.357 -164.743,-29.277 -164.365,-30.29C-158.458,-45.939 -148.131,-59.427 -134.49,-69.298C-134.407,-69.355 -134.077,-69.637 -133.996,-69.7C-126.161,-75.31 -113.784,-85.506 -104.335,-99.428C-98.609,-92.879 -89.752,-87.112 -76.583,-85.18C-76.276,-85.112 -75.964,-85.064 -75.643,-85.032C-38.258,-81.157 -8.145,-53.817 -0.723,-17C-0.569,-16.23 -0.321,-15.503 0,-14.824" style="fill:rgb(254,213,0);fill-rule:nonzero;"/>
    </g>
    <g transform="matrix(-8.33309,0.0631473,0.0631473,8.33309,3914.21,2128.11)">
        <path d="M30.035,-124.159C13.502,-102.079 6.294,-74.412 11.875,-44.621C14.828,-28.853 21.132,-13.861 30.035,-0.11C14.988,-13.483 4.728,-32.321 2.583,-53.932C-0.147,-81.42 10.873,-107.092 30.035,-124.159" style="fill:rgb(29,30,27);fill-rule:nonzero;"/>
    </g>
    <g transform="matrix(8.33333,0,0,8.33333,3965.95,1539.46)">
        <path d="M0,-4.738C-0.08,-3.984 -0.061,-3.217 0.047,-2.451C1.033,4.27 1.224,11.083 0.608,17.794C-2.135,47.735 -20.755,74.344 -47.785,87.14C-48.394,87.382 -49.007,87.632 -49.646,87.833C-61.359,91.518 -74.369,88.395 -83.602,79.683C-86.115,77.317 -89.639,76.599 -92.771,77.584C-93.855,77.925 -94.9,78.476 -95.829,79.231C-99.446,82.163 -100.33,87.317 -97.906,91.291C-97.195,92.443 -96.451,93.578 -95.671,94.69C-117.034,91.88 -136.265,81.299 -150.128,64.641C-164.72,47.097 -171.612,24.924 -169.529,2.199C-169.016,-3.404 -167.937,-9.006 -166.324,-14.439C-166.028,-15.433 -165.913,-16.458 -165.967,-17.475C-165.291,-18.271 -164.744,-19.191 -164.365,-20.204C-158.458,-35.853 -148.131,-49.341 -134.491,-59.212C-134.407,-59.269 -134.077,-59.551 -133.996,-59.614C-126.161,-65.224 -113.784,-75.42 -104.335,-89.342C-98.61,-82.793 -89.752,-77.026 -76.584,-75.094C-76.276,-75.026 -75.964,-74.978 -75.643,-74.946C-38.258,-71.071 -8.145,-43.731 -0.723,-6.914C-0.569,-6.144 -0.321,-5.417 0,-4.738M8.381,-8.752C0.394,-48.375 -32.54,-79.821 -74.688,-84.187L-74.691,-84.205C-101.881,-87.9 -104.07,-109.694 -104.07,-109.694C-111.739,-89.277 -129.771,-74.07 -139.41,-67.162C-139.604,-67.022 -139.761,-66.876 -139.941,-66.733C-154.754,-56.014 -166.417,-41.078 -173.056,-23.484C-173.056,-23.484 -174.634,-19.025 -175.23,-17.084C-176.986,-11.177 -178.196,-5.014 -178.782,1.357C-183.557,53.448 -145.196,99.546 -93.107,104.322C-86.171,104.956 -79.349,104.806 -72.709,103.981C-79.581,99.619 -85.551,93.686 -89.974,86.447C-78.672,97.11 -62.393,101.584 -46.858,96.698C-45.877,96.39 -44.949,96.005 -44.01,95.635C-14.727,81.768 6.688,53.246 9.857,18.645C10.561,10.995 10.306,3.482 9.238,-3.799" style="fill:rgb(29,30,27);fill-rule:nonzero;"/>
    </g>
    <g transform="matrix(-0.124035,-8.33241,-8.33241,0.124035,3003.05,1292.57)">
        <path d="M-5.844,-5.932C-13.294,-5.932 -19.334,-3.315 -19.333,-0.085C-19.333,3.142 -13.294,5.759 -5.844,5.759C1.607,5.758 7.647,3.14 7.645,-0.088C7.645,-3.317 1.606,-5.934 -5.844,-5.932" style="fill:rgb(29,30,27);fill-rule:nonzero;"/>
    </g>
    <g transform="matrix(-0.123094,-8.33242,-8.33242,0.123094,2874.76,1319.38)">
        <path d="M-4.941,-5.015C-11.239,-5.016 -16.345,-2.802 -16.344,-0.074C-16.345,2.656 -11.239,4.869 -4.941,4.87C1.357,4.87 6.463,2.657 6.463,-0.072C6.463,-2.801 1.358,-5.014 -4.941,-5.015" style="fill:rgb(29,30,27);fill-rule:nonzero;"/>
    </g>
    <g transform="matrix(8.33333,0,0,8.33333,2512.77,1509.86)">
        <path d="M0,21.163C-0.455,18.984 -10.158,16.101 -10.158,16.101L-31.338,0L-47.269,3.448" style="fill:none;fill-rule:nonzero;stroke:rgb(29,30,27);stroke-width:4.4px;stroke-linecap:round;stroke-linejoin:round;"/>
    </g>
    <g transform="matrix(8.33333,0,0,8.33333,2190.68,1509.86)">
        <path d="M0,-16.783L7.312,0L-7.606,-7.512" style="fill:none;fill-rule:nonzero;stroke:rgb(29,30,27);stroke-width:4.4px;stroke-linecap:round;stroke-linejoin:round;"/>
    </g>
    <g transform="matrix(8.33333,0,0,8.33333,4460.39,845.195)">
        <path d="M0,-83.836C0.44,-83.984 0.862,-84.191 1.26,-84.447C4.745,-86.714 8.485,-88.563 12.374,-89.937C29.724,-96.069 49.282,-92.522 63.311,-80.764C63.602,-80.487 63.896,-80.211 64.173,-79.906C69.217,-74.336 70.808,-66.303 68.325,-58.94C67.652,-56.938 68.154,-54.795 69.503,-53.305C69.971,-52.79 70.544,-52.35 71.201,-52.026C73.757,-50.765 76.849,-51.591 78.438,-53.955C78.897,-54.646 79.338,-55.35 79.757,-56.068C83.658,-43.47 82.692,-30.071 76.976,-18.102C70.952,-5.501 60.387,4.003 47.217,8.657C43.971,9.804 40.58,10.637 37.146,11.13C36.518,11.22 35.918,11.418 35.366,11.708C34.751,11.536 34.1,11.467 33.439,11.515C23.227,12.233 13.085,9.94 4.108,4.88C4.055,4.849 3.813,4.737 3.758,4.708C-1.365,1.787 -10.2,-2.488 -20.358,-4.182C-18.182,-9.04 -17.24,-15.44 -19.534,-23.257C-19.574,-23.445 -19.628,-23.631 -19.692,-23.818C-27.099,-45.597 -19.599,-69.334 -1.024,-82.878C-0.636,-83.16 -0.295,-83.483 0,-83.836" style="fill:rgb(240,238,232);fill-rule:nonzero;"/>
    </g>
    <g transform="matrix(8.33333,0,0,8.33333,4469.64,871.834)">
        <path d="M0,-83.835C0.439,-83.983 0.861,-84.19 1.26,-84.446C4.745,-86.713 8.484,-88.562 12.374,-89.936C29.724,-96.069 49.282,-92.521 63.311,-80.763C63.601,-80.486 63.896,-80.21 64.172,-79.905C69.217,-74.335 70.808,-66.302 68.325,-58.94C67.651,-56.937 68.153,-54.794 69.503,-53.304C69.97,-52.789 70.543,-52.349 71.2,-52.025C73.756,-50.764 76.848,-51.591 78.438,-53.955C78.896,-54.645 79.338,-55.349 79.756,-56.067C83.658,-43.469 82.692,-30.07 76.976,-18.101C70.952,-5.5 60.386,4.004 47.216,8.658C43.97,9.805 40.579,10.638 37.146,11.131C36.517,11.22 35.917,11.419 35.366,11.708C34.751,11.537 34.099,11.467 33.438,11.516C23.227,12.234 13.085,9.941 4.107,4.881C4.055,4.85 3.813,4.738 3.757,4.709C-1.366,1.787 -10.201,-2.487 -20.359,-4.181C-18.182,-9.039 -17.24,-15.44 -19.534,-23.256C-19.575,-23.444 -19.629,-23.63 -19.692,-23.817C-27.1,-45.596 -19.599,-69.333 -1.025,-82.877C-0.637,-83.159 -0.295,-83.482 0,-83.835" style="fill:rgb(254,213,0);fill-rule:nonzero;"/>
    </g>
    <g transform="matrix(3.5396,7.54425,7.54425,-3.5396,4336.45,72.2312)">
        <path d="M36.924,-20.213C26.806,-6.699 22.394,10.236 25.811,28.469C27.618,38.119 31.477,47.295 36.924,55.711C27.716,47.526 21.436,35.997 20.122,22.77C18.452,5.946 25.197,-9.766 36.924,-20.213Z" style="fill:rgb(29,31,28);fill-rule:nonzero;stroke:rgb(29,30,27);stroke-width:0.56px;"/>
    </g>
    <g transform="matrix(8.33333,0,0,8.33333,4460.39,840.578)">
        <path d="M0,-83.282C0.44,-83.43 0.862,-83.637 1.26,-83.893C4.745,-86.16 8.485,-88.009 12.374,-89.383C29.724,-95.515 49.282,-91.968 63.311,-80.21C63.602,-79.933 63.896,-79.657 64.173,-79.352C69.217,-73.782 70.808,-65.749 68.325,-58.386C67.652,-56.384 68.154,-54.241 69.503,-52.751C69.971,-52.236 70.544,-51.796 71.201,-51.472C73.757,-50.211 76.849,-51.037 78.438,-53.401C78.897,-54.092 79.338,-54.796 79.757,-55.514C83.658,-42.916 82.692,-29.517 76.976,-17.548C70.952,-4.947 60.387,4.557 47.217,9.211C43.971,10.358 40.58,11.191 37.146,11.684C36.518,11.774 35.918,11.972 35.366,12.262C34.751,12.09 34.1,12.021 33.439,12.069C23.227,12.787 13.085,10.494 4.108,5.434C4.055,5.403 3.813,5.291 3.758,5.262C-1.365,2.341 -10.2,-1.934 -20.358,-3.628C-18.182,-8.486 -17.24,-14.886 -19.534,-22.703C-19.574,-22.891 -19.628,-23.077 -19.692,-23.264C-27.099,-45.043 -19.599,-68.78 -1.024,-82.324C-0.636,-82.606 -0.295,-82.929 0,-83.282ZM-4.375,-86.915C-24.364,-72.34 -33.427,-45.985 -25.074,-21.431L-25.084,-21.425C-20.185,-5.361 -31.743,1.43 -31.743,1.43C-18.429,0.473 -5.36,6.61 0.945,10.203C1.073,10.275 1.194,10.325 1.319,10.389C11.068,15.884 22.356,18.549 33.838,17.741C33.838,17.741 36.722,17.478 37.953,17.313C41.687,16.779 45.423,15.875 49.115,14.571C79.302,3.904 95.123,-29.217 84.456,-59.403C83.035,-63.422 81.207,-67.178 79.05,-70.658C78.383,-65.721 76.609,-60.885 73.716,-56.574C76.754,-65.585 75.079,-75.782 68.389,-83.17C67.966,-83.636 67.516,-84.054 67.069,-84.482C51.869,-97.219 30.532,-101.831 10.481,-94.743C6.048,-93.178 1.936,-91.115 -1.84,-88.659" style="fill:rgb(29,31,28);fill-rule:nonzero;stroke:rgb(29,30,27);stroke-width:0.56px;"/>
    </g>
    <g transform="matrix(-7.51808,3.59484,3.59484,7.51808,4641.24,740.492)">
        <path d="M1.544,-6.805C-3.016,-6.805 -6.714,-5.202 -6.712,-3.227C-6.713,-1.251 -3.015,0.351 1.544,0.351C6.103,0.35 9.801,-1.253 9.8,-3.228C9.8,-5.204 6.102,-6.806 1.544,-6.805" style="fill:rgb(29,31,28);fill-rule:nonzero;"/>
    </g>
    <g transform="matrix(-7.51808,3.59484,3.59484,7.51808,4641.24,740.492)">
        <ellipse cx="1.544" cy="-3.227" rx="8.257" ry="3.578" style="fill:none;stroke:rgb(29,30,27);stroke-width:0.56px;"/>
    </g>
    <g transform="matrix(-7.51851,3.59395,3.59395,7.51851,4681.24,804.135)">
        <path d="M1.305,-5.753C-2.55,-5.753 -5.675,-4.399 -5.676,-2.729C-5.675,-1.058 -2.55,0.296 1.305,0.297C5.159,0.297 8.284,-1.058 8.284,-2.728C8.284,-4.398 5.16,-5.752 1.305,-5.753" style="fill:rgb(29,31,28);fill-rule:nonzero;"/>
    </g>
    <g transform="matrix(-7.51851,3.59395,3.59395,7.51851,4681.24,804.135)">
        <ellipse cx="1.304" cy="-2.728" rx="6.98" ry="3.025" style="fill:none;stroke:rgb(29,30,27);stroke-width:0.56px;"/>
    </g>
    <g transform="matrix(8.33333,0,0,8.33333,4359.17,245.268)">
        <path d="M0,-8.484C-1.704,-9.329 -15.42,-13.375 -15.42,-13.375L-37.428,-7.639L-43.521,4.891" style="fill:none;fill-rule:nonzero;stroke:rgb(29,30,27);stroke-width:3.76px;stroke-linecap:round;stroke-linejoin:round;"/>
    </g>
    <g transform="matrix(8.33333,0,0,8.33333,3921.08,232.117)">
        <path d="M0,-10.008L15.144,-6.061L2.216,0" style="fill:none;fill-rule:nonzero;stroke:rgb(29,30,27);stroke-width:3.76px;stroke-linecap:round;stroke-linejoin:round;"/>
    </g>
    <g transform="matrix(8.33333,0,0,8.33333,4981.38,1237.28)">
        <path d="M0,-42.198C0.693,-40.427 3.535,-26.412 3.535,-26.412L-4.087,-4.985L-17.099,0" style="fill:none;fill-rule:nonzero;stroke:rgb(29,30,27);stroke-width:3.76px;stroke-linecap:round;stroke-linejoin:round;"/>
    </g>
    <g transform="matrix(8.33333,0,0,8.33333,4969.14,1195.74)">
        <path d="M0,15.429L-2.618,0L-9.778,12.354" style="fill:none;fill-rule:nonzero;stroke:rgb(29,30,27);stroke-width:3.76px;stroke-linecap:round;stroke-linejoin:round;"/>
    </g>
    <g transform="matrix(8.33333,0,0,8.33333,1854.72,1250.59)">
        <path d="M0,-77.777C0.396,-77.877 0.782,-78.03 1.149,-78.227C4.372,-79.979 7.789,-81.344 11.304,-82.282C26.985,-86.469 43.938,-81.99 55.456,-70.677C55.692,-70.414 55.933,-70.15 56.154,-69.863C60.202,-64.615 61.043,-57.441 58.349,-51.14C57.618,-49.425 57.91,-47.506 58.993,-46.103C59.368,-45.616 59.842,-45.19 60.397,-44.86C62.557,-43.573 65.333,-44.085 66.895,-46.053C67.347,-46.628 67.783,-47.217 68.201,-47.819C70.757,-36.471 68.977,-24.756 63.118,-14.629C56.946,-3.967 46.995,3.656 35.092,6.833C32.157,7.616 29.118,8.113 26.064,8.308C25.506,8.343 24.965,8.476 24.459,8.692C23.931,8.498 23.362,8.392 22.778,8.389C13.748,8.311 4.99,5.59 -2.552,0.517C-2.597,0.486 -2.801,0.371 -2.848,0.342C-7.149,-2.584 -14.622,-6.956 -23.437,-9.151C-21.184,-13.272 -19.912,-18.835 -21.386,-25.867C-21.408,-26.035 -21.442,-26.202 -21.486,-26.371C-26.485,-46.036 -18.241,-66.387 -0.968,-77.006C-0.606,-77.227 -0.284,-77.488 0,-77.777" style="fill:rgb(240,238,232);fill-rule:nonzero;"/>
    </g>
    <g transform="matrix(8.33333,0,0,8.33333,1897.98,1250.59)">
        <path d="M0,-77.777C0.397,-77.877 0.782,-78.03 1.15,-78.227C4.372,-79.979 7.789,-81.344 11.305,-82.282C26.986,-86.469 43.938,-81.99 55.456,-70.677C55.692,-70.414 55.934,-70.15 56.154,-69.863C60.203,-64.615 61.044,-57.441 58.35,-51.14C57.618,-49.425 57.911,-47.506 58.994,-46.103C59.369,-45.616 59.842,-45.19 60.397,-44.86C62.558,-43.573 65.333,-44.085 66.895,-46.053C67.347,-46.628 67.784,-47.217 68.201,-47.819C70.757,-36.471 68.978,-24.756 63.119,-14.629C56.947,-3.967 46.995,3.656 35.092,6.833C32.158,7.616 29.118,8.113 26.064,8.308C25.506,8.343 24.965,8.476 24.46,8.692C23.931,8.498 23.362,8.392 22.778,8.389C13.749,8.311 4.991,5.59 -2.551,0.517C-2.596,0.486 -2.8,0.371 -2.848,0.342C-7.149,-2.584 -14.621,-6.956 -23.436,-9.151C-21.184,-13.272 -19.911,-18.835 -21.385,-25.867C-21.407,-26.035 -21.441,-26.202 -21.485,-26.371C-26.485,-46.036 -18.24,-66.387 -0.968,-77.006C-0.606,-77.227 -0.283,-77.488 0,-77.777" style="fill:rgb(254,213,0);fill-rule:nonzero;"/>
    </g>
    <g transform="matrix(2.93432,7.79963,7.79963,-2.93432,1774.76,509.585)">
        <path d="M34.459,-19.535C25.534,-7.615 21.642,7.321 24.655,23.404C26.25,31.917 29.653,40.01 34.459,47.434C26.336,40.214 20.796,30.044 19.638,18.377C18.164,3.537 24.114,-10.322 34.459,-19.535" style="fill:rgb(29,30,27);fill-rule:nonzero;"/>
    </g>
    <g transform="matrix(8.33333,0,0,8.33333,1870.8,1244.9)">
        <path d="M0,-76.992C0.396,-77.092 0.782,-77.245 1.149,-77.442C4.372,-79.193 7.789,-80.559 11.304,-81.497C26.985,-85.684 43.938,-81.205 55.456,-69.892C55.691,-69.629 55.933,-69.365 56.154,-69.078C60.202,-63.829 61.043,-56.656 58.349,-50.355C57.618,-48.64 57.91,-46.721 58.993,-45.318C59.368,-44.831 59.842,-44.405 60.397,-44.075C62.557,-42.788 65.333,-43.3 66.895,-45.268C67.347,-45.843 67.783,-46.432 68.201,-47.034C70.757,-35.686 68.977,-23.971 63.118,-13.844C56.946,-3.182 46.995,4.441 35.092,7.618C32.157,8.401 29.118,8.898 26.063,9.093C25.505,9.128 24.965,9.261 24.459,9.477C23.931,9.283 23.362,9.177 22.778,9.174C13.748,9.096 4.99,6.375 -2.552,1.302C-2.597,1.271 -2.801,1.156 -2.849,1.127C-7.149,-1.799 -14.622,-6.171 -23.437,-8.366C-21.184,-12.487 -19.912,-18.05 -21.386,-25.082C-21.408,-25.25 -21.442,-25.417 -21.486,-25.586C-26.485,-45.251 -18.241,-65.602 -0.968,-76.221C-0.606,-76.442 -0.284,-76.703 0,-76.992ZM-3.596,-80.491C-22.185,-69.063 -31.984,-46.519 -26.346,-24.348L-26.354,-24.344C-23.162,-9.878 -33.798,-4.709 -33.798,-4.709C-22.024,-4.626 -10.96,1.678 -5.664,5.276C-5.557,5.348 -5.454,5.4 -5.348,5.465C2.843,10.974 12.583,14.102 22.734,14.189C22.734,14.189 25.288,14.158 26.383,14.099C29.703,13.888 33.051,13.353 36.389,12.463C63.673,5.18 79.886,-22.844 72.603,-50.127C71.633,-53.76 70.286,-57.189 68.632,-60.4C67.702,-56.105 65.807,-51.975 62.963,-48.386C66.261,-56.098 65.496,-65.181 60.126,-72.142C59.787,-72.582 59.42,-72.981 59.058,-73.388C46.576,-85.643 28.136,-91.181 10.013,-86.342C6.005,-85.274 2.245,-83.745 -1.245,-81.848" style="fill:rgb(29,31,28);fill-rule:nonzero;stroke:rgb(29,30,27);stroke-width:0.56px;"/>
    </g>
    <g transform="matrix(8.33333,0,0,8.33333,1865.85,1113.13)">
        <path d="M0,-4.189L11.482,1.388L10.606,-5.577" style="fill:none;fill-rule:nonzero;stroke:rgb(29,30,27);stroke-width:3.99px;stroke-linejoin:round;"/>
    </g>
    <g transform="matrix(8.33333,0,0,8.33333,2049.1,1230.2)">
        <path d="M0,-2.92L-6.63,-5.914L-6.443,2.994" style="fill:none;fill-rule:nonzero;stroke:rgb(29,30,27);stroke-width:3.99px;stroke-linejoin:round;"/>
    </g>
    <g transform="matrix(8.33333,0,0,8.33333,1677.76,1037.91)">
        <path d="M0,-25.777C-1.324,-25.287 -10.499,-19.939 -10.499,-19.939L-16.057,-9.677L-12.393,0" style="fill:none;fill-rule:nonzero;stroke:rgb(29,30,27);stroke-width:2.79px;stroke-linecap:round;stroke-linejoin:round;"/>
    </g>
    <g transform="matrix(8.33333,0,0,8.33333,1461.88,989.799)">
        <path d="M0,2.267L9.849,-3.903L6.536,6.17" style="fill:none;fill-rule:nonzero;stroke:rgb(29,30,27);stroke-width:2.79px;stroke-linecap:round;stroke-linejoin:round;"/>
    </g>
    <g transform="matrix(8.33333,0,0,8.33333,2177.09,1583.95)">
        <path d="M0,-30.539C-1.175,-26.202 -2.207,-21.614 -2.207,-21.614L-7.718,-10.271L-3.301,0" style="fill:none;fill-rule:nonzero;stroke:rgb(29,30,27);stroke-width:3.02px;stroke-linecap:round;stroke-linejoin:round;"/>
    </g>
    <g transform="matrix(8.33333,0,0,8.33333,2026.65,1530.86)">
        <path d="M0,3.229L10.336,-3.901L7.241,7.13" style="fill:none;fill-rule:nonzero;stroke:rgb(29,30,27);stroke-width:3.02px;stroke-linecap:round;stroke-linejoin:round;"/>
    </g>
    <g transform="matrix(-7.01177,-4.50327,-4.50327,7.01177,638.623,1959.29)">
        <path d="M-27.448,-113.518C-44.152,-91.209 -51.436,-63.254 -45.796,-33.152C-42.812,-17.219 -36.443,-2.072 -27.448,11.822C-42.65,-1.69 -53.018,-20.724 -55.185,-42.56C-57.944,-70.334 -46.809,-96.273 -27.448,-113.518" style="fill:rgb(229,219,217);fill-rule:nonzero;"/>
    </g>
    <g transform="matrix(-7.9649,-2.45046,-2.45046,7.9649,386.918,2065.9)">
        <path d="M-26.058,-173.314C-74.999,-173.313 -114.674,-133.639 -114.674,-84.697C-114.673,-35.756 -74.998,3.919 -26.058,3.918C22.886,3.918 62.558,-35.757 62.558,-84.698C62.557,-133.639 22.884,-173.314 -26.058,-173.314" style="fill:rgb(240,238,232);fill-rule:nonzero;"/>
    </g>
    <g transform="matrix(-7.9649,-2.45046,-2.45046,7.9649,430.84,2118.6)">
        <path d="M-26.058,-173.313C-74.999,-173.312 -114.674,-133.638 -114.674,-84.696C-114.673,-35.756 -74.998,3.919 -26.058,3.919C22.886,3.919 62.557,-35.756 62.558,-84.697C62.557,-133.638 22.884,-173.313 -26.058,-173.313" style="fill:rgb(254,213,0);fill-rule:nonzero;"/>
    </g>
    <g transform="matrix(-7.02842,-4.47726,-4.47726,7.02842,683.493,1917.02)">
        <path d="M-25.935,-108.499C-41.884,-87.196 -48.839,-60.503 -43.454,-31.762C-40.605,-16.549 -34.523,-2.086 -25.935,11.182C-40.451,-1.72 -50.349,-19.895 -52.42,-40.745C-55.053,-67.265 -44.42,-92.032 -25.935,-108.499" style="fill:rgb(29,30,27);fill-rule:nonzero;"/>
    </g>
    <g transform="matrix(8.33333,0,0,8.33333,1390.45,913.92)">
        <path d="M0,101.79C-0.459,102.356 -0.844,102.985 -1.157,103.659C-3.873,109.596 -7.279,115.19 -11.282,120.282C-29.137,142.999 -58.058,154.734 -86.546,150.933C-87.163,150.81 -87.787,150.691 -88.409,150.519C-99.781,147.372 -108.644,138.056 -111.539,126.206C-112.33,122.983 -114.797,120.564 -117.839,119.723C-118.892,119.431 -120.021,119.329 -121.165,119.453C-125.615,119.928 -129.021,123.623 -129.142,128.095C-129.17,129.395 -129.163,130.7 -129.114,132.005C-144.878,118.577 -154.86,99.995 -157.34,79.316C-159.943,57.542 -153.919,36.056 -140.365,18.813C-137.024,14.564 -133.228,10.609 -129.088,7.069C-128.33,6.422 -127.701,5.655 -127.214,4.807C-126.253,4.518 -125.331,4.061 -124.496,3.442C-111.556,-6.094 -96.179,-11.578 -80.021,-12.413C-79.923,-12.416 -79.51,-12.471 -79.41,-12.48C-70.16,-12.911 -54.85,-14.668 -39.955,-20.961C-38.759,-12.688 -34.627,-3.408 -25.015,5.03C-24.803,5.245 -24.575,5.447 -24.333,5.641C3.797,28.298 13.802,66.083 0.554,99.657C0.275,100.358 0.095,101.074 0,101.79M80.888,110.7L67.832,107.644L78.253,102.437C79.449,101.841 79.929,100.391 79.337,99.198C78.739,98 77.283,97.519 76.097,98.114L65.802,103.257L70.39,93.192C70.946,91.979 70.41,90.549 69.197,89.995C67.974,89.437 66.552,89.977 65.999,91.19L59.036,106.455L32.902,113.969C29.796,112.542 18.39,107.308 8.857,102.931C23.115,66.798 12.98,24.228 -18.735,-1.314L-18.729,-1.33C-38.729,-18.516 -29.108,-37.239 -29.108,-37.239C-45.961,-24.776 -68.451,-21.932 -79.835,-21.396C-80.064,-21.384 -80.267,-21.348 -80.487,-21.328C-98.035,-20.42 -115.245,-14.466 -129.792,-3.744L-127.953,-25.404L-118.667,-43.475L-104.7,-48.623C-103.45,-49.088 -102.808,-50.474 -103.269,-51.727C-103.736,-52.979 -105.117,-53.621 -106.373,-53.159L-115.034,-49.966L-110.404,-58.131C-109.745,-59.292 -110.151,-60.766 -111.314,-61.422C-112.477,-62.082 -113.951,-61.677 -114.605,-60.514L-119.207,-52.397L-120.495,-59.455C-120.736,-60.763 -121.983,-61.629 -123.305,-61.398C-124.616,-61.157 -125.486,-59.9 -125.246,-58.588L-122.908,-45.791L-132.471,-27.189C-132.612,-26.907 -132.699,-26.602 -132.727,-26.287L-134.937,-0.231C-134.951,-0.053 -134.913,0.113 -134.89,0.282C-139.393,4.129 -143.588,8.468 -147.389,13.301C-178.455,52.823 -171.599,110.047 -132.078,141.112C-126.815,145.249 -121.233,148.691 -115.447,151.494C-118.712,144.387 -120.427,136.482 -120.212,128.332C-116.667,142.837 -105.874,154.952 -90.791,159.127C-89.839,159.391 -88.89,159.565 -87.938,159.758C-57.074,163.872 -24.899,152.054 -4.267,125.801C0.298,119.998 4.018,113.805 6.961,107.374C18.088,112.484 31.702,118.731 31.702,118.731C31.819,118.786 31.94,118.829 32.063,118.863C32.489,118.98 32.944,118.98 33.374,118.856L60.834,110.964L79.788,115.403C81.084,115.709 82.385,114.9 82.689,113.603C82.994,112.305 82.211,110.919 80.888,110.7" style="fill:rgb(29,30,27);fill-rule:nonzero;"/>
    </g>
    <g transform="matrix(4.42572,-7.06098,-7.06098,-4.42572,740.004,1111.43)">
        <path d="M-4.76,-2.633C-11.919,-2.633 -17.723,-0.117 -17.723,2.986C-17.723,6.086 -11.919,8.602 -4.76,8.602C2.401,8.602 8.204,6.086 8.204,2.983C8.204,-0.12 2.4,-2.634 -4.76,-2.633" style="fill:rgb(29,30,27);fill-rule:nonzero;"/>
    </g>
    <g transform="matrix(4.42612,-7.06073,-7.06073,-4.42612,619.742,1062.99)">
        <path d="M-4.024,-2.227C-10.076,-2.226 -14.983,-0.101 -14.983,2.523C-14.983,5.145 -10.076,7.271 -4.024,7.272C2.028,7.271 6.935,5.145 6.935,2.522C6.935,-0.1 2.028,-2.227 -4.024,-2.227" style="fill:rgb(29,30,27);fill-rule:nonzero;"/>
    </g>
    <g transform="matrix(8.33333,0,0,8.33333,798.798,875.302)">
        <path d="M0,86.593C0.012,86.536 0.023,86.479 0.035,86.422C-1.04,85.282 -2.172,84.231 -3.182,82.994C-5.431,80.258 -7.12,76.968 -8.461,73.379C-10.032,69.206 -10.514,64.824 -10.447,60.355C-10.378,55.636 -9.979,50.989 -8.956,46.48C-8.497,44.456 -7.684,42.718 -6.452,41.356C-5.066,39.819 -3.331,39.733 -1.633,39.724C0.333,39.712 2.306,39.801 4.267,40.011C6.288,40.229 8.309,40.562 10.31,41.009C12.076,41.404 13.814,42.029 15.564,42.554C14.081,41.934 12.674,40.994 11.192,40.378C9.204,39.553 7.176,38.854 5.131,38.335C3.373,37.89 1.573,37.67 -0.215,37.524C-2.889,37.305 -5.561,37.036 -8.246,37.38C-10.609,37.677 -12.032,39.442 -13.041,41.95C-13.888,44.051 -14.229,46.38 -14.476,48.705C-14.751,51.314 -14.916,53.952 -15.048,56.59C-15.335,62.353 -14.484,67.853 -12.058,73.014C-10.744,75.837 -9.219,78.413 -7.311,80.599C-5.624,82.545 -3.748,84.074 -1.797,85.436C-1.207,85.848 -0.599,86.208 0,86.593M-54.255,7.461C-54.249,7.447 -54.244,7.434 -54.239,7.42C-54.391,7.338 -54.537,7.238 -54.694,7.177C-57.233,6.193 -59.764,5.177 -62.321,4.269C-64.173,3.616 -66.077,3.291 -68.012,3.198C-71.07,3.051 -73.796,4.035 -75.853,6.491C-77.054,7.92 -77.872,9.773 -78.78,11.483C-80.199,14.147 -81.18,17.022 -81.835,20.064C-82.399,22.68 -82.685,25.318 -82.429,28.065C-82.197,30.562 -81.595,32.937 -80.314,35.13C-79.273,36.925 -77.979,38.447 -76.511,39.773C-74.95,41.191 -73.396,42.636 -71.761,43.931C-70.406,45.01 -68.943,45.892 -67.516,46.832C-66.977,47.188 -66.397,47.444 -65.836,47.746L-65.771,47.53C-68.286,45.699 -70.62,43.584 -72.827,41.258C-75.248,38.729 -76.886,35.748 -77.483,32.135C-77.899,29.634 -77.937,27.147 -77.491,24.722C-77.144,22.824 -76.756,20.927 -76.243,19.087C-75.878,17.774 -75.345,16.511 -74.763,15.305C-73.83,13.368 -72.854,11.445 -71.781,9.594C-70.465,7.316 -68.423,6.147 -66.148,5.547C-64.297,5.053 -62.383,5.173 -60.504,5.597C-59.121,5.91 -57.756,6.34 -56.388,6.744C-55.671,6.956 -54.965,7.219 -54.255,7.461M-83.016,-10.805C-81.149,-10.155 -79.329,-9.489 -77.494,-8.877C-75.033,-8.051 -72.562,-7.267 -70.098,-6.451C-69.277,-6.178 -68.459,-5.896 -67.644,-5.602C-66.533,-5.2 -65.429,-4.776 -64.318,-4.373C-62.604,-3.747 -60.87,-3.185 -59.174,-2.494C-55.846,-1.126 -52.612,0.514 -49.451,2.374C-46.086,4.379 -42.825,6.607 -39.821,9.326C-37.652,11.309 -35.698,13.647 -33.562,15.705C-31.767,17.448 -29.896,19.103 -27.963,20.613C-25.528,22.53 -22.949,24.152 -20.237,25.376C-17.667,26.545 -15.04,27.46 -12.354,28.101C-9.148,28.869 -5.919,29.027 -2.673,29.053C0.523,29.075 3.671,29.779 6.771,30.676C9.552,31.486 12.296,32.55 15.007,33.701C17.548,34.788 20.059,36.028 22.519,37.408C24.957,38.784 27.316,40.413 29.704,41.954C31.053,42.829 32.396,43.719 33.735,44.621C36.103,46.223 38.454,47.875 40.828,49.462C41.874,50.164 42.969,50.725 44.121,51.399C43.851,52.297 43.655,52.945 43.46,53.592C42.471,56.873 41.488,60.15 40.485,63.406C40.409,63.654 40.185,63.97 40.023,63.978C37.466,64.093 35.995,66.182 34.986,69.266C34.478,70.82 33.816,72.271 33.194,73.739C32.354,75.718 31.511,77.689 30.625,79.614C29.938,81.105 29.23,82.581 28.449,83.963C26.916,86.667 25.388,89.37 23.745,91.903C22.731,93.46 21.607,94.974 20.116,95.614C18.829,96.162 17.505,96.614 16.166,96.875C13.448,97.398 10.7,97.147 7.96,96.427C5.724,95.84 3.509,95.093 1.391,93.776C-0.176,92.805 -1.771,91.923 -3.308,90.866C-5.713,89.22 -8.018,87.31 -10.167,85.07C-11.66,83.523 -13.181,82.01 -14.585,80.331C-16.233,78.371 -17.381,75.898 -18.396,73.346C-20.091,69.117 -21.046,64.667 -21.568,60.083C-22.162,54.929 -22.127,49.827 -21.669,44.743C-21.538,43.299 -21.255,41.827 -21.382,40.404C-21.591,38.073 -22.637,36.216 -24.338,35.214C-25.515,34.524 -26.766,34.771 -27.982,35.281C-29.423,35.882 -30.251,37.26 -30.998,38.744C-32.349,41.427 -34.063,43.699 -35.809,45.921C-37.487,48.048 -39.348,49.883 -41.337,51.507C-44.332,53.931 -47.575,55.627 -51.175,56.313C-53.362,56.72 -55.566,56.577 -57.779,55.847C-60.188,55.054 -62.621,54.38 -64.993,53.415C-67.125,52.552 -69.216,51.448 -71.278,50.312C-73.674,49.001 -75.907,47.307 -78.019,45.387C-81.127,42.59 -83.761,39.335 -85.882,35.543C-87.28,33.067 -87.677,30.433 -87.659,27.736C-87.644,25.424 -87.563,23.109 -87.351,20.827C-87.125,18.398 -86.784,15.981 -86.36,13.594C-85.847,10.7 -85.172,7.844 -84.605,4.954C-84.201,2.899 -84.633,1.028 -85.992,-0.537C-86.259,-0.843 -86.35,-1.051 -86.215,-1.453C-85.47,-3.683 -84.763,-5.936 -84.016,-8.178C-83.73,-9.033 -83.377,-9.861 -83.016,-10.805" style="fill:rgb(29,30,27);fill-rule:nonzero;"/>
    </g>
    <g transform="matrix(8.33333,0,0,8.33333,346.674,1236.44)">
        <path d="M0,-35.876C-0.71,-36.117 -1.416,-36.381 -2.133,-36.593C-3.501,-36.997 -4.866,-37.426 -6.249,-37.74C-8.128,-38.164 -10.042,-38.283 -11.894,-37.79C-14.168,-37.19 -16.21,-36.021 -17.526,-33.743C-18.599,-31.892 -19.575,-29.968 -20.508,-28.032C-21.09,-26.826 -21.623,-25.563 -21.988,-24.25C-22.501,-22.409 -22.889,-20.512 -23.236,-18.614C-23.682,-16.19 -23.645,-13.703 -23.229,-11.202C-22.631,-7.589 -20.993,-4.607 -18.572,-2.079C-16.365,0.248 -14.031,2.363 -11.517,4.193L-11.581,4.41C-12.143,4.107 -12.722,3.851 -13.261,3.496C-14.688,2.556 -16.151,1.673 -17.506,0.594C-19.141,-0.7 -20.695,-2.146 -22.256,-3.564C-23.725,-4.89 -25.019,-6.412 -26.06,-8.207C-27.34,-10.399 -27.942,-12.774 -28.174,-15.272C-28.43,-18.019 -28.145,-20.657 -27.58,-23.273C-26.925,-26.315 -25.944,-29.189 -24.525,-31.854C-23.617,-33.563 -22.799,-35.417 -21.598,-36.845C-19.541,-39.302 -16.815,-40.286 -13.757,-40.138C-11.822,-40.046 -9.918,-39.72 -8.066,-39.067C-5.509,-38.16 -2.979,-37.144 -0.439,-36.16C-0.282,-36.099 -0.136,-35.999 0.016,-35.917C0.011,-35.903 0.006,-35.89 0,-35.876" style="fill:white;fill-rule:nonzero;"/>
    </g>
    <g transform="matrix(8.33333,0,0,8.33333,798.798,1183.94)">
        <path d="M0,49.557C-0.599,49.172 -1.207,48.812 -1.797,48.4C-3.748,47.038 -5.624,45.509 -7.311,43.563C-9.219,41.377 -10.744,38.801 -12.058,35.978C-14.484,30.817 -15.335,25.317 -15.048,19.554C-14.916,16.916 -14.751,14.278 -14.476,11.669C-14.229,9.344 -13.888,7.015 -13.041,4.914C-12.032,2.406 -10.609,0.641 -8.246,0.344C-5.561,0 -2.889,0.269 -0.215,0.488C1.573,0.634 3.373,0.854 5.131,1.299C7.176,1.818 9.204,2.517 11.192,3.342C12.674,3.958 14.081,4.898 15.564,5.518C13.814,4.993 12.076,4.368 10.31,3.973C8.309,3.526 6.288,3.193 4.267,2.975C2.306,2.765 0.333,2.676 -1.633,2.688C-3.331,2.697 -5.066,2.783 -6.452,4.32C-7.684,5.682 -8.497,7.42 -8.956,9.444C-9.979,13.953 -10.378,18.6 -10.447,23.319C-10.514,27.788 -10.032,32.17 -8.461,36.343C-7.12,39.932 -5.431,43.222 -3.182,45.958C-2.172,47.195 -1.04,48.246 0.035,49.386C0.023,49.443 0.012,49.5 0,49.557" style="fill:white;fill-rule:nonzero;"/>
    </g>
    <g transform="matrix(8.33333,0,0,8.33333,1146.75,1607.71)">
        <path d="M0,-37.234L46.529,-16.483C46.529,-16.483 50.663,-13.42 50.901,-9.105C50.984,-7.609 51.837,-4.255 52.041,-3.327C52.352,-1.912 51.474,-0.521 50.051,-0.248C48.761,0 47.521,-0.809 47.213,-2.086C46.578,-4.711 45.129,-8.959 42.071,-11.423C38.646,-14.184 -6.31,-25.14 -6.31,-25.14L0,-37.234Z" style="fill:rgb(29,30,27);fill-rule:nonzero;"/>
    </g>
    <g transform="matrix(8.33333,0,0,8.33333,2272.64,2025.01)">
        <path d="M0,76.857C-0.25,76.451 -0.555,76.075 -0.902,75.735C-3.976,72.759 -6.686,69.432 -8.957,65.847C-19.087,49.854 -20.015,29.424 -11.44,12.658C-11.229,12.303 -11.02,11.944 -10.778,11.597C-6.349,5.261 1.343,1.823 9.296,2.624C11.459,2.839 13.492,1.844 14.678,0.15C15.088,-0.437 15.397,-1.113 15.571,-1.846C16.25,-4.699 14.711,-7.61 11.976,-8.663C11.179,-8.964 10.371,-9.245 9.555,-9.499C21.294,-16.302 34.954,-18.408 48.27,-15.419C62.288,-12.269 74.243,-3.851 81.932,8.289C83.826,11.282 85.439,14.491 86.722,17.822C86.955,18.431 87.292,18.988 87.709,19.474C87.678,20.13 87.758,20.8 87.958,21.451C91.021,31.528 91.047,42.225 88.031,52.389C88.012,52.45 87.955,52.717 87.939,52.78C86.184,58.588 83.924,68.429 84.555,79.005C79.183,77.936 72.548,78.461 65.235,82.553C65.056,82.637 64.882,82.734 64.709,82.841C44.565,95.265 19.039,93.187 1.196,77.666C0.824,77.34 0.421,77.073 0,76.857" style="fill:rgb(240,238,232);fill-rule:nonzero;"/>
    </g>
    <g transform="matrix(8.33333,0,0,8.33333,2301.14,2032.14)">
        <path d="M0,76.858C-0.25,76.451 -0.555,76.076 -0.901,75.735C-3.975,72.759 -6.687,69.433 -8.957,65.847C-19.087,49.854 -20.015,29.424 -11.44,12.659C-11.229,12.304 -11.02,11.944 -10.777,11.598C-6.349,5.261 1.343,1.823 9.296,2.625C11.459,2.84 13.493,1.845 14.678,0.15C15.088,-0.436 15.397,-1.112 15.571,-1.846C16.25,-4.698 14.712,-7.609 11.977,-8.662C11.179,-8.963 10.371,-9.245 9.556,-9.499C21.295,-16.301 34.954,-18.407 48.27,-15.418C62.289,-12.268 74.243,-3.851 81.932,8.29C83.827,11.282 85.44,14.492 86.722,17.823C86.956,18.432 87.292,18.988 87.709,19.475C87.678,20.131 87.758,20.8 87.958,21.452C91.021,31.529 91.048,42.226 88.031,52.389C88.013,52.451 87.956,52.717 87.939,52.781C86.185,58.588 83.924,68.43 84.556,79.006C79.184,77.937 72.549,78.461 65.235,82.554C65.057,82.638 64.882,82.734 64.709,82.841C44.565,95.265 19.039,93.188 1.196,77.667C0.824,77.341 0.421,77.073 0,76.858" style="fill:rgb(254,213,0);fill-rule:nonzero;"/>
    </g>
    <g transform="matrix(6.56524,-5.13245,-5.13245,-6.56524,2696.02,2564.69)">
        <path d="M-24.296,-8.988C-34.705,4.915 -39.244,22.337 -35.73,41.095C-33.87,51.025 -29.9,60.465 -24.296,69.123C-33.77,60.702 -40.23,48.841 -41.582,35.233C-43.3,17.924 -36.361,1.759 -24.296,-8.988" style="fill:rgb(29,30,27);fill-rule:nonzero;"/>
    </g>
    <g transform="matrix(8.33333,0,0,8.33333,2272.64,1975.24)">
        <path d="M0,82.83C-0.25,82.424 -0.555,82.048 -0.902,81.708C-3.976,78.732 -6.686,75.405 -8.957,71.82C-19.087,55.827 -20.015,35.397 -11.44,18.631C-11.229,18.276 -11.02,17.917 -10.778,17.57C-6.349,11.234 1.343,7.796 9.296,8.597C11.459,8.812 13.492,7.817 14.678,6.123C15.088,5.536 15.397,4.86 15.571,4.127C16.25,1.274 14.711,-1.637 11.976,-2.69C11.179,-2.991 10.371,-3.272 9.555,-3.526C21.294,-10.329 34.954,-12.435 48.27,-9.446C62.288,-6.296 74.243,2.122 81.932,14.262C83.826,17.255 85.439,20.464 86.722,23.795C86.955,24.404 87.292,24.961 87.709,25.447C87.678,26.103 87.758,26.773 87.958,27.424C91.021,37.501 91.047,48.198 88.031,58.362C88.012,58.423 87.955,58.69 87.939,58.753C86.184,64.561 83.924,74.402 84.555,84.978C79.183,83.909 72.548,84.434 65.235,88.526C65.056,88.61 64.882,88.707 64.709,88.814C44.565,101.238 19.039,99.16 1.196,83.639C0.824,83.313 0.421,83.046 0,82.83ZM-2.641,88.052C16.562,104.756 45.072,107.8 67.781,93.792L67.79,93.8C82.776,85.201 92.239,95.236 92.239,95.236C88.225,82.102 91.383,67.589 93.54,60.439C93.582,60.296 93.604,60.162 93.64,60.022C96.915,48.984 96.999,37.053 93.555,25.724C93.555,25.724 92.63,22.892 92.182,21.694C90.789,18.072 89.026,14.533 86.872,11.129C69.249,-16.698 32.403,-24.97 4.576,-7.348C0.872,-5.001 -2.475,-2.306 -5.471,0.656C-0.367,0.192 4.891,0.861 9.878,2.775C0.144,1.795 -9.699,5.813 -15.574,14.218C-15.945,14.748 -16.261,15.297 -16.588,15.842C-25.874,34.008 -25.606,56.465 -13.899,74.947C-11.312,79.035 -8.3,82.686 -4.971,85.91" style="fill:rgb(29,31,28);fill-rule:nonzero;stroke:rgb(29,30,27);stroke-width:0.56px;"/>
    </g>
    <g transform="matrix(8.33333,0,0,8.33333,2161.63,2746.98)">
        <path d="M0,-20.667C-1.924,-21.054 -16.668,-21.426 -16.668,-21.426L-30.723,-13.352L-33.451,0.759" style="fill:none;fill-rule:nonzero;stroke:rgb(29,30,27);stroke-width:3.88px;stroke-linecap:round;stroke-linejoin:round;"/>
    </g>
    <g transform="matrix(8.33333,0,0,8.33333,1771.1,2713.89)">
        <path d="M0,-9.272L16.141,-9.38L4.877,0.108" style="fill:none;fill-rule:nonzero;stroke:rgb(29,30,27);stroke-width:3.88px;stroke-linecap:round;stroke-linejoin:round;"/>
    </g>
    <g transform="matrix(8.33333,0,0,8.33333,2795.71,2371.5)">
        <path d="M0,13.126L2.188,0L-4.517,2.931" style="fill:none;fill-rule:nonzero;stroke:rgb(29,30,27);stroke-width:4.16px;stroke-linejoin:round;"/>
    </g>
    <g transform="matrix(8.33333,0,0,8.33333,2869.26,2322.61)">
        <path d="M0,-7.513L-1.037,0L7.813,-2.815" style="fill:none;fill-rule:nonzero;stroke:rgb(29,30,27);stroke-width:4.16px;stroke-linejoin:round;"/>
    </g>
</svg>
