<?xml version="1.0" encoding="UTF-8" standalone="no"?>
<!DOCTYPE svg PUBLIC "-//W3C//DTD SVG 1.1//EN" "http://www.w3.org/Graphics/SVG/1.1/DTD/svg11.dtd">
<svg width="100%" height="100%" viewBox="0 0 407 449" version="1.1" xmlns="http://www.w3.org/2000/svg" xmlns:xlink="http://www.w3.org/1999/xlink" xml:space="preserve" xmlns:serif="http://www.serif.com/" style="fill-rule:evenodd;clip-rule:evenodd;stroke-linejoin:round;stroke-miterlimit:2;">
    <path d="M282.725,402.25C262.691,413.147 240.36,420.62 216.406,423.789C111.647,437.631 15.514,363.939 1.672,259.198C-12.178,154.439 61.514,58.306 166.264,44.456C271.006,30.614 367.139,104.306 380.997,209.048C388.323,264.481 371.134,317.502 337.809,357.184L309.107,357.184C301.927,357.184 298.336,363.726 295.943,370.277L282.725,402.25Z" style="fill:rgb(240,238,232);fill-rule:nonzero;"/>
    <g transform="matrix(8.33333,0,0,8.33333,298.507,41.1333)">
        <path d="M0,43.927C-0.043,43.952 -0.086,43.977 -0.128,44.001C0.033,43.347 0.153,42.683 0.229,42.016C0.337,41.061 -0.278,40.173 -1.211,39.94C-2.145,39.704 -3.104,40.198 -3.459,41.091C-4.711,44.241 -7.512,46.465 -10.768,46.896C-10.934,46.917 -11.098,46.926 -11.263,46.936L-11.328,46.94C-19.092,46.878 -26.356,42.74 -30.324,35.932C-36.405,25.493 -32.92,11.952 -22.554,5.747C-22.495,5.712 -22.439,5.674 -22.386,5.634C-19.395,3.672 -18.032,1.227 -17.539,-0.968C-13.785,1.41 -9.64,2.488 -7.185,2.948L-7.052,2.982C-7.028,2.988 -7.005,2.991 -6.981,2.996C-0.685,4.209 4.774,8.075 7.995,13.603C14.151,24.168 10.565,37.771 0,43.927M9.652,12.638C6.007,6.38 -0.025,2.383 -6.619,1.114C-6.676,1.1 -6.729,1.083 -6.788,1.072C-9.753,0.515 -15.545,-1.052 -19.507,-4.936C-19.507,-4.936 -17.669,0.323 -23.541,4.098L-23.539,4.102C-34.842,10.868 -38.631,25.484 -31.98,36.897C-27.494,44.596 -19.397,48.863 -11.085,48.842C-10.896,48.83 -10.707,48.822 -10.517,48.797C-6.409,48.254 -3.138,45.473 -1.677,41.799C-1.92,43.944 -2.658,45.953 -3.773,47.698C-2.154,47.174 -0.565,46.476 0.966,45.584C12.463,38.885 16.352,24.134 9.652,12.638" style="fill:rgb(30,30,28);fill-rule:nonzero;"/>
    </g>
    <g transform="matrix(8.26385,-1.07392,-1.07392,-8.26385,174.685,171.335)">
        <path d="M-0.405,-0.026C-1.157,-0.026 -1.767,1.381 -1.767,3.117C-1.767,4.853 -1.157,6.26 -0.405,6.259C0.348,6.259 0.958,4.853 0.956,3.117C0.957,1.38 0.346,-0.026 -0.405,-0.026" style="fill:rgb(30,30,28);fill-rule:nonzero;"/>
    </g>
    <g transform="matrix(-0.385474,-8.32441,-8.32441,0.385474,221.798,127.381)">
        <path d="M-1.36,-1.425C-3.096,-1.425 -4.504,-0.815 -4.504,-0.062C-4.503,0.69 -3.096,1.299 -1.36,1.299C0.375,1.299 1.783,0.688 1.782,-0.064C1.782,-0.816 0.374,-1.426 -1.36,-1.425" style="fill:rgb(30,30,28);fill-rule:nonzero;"/>
    </g>
    <g transform="matrix(8.33333,0,0,8.33333,304.317,146.945)">
        <path d="M0,9.631C-0.003,9.617 -0.007,9.604 -0.011,9.59C-0.432,9.547 -0.858,9.53 -1.273,9.454C-2.198,9.284 -3.038,8.898 -3.82,8.382C-4.734,7.78 -5.382,6.943 -5.892,5.992C-6.431,4.987 -6.872,3.942 -7.128,2.825C-7.242,2.325 -7.227,1.828 -7.053,1.346C-6.857,0.804 -6.395,0.512 -5.934,0.241C-5.399,-0.07 -4.852,-0.362 -4.293,-0.627C-3.717,-0.899 -3.127,-1.148 -2.529,-1.371C-2.002,-1.567 -1.455,-1.713 -0.917,-1.881C-1.394,-1.773 -1.887,-1.743 -2.362,-1.637C-3.001,-1.494 -3.636,-1.32 -4.253,-1.107C-4.785,-0.924 -5.301,-0.688 -5.806,-0.438C-6.561,-0.065 -7.32,0.298 -8.011,0.793C-8.619,1.229 -8.797,1.828 -8.773,2.524C-8.754,3.107 -8.57,3.658 -8.361,4.194C-8.126,4.794 -7.857,5.383 -7.58,5.965C-6.974,7.238 -6.093,8.259 -4.83,8.928C-4.145,9.292 -3.432,9.564 -2.662,9.685C-1.981,9.791 -1.299,9.777 -0.616,9.712C-0.41,9.693 -0.205,9.658 0,9.631M-24.195,1.221C-24.195,1.217 -24.196,1.213 -24.196,1.209C-24.248,1.213 -24.301,1.211 -24.352,1.221C-25.169,1.369 -25.989,1.506 -26.804,1.672C-27.393,1.791 -27.956,1.997 -28.498,2.263C-29.354,2.684 -29.979,3.333 -30.231,4.246C-30.38,4.781 -30.369,5.363 -30.401,5.926C-30.45,6.807 -30.354,7.674 -30.146,8.533C-29.968,9.274 -29.711,9.975 -29.293,10.614C-28.914,11.194 -28.451,11.682 -27.828,12.007C-27.321,12.273 -26.78,12.426 -26.218,12.5C-25.619,12.578 -25.02,12.663 -24.417,12.695C-23.918,12.722 -23.414,12.682 -22.913,12.66C-22.724,12.652 -22.536,12.613 -22.348,12.588C-22.351,12.568 -22.354,12.547 -22.356,12.526C-23.261,12.523 -24.153,12.416 -25.039,12.233C-26.009,12.031 -26.825,11.581 -27.441,10.797C-27.869,10.253 -28.193,9.65 -28.378,8.982C-28.522,8.46 -28.657,7.932 -28.749,7.399C-28.815,7.02 -28.83,6.626 -28.823,6.239C-28.812,5.62 -28.788,5 -28.728,4.384C-28.653,3.63 -28.241,3.038 -27.693,2.551C-27.247,2.154 -26.708,1.897 -26.14,1.717C-25.722,1.584 -25.294,1.482 -24.869,1.372C-24.646,1.315 -24.42,1.271 -24.195,1.221M-34.392,1.007C-33.795,0.902 -33.208,0.808 -32.625,0.696C-31.843,0.547 -31.063,0.383 -30.282,0.227C-30.021,0.175 -29.761,0.125 -29.5,0.079C-29.144,0.016 -28.787,-0.042 -28.431,-0.105C-27.881,-0.204 -27.333,-0.321 -26.78,-0.402C-25.695,-0.562 -24.604,-0.649 -23.505,-0.678C-22.334,-0.709 -21.165,-0.679 -20.009,-0.505C-19.173,-0.379 -18.353,-0.145 -17.518,-0.006C-16.815,0.111 -16.104,0.194 -15.393,0.234C-14.497,0.283 -13.598,0.242 -12.71,0.092C-11.868,-0.052 -11.042,-0.26 -10.231,-0.537C-9.265,-0.867 -8.364,-1.331 -7.474,-1.824C-6.598,-2.309 -5.654,-2.645 -4.702,-2.934C-3.848,-3.194 -2.973,-3.397 -2.098,-3.579C-1.277,-3.75 -0.447,-3.887 0.385,-3.989C1.209,-4.091 2.042,-4.134 2.871,-4.199C3.339,-4.237 3.808,-4.271 4.276,-4.304C5.105,-4.36 5.936,-4.408 6.765,-4.473C7.129,-4.502 7.491,-4.566 7.882,-4.618C7.91,-4.405 7.931,-4.251 7.951,-4.098C8.054,-3.317 8.159,-2.538 8.257,-1.757C8.264,-1.697 8.239,-1.6 8.196,-1.573C7.515,-1.139 7.354,-0.5 7.432,0.257C7.471,0.639 7.458,1.027 7.457,1.412C7.455,1.932 7.452,2.452 7.433,2.973C7.418,3.376 7.396,3.78 7.343,4.181C7.239,4.966 7.138,5.753 6.985,6.529C6.892,7.01 6.764,7.501 6.437,7.889C6.155,8.223 5.853,8.546 5.523,8.834C4.856,9.42 4.092,9.86 3.275,10.205C2.608,10.487 1.93,10.734 1.21,10.847C0.678,10.93 0.148,11.035 -0.387,11.094C-1.223,11.186 -2.063,11.201 -2.901,11.119C-3.483,11.062 -4.069,11.015 -4.644,10.91C-5.317,10.788 -5.918,10.466 -6.493,10.101C-7.451,9.493 -8.237,8.705 -8.925,7.809C-9.7,6.798 -10.3,5.691 -10.783,4.516C-10.92,4.182 -11.02,3.818 -11.224,3.53C-11.56,3.059 -12.066,2.822 -12.648,2.875C-13.052,2.911 -13.362,3.164 -13.632,3.47C-13.951,3.832 -14.01,4.269 -14.034,4.717C-14.077,5.529 -14.267,6.314 -14.471,7.096C-14.667,7.85 -14.947,8.571 -15.287,9.272C-15.8,10.328 -16.466,11.271 -17.35,12.05C-17.887,12.525 -18.496,12.876 -19.18,13.093C-19.924,13.329 -20.66,13.598 -21.417,13.785C-22.096,13.954 -22.794,14.058 -23.49,14.147C-24.297,14.249 -25.108,14.229 -25.917,14.129C-27.104,13.983 -28.226,13.632 -29.277,13.052C-29.969,12.67 -30.411,12.077 -30.75,11.398C-31.041,10.815 -31.313,10.22 -31.547,9.612C-31.795,8.965 -32.011,8.304 -32.199,7.637C-32.428,6.829 -32.607,6.008 -32.82,5.196C-32.972,4.619 -33.329,4.215 -33.901,4.025C-34.013,3.987 -34.064,3.949 -34.079,3.827C-34.159,3.154 -34.252,2.484 -34.332,1.812C-34.363,1.555 -34.371,1.296 -34.392,1.007" style="fill:rgb(30,30,28);fill-rule:nonzero;"/>
    </g>
    <g transform="matrix(8.33333,0,0,8.33333,102.69,252.86)">
        <path d="M0,-11.489C-0.225,-11.439 -0.451,-11.395 -0.674,-11.338C-1.099,-11.228 -1.526,-11.126 -1.944,-10.993C-2.513,-10.813 -3.052,-10.555 -3.498,-10.159C-4.046,-9.672 -4.458,-9.08 -4.532,-8.326C-4.593,-7.71 -4.617,-7.09 -4.628,-6.47C-4.635,-6.084 -4.62,-5.69 -4.554,-5.311C-4.462,-4.778 -4.327,-4.25 -4.183,-3.728C-3.998,-3.06 -3.674,-2.457 -3.246,-1.913C-2.63,-1.129 -1.813,-0.678 -0.844,-0.477C0.042,-0.294 0.935,-0.187 1.839,-0.184C1.842,-0.163 1.845,-0.142 1.848,-0.122C1.659,-0.096 1.472,-0.057 1.282,-0.05C0.781,-0.028 0.277,0.012 -0.222,-0.014C-0.824,-0.047 -1.424,-0.132 -2.022,-0.21C-2.585,-0.284 -3.126,-0.437 -3.633,-0.703C-4.256,-1.028 -4.719,-1.515 -5.098,-2.095C-5.516,-2.735 -5.772,-3.436 -5.951,-4.177C-6.158,-5.036 -6.255,-5.903 -6.206,-6.784C-6.174,-7.346 -6.185,-7.928 -6.036,-8.464C-5.783,-9.377 -5.159,-10.026 -4.303,-10.447C-3.761,-10.713 -3.197,-10.919 -2.608,-11.038C-1.794,-11.204 -0.974,-11.341 -0.156,-11.489C-0.105,-11.499 -0.053,-11.497 -0.001,-11.501C-0.001,-11.497 0,-11.493 0,-11.489" style="fill:rgb(240,238,232);fill-rule:nonzero;"/>
    </g>
    <g transform="matrix(8.33333,0,0,8.33333,304.317,132.603)">
        <path d="M0,11.352C-0.205,11.379 -0.41,11.414 -0.616,11.433C-1.299,11.498 -1.981,11.512 -2.662,11.406C-3.432,11.285 -4.145,11.013 -4.83,10.649C-6.093,9.98 -6.974,8.959 -7.58,7.686C-7.857,7.104 -8.126,6.515 -8.361,5.915C-8.57,5.379 -8.754,4.828 -8.773,4.245C-8.797,3.549 -8.619,2.95 -8.011,2.514C-7.32,2.019 -6.561,1.656 -5.806,1.283C-5.301,1.033 -4.785,0.797 -4.253,0.614C-3.636,0.401 -3.001,0.227 -2.362,0.084C-1.887,-0.022 -1.394,-0.052 -0.917,-0.16C-1.455,0.008 -2.002,0.154 -2.529,0.35C-3.127,0.573 -3.717,0.822 -4.293,1.094C-4.852,1.359 -5.399,1.651 -5.934,1.962C-6.395,2.233 -6.857,2.525 -7.053,3.067C-7.227,3.549 -7.242,4.046 -7.128,4.546C-6.872,5.663 -6.431,6.708 -5.892,7.713C-5.382,8.664 -4.734,9.501 -3.82,10.103C-3.038,10.619 -2.198,11.005 -1.273,11.175C-0.858,11.251 -0.432,11.268 -0.011,11.311C-0.007,11.325 -0.003,11.338 0,11.352" style="fill:rgb(240,238,232);fill-rule:nonzero;"/>
    </g>
    <g transform="matrix(8.33333,0,0,8.33333,140.41,87.8467)">
        <path d="M0,3.505C0,3.505 0.998,0.937 2.785,1.082C2.785,1.082 0.492,0 0,3.505" style="fill:rgb(30,30,28);fill-rule:nonzero;"/>
    </g>
</svg>
