<?xml version="1.0" encoding="UTF-8" standalone="no"?>
<!DOCTYPE svg PUBLIC "-//W3C//DTD SVG 1.1//EN" "http://www.w3.org/Graphics/SVG/1.1/DTD/svg11.dtd">
<svg width="100%" height="100%" viewBox="0 0 52 1646" version="1.1" xmlns="http://www.w3.org/2000/svg" xmlns:xlink="http://www.w3.org/1999/xlink" xml:space="preserve" xmlns:serif="http://www.serif.com/" style="fill-rule:evenodd;clip-rule:evenodd;stroke-linejoin:round;stroke-miterlimit:2;">
    <g transform="matrix(8.33333,0,0,8.33333,10.3835,5.48595)">
        <path d="M0,4.497C-0.188,4.424 -0.389,4.338 -0.579,4.168C-0.941,3.845 -1.131,3.388 -1.159,2.771C-1.181,2.294 -1.098,1.819 -0.919,1.399C-0.659,0.788 -0.204,0.291 0.362,0C0.753,-0.201 1.159,-0.289 1.552,-0.374C1.646,-0.395 1.741,-0.415 1.835,-0.438C2.003,-0.477 2.136,-0.514 2.253,-0.555C2.267,-0.559 2.281,-0.565 2.297,-0.57C2.432,-0.623 2.658,-0.71 2.893,-0.618C2.917,-0.609 2.94,-0.598 2.964,-0.585L3.008,-0.561L3.045,-0.525C3.071,-0.5 3.303,-0.273 3.412,0.03C3.47,0.147 3.584,0.351 3.675,0.453L3.69,0.473C3.708,0.494 4.12,1.022 4.322,1.341C4.603,1.781 4.695,2.34 4.592,2.956C4.548,3.218 4.471,3.479 4.362,3.733C4.248,4.002 4.117,4.223 3.964,4.409C3.55,4.912 2.853,5.207 2.229,5.142C2.075,5.125 1.921,5.087 1.758,5.023C1.529,4.935 1.324,4.811 1.19,4.726C1.169,4.713 1.146,4.697 1.121,4.682C0.887,4.682 0.417,4.659 0,4.497" style="fill:rgb(30,30,28);fill-rule:nonzero;"/>
    </g>
    <g transform="matrix(8.33333,0,0,8.33333,40.926,106.051)">
        <path d="M0,-4.855C0.192,-4.794 0.398,-4.722 0.6,-4.565C0.983,-4.266 1.203,-3.823 1.271,-3.21C1.324,-2.736 1.273,-2.256 1.123,-1.825C0.905,-1.199 0.484,-0.672 -0.062,-0.343C-0.437,-0.117 -0.837,-0.001 -1.224,0.109C-1.316,0.136 -1.409,0.163 -1.502,0.191C-1.667,0.242 -1.797,0.288 -1.911,0.335C-1.925,0.341 -1.938,0.348 -1.954,0.355C-2.085,0.416 -2.305,0.518 -2.545,0.443C-2.57,0.435 -2.595,0.425 -2.618,0.414L-2.664,0.392L-2.703,0.359C-2.731,0.335 -2.978,0.124 -3.106,-0.169C-3.172,-0.284 -3.3,-0.479 -3.396,-0.575L-3.414,-0.592C-3.433,-0.614 -3.879,-1.113 -4.103,-1.417C-4.411,-1.837 -4.541,-2.389 -4.479,-3.011C-4.452,-3.275 -4.393,-3.541 -4.302,-3.802C-4.205,-4.077 -4.09,-4.306 -3.949,-4.502C-3.569,-5.032 -2.894,-5.373 -2.268,-5.349C-2.112,-5.343 -1.955,-5.315 -1.789,-5.263C-1.556,-5.19 -1.343,-5.081 -1.203,-5.004C-1.181,-4.992 -1.156,-4.978 -1.131,-4.964C-0.896,-4.98 -0.427,-4.989 0,-4.855" style="fill:rgb(30,30,28);fill-rule:nonzero;"/>
    </g>
    <g transform="matrix(8.33333,0,0,8.33333,39.1593,130.021)">
        <path d="M0,4.416C-0.124,4.576 -0.263,4.743 -0.48,4.878C-0.895,5.133 -1.386,5.185 -1.984,5.036C-2.448,4.921 -2.879,4.706 -3.231,4.415C-3.743,3.992 -4.09,3.414 -4.208,2.788C-4.289,2.356 -4.258,1.942 -4.228,1.541C-4.22,1.445 -4.213,1.349 -4.207,1.252C-4.197,1.079 -4.195,0.941 -4.2,0.817C-4.201,0.804 -4.202,0.788 -4.203,0.771C-4.215,0.627 -4.234,0.386 -4.08,0.187C-4.063,0.166 -4.046,0.146 -4.027,0.128L-3.991,0.093L-3.946,0.067C-3.915,0.049 -3.632,-0.108 -3.311,-0.126C-3.181,-0.148 -2.953,-0.2 -2.829,-0.258L-2.807,-0.268C-2.78,-0.278 -2.156,-0.522 -1.794,-0.626C-1.293,-0.769 -0.73,-0.699 -0.169,-0.424C0.069,-0.308 0.298,-0.158 0.511,0.018C0.735,0.203 0.91,0.392 1.045,0.592C1.409,1.133 1.492,1.885 1.253,2.464C1.193,2.606 1.112,2.744 1.005,2.882C0.855,3.075 0.679,3.236 0.559,3.341C0.539,3.357 0.519,3.376 0.496,3.395C0.429,3.619 0.273,4.063 0,4.416" style="fill:rgb(30,30,28);fill-rule:nonzero;"/>
    </g>
    <g transform="matrix(8.33333,0,0,8.33333,5.73681,196.159)">
        <path d="M0,2.747C-0.159,2.622 -0.325,2.48 -0.457,2.262C-0.708,1.846 -0.754,1.353 -0.599,0.757C-0.479,0.294 -0.259,-0.135 0.036,-0.484C0.464,-0.991 1.045,-1.331 1.673,-1.443C2.105,-1.52 2.52,-1.483 2.92,-1.449C3.017,-1.44 3.112,-1.432 3.209,-1.426C3.382,-1.413 3.52,-1.41 3.644,-1.414C3.657,-1.415 3.673,-1.416 3.689,-1.417C3.834,-1.427 4.076,-1.443 4.273,-1.287C4.294,-1.271 4.312,-1.253 4.331,-1.233L4.366,-1.197L4.391,-1.152C4.409,-1.12 4.562,-0.835 4.577,-0.514C4.599,-0.384 4.647,-0.156 4.704,-0.031L4.714,-0.009C4.724,0.018 4.962,0.643 5.061,1.008C5.198,1.511 5.122,2.071 4.841,2.631C4.722,2.867 4.571,3.095 4.393,3.306C4.204,3.527 4.015,3.7 3.813,3.833C3.269,4.191 2.516,4.267 1.938,4.02C1.796,3.96 1.66,3.878 1.523,3.768C1.331,3.617 1.172,3.438 1.069,3.317C1.053,3.298 1.034,3.277 1.017,3.254C0.792,3.185 0.35,3.025 0,2.747" style="fill:rgb(30,30,28);fill-rule:nonzero;"/>
    </g>
    <g transform="matrix(8.33333,0,0,8.33333,21.6793,289.263)">
        <path d="M0,-5.191C0.174,-5.295 0.364,-5.4 0.615,-5.446C1.094,-5.534 1.571,-5.404 2.074,-5.047C2.465,-4.772 2.788,-4.415 3.011,-4.016C3.334,-3.437 3.447,-2.772 3.33,-2.146C3.25,-1.714 3.07,-1.339 2.896,-0.977C2.854,-0.89 2.813,-0.802 2.771,-0.714C2.7,-0.557 2.647,-0.43 2.608,-0.313C2.604,-0.299 2.599,-0.284 2.594,-0.268C2.553,-0.129 2.482,0.102 2.267,0.232C2.244,0.246 2.221,0.257 2.196,0.267L2.149,0.288L2.1,0.294C2.063,0.3 1.742,0.343 1.436,0.244C1.307,0.217 1.076,0.183 0.94,0.192L0.916,0.193C0.888,0.193 0.217,0.195 -0.158,0.16C-0.677,0.11 -1.176,-0.159 -1.599,-0.62C-1.778,-0.814 -1.937,-1.036 -2.072,-1.277C-2.214,-1.532 -2.309,-1.77 -2.361,-2.006C-2.505,-2.642 -2.31,-3.373 -1.876,-3.826C-1.769,-3.938 -1.644,-4.036 -1.493,-4.126C-1.283,-4.252 -1.061,-4.337 -0.91,-4.391C-0.887,-4.4 -0.86,-4.409 -0.833,-4.419C-0.688,-4.604 -0.383,-4.961 0,-5.191" style="fill:rgb(30,30,28);fill-rule:nonzero;"/>
    </g>
    <g transform="matrix(8.33333,0,0,8.33333,24.2426,305.786)">
        <path d="M0,5.752C-0.195,5.805 -0.407,5.855 -0.661,5.831C-1.146,5.785 -1.568,5.529 -1.956,5.05C-2.257,4.678 -2.471,4.247 -2.576,3.802C-2.729,3.156 -2.658,2.486 -2.374,1.916C-2.179,1.523 -1.904,1.211 -1.638,0.909C-1.574,0.837 -1.51,0.765 -1.447,0.69C-1.335,0.56 -1.25,0.45 -1.18,0.349C-1.172,0.337 -1.163,0.323 -1.154,0.31C-1.076,0.188 -0.946,-0.017 -0.703,-0.082C-0.678,-0.089 -0.652,-0.094 -0.626,-0.098L-0.575,-0.103L-0.525,-0.097C-0.488,-0.093 -0.168,-0.047 0.1,0.132C0.217,0.192 0.429,0.289 0.562,0.317L0.586,0.323C0.613,0.331 1.259,0.512 1.61,0.648C2.097,0.837 2.502,1.231 2.784,1.79C2.904,2.026 2.997,2.282 3.061,2.552C3.127,2.835 3.153,3.091 3.141,3.332C3.104,3.982 2.718,4.633 2.178,4.95C2.043,5.028 1.896,5.089 1.728,5.135C1.491,5.198 1.253,5.221 1.095,5.231C1.069,5.233 1.041,5.234 1.013,5.236C0.823,5.376 0.432,5.636 0,5.752" style="fill:rgb(30,30,28);fill-rule:nonzero;"/>
    </g>
    <g transform="matrix(8.33333,0,0,8.33333,47.0618,381.406)">
        <path d="M0,2.662C-0.037,2.86 -0.085,3.073 -0.217,3.292C-0.469,3.708 -0.883,3.978 -1.482,4.119C-1.948,4.228 -2.43,4.234 -2.876,4.137C-3.523,3.994 -4.097,3.639 -4.487,3.136C-4.757,2.789 -4.918,2.406 -5.074,2.035C-5.111,1.946 -5.149,1.856 -5.188,1.768C-5.258,1.61 -5.319,1.486 -5.381,1.379C-5.388,1.366 -5.396,1.353 -5.405,1.339C-5.48,1.216 -5.608,1.01 -5.562,0.763C-5.557,0.736 -5.55,0.711 -5.542,0.686L-5.525,0.639L-5.498,0.596C-5.478,0.564 -5.298,0.296 -5.021,0.133C-4.915,0.054 -4.736,-0.097 -4.652,-0.204L-4.637,-0.223C-4.618,-0.244 -4.175,-0.747 -3.899,-1.004C-3.519,-1.36 -2.986,-1.555 -2.361,-1.567C-2.097,-1.572 -1.825,-1.544 -1.555,-1.484C-1.271,-1.422 -1.029,-1.334 -0.817,-1.218C-0.247,-0.903 0.171,-0.273 0.222,0.352C0.234,0.507 0.226,0.666 0.193,0.838C0.148,1.078 0.064,1.302 0.005,1.45C-0.004,1.474 -0.015,1.499 -0.026,1.526C0.018,1.757 0.082,2.223 0,2.662" style="fill:rgb(30,30,28);fill-rule:nonzero;"/>
    </g>
    <g transform="matrix(8.33333,0,0,8.33333,30.6226,492.747)">
        <path d="M0,5.221C-0.175,5.324 -0.366,5.427 -0.618,5.47C-1.098,5.553 -1.573,5.417 -2.072,5.056C-2.46,4.776 -2.779,4.416 -2.998,4.015C-3.315,3.432 -3.422,2.767 -3.298,2.141C-3.212,1.71 -3.028,1.338 -2.851,0.977C-2.808,0.89 -2.765,0.804 -2.724,0.716C-2.65,0.56 -2.597,0.433 -2.556,0.316C-2.551,0.302 -2.547,0.287 -2.541,0.272C-2.498,0.133 -2.426,-0.098 -2.209,-0.225C-2.186,-0.238 -2.162,-0.25 -2.138,-0.26L-2.091,-0.279L-2.041,-0.286C-2.004,-0.291 -1.683,-0.332 -1.378,-0.228C-1.249,-0.201 -1.019,-0.164 -0.883,-0.172L-0.858,-0.172C-0.83,-0.172 -0.16,-0.166 0.215,-0.127C0.733,-0.072 1.229,0.202 1.647,0.667C1.825,0.864 1.982,1.087 2.114,1.33C2.253,1.586 2.345,1.825 2.396,2.062C2.532,2.7 2.329,3.428 1.891,3.876C1.781,3.987 1.655,4.083 1.505,4.172C1.294,4.295 1.069,4.379 0.919,4.431C0.895,4.44 0.869,4.449 0.841,4.457C0.695,4.642 0.386,4.995 0,5.221" style="fill:rgb(30,30,28);fill-rule:nonzero;"/>
    </g>
    <g transform="matrix(8.33333,0,0,8.33333,2.15598,451.676)">
        <path d="M0,-0.124C-0.064,-0.315 -0.126,-0.524 -0.116,-0.78C-0.099,-1.266 0.132,-1.703 0.589,-2.117C0.942,-2.438 1.361,-2.678 1.799,-2.809C2.435,-2.998 3.107,-2.965 3.693,-2.715C4.098,-2.543 4.424,-2.286 4.74,-2.038C4.816,-1.978 4.893,-1.918 4.97,-1.859C5.107,-1.756 5.221,-1.677 5.326,-1.612C5.339,-1.605 5.353,-1.598 5.367,-1.59C5.493,-1.519 5.705,-1.4 5.784,-1.161C5.793,-1.137 5.799,-1.111 5.804,-1.085L5.812,-1.035L5.81,-0.984C5.807,-0.947 5.779,-0.625 5.616,-0.348C5.562,-0.228 5.479,-0.01 5.458,0.125L5.453,0.149C5.447,0.177 5.304,0.831 5.187,1.19C5.027,1.687 4.657,2.114 4.116,2.428C3.887,2.562 3.636,2.669 3.371,2.747C3.092,2.83 2.838,2.871 2.597,2.872C1.945,2.874 1.273,2.524 0.926,2.004C0.84,1.874 0.771,1.73 0.716,1.564C0.639,1.333 0.603,1.097 0.583,0.938C0.579,0.913 0.576,0.886 0.573,0.856C0.423,0.676 0.141,0.3 0,-0.124" style="fill:rgb(30,30,28);fill-rule:nonzero;"/>
    </g>
    <g transform="matrix(8.33333,0,0,8.33333,10.3835,566.553)">
        <path d="M0,4.497C-0.188,4.424 -0.389,4.339 -0.579,4.168C-0.941,3.845 -1.131,3.388 -1.159,2.771C-1.181,2.294 -1.098,1.819 -0.919,1.399C-0.659,0.788 -0.204,0.292 0.362,0C0.753,-0.201 1.159,-0.289 1.552,-0.374C1.646,-0.395 1.741,-0.415 1.835,-0.437C2.003,-0.477 2.136,-0.514 2.253,-0.554C2.267,-0.559 2.281,-0.565 2.297,-0.57C2.432,-0.623 2.658,-0.71 2.893,-0.618C2.917,-0.609 2.94,-0.598 2.964,-0.585L3.008,-0.56L3.045,-0.525C3.071,-0.499 3.303,-0.273 3.412,0.03C3.47,0.147 3.584,0.351 3.675,0.453L3.69,0.473C3.708,0.495 4.12,1.022 4.322,1.341C4.603,1.781 4.695,2.34 4.592,2.956C4.548,3.218 4.471,3.479 4.362,3.733C4.248,4.002 4.117,4.223 3.964,4.409C3.55,4.912 2.853,5.207 2.229,5.142C2.075,5.126 1.921,5.087 1.758,5.023C1.529,4.935 1.324,4.811 1.19,4.726C1.169,4.713 1.146,4.697 1.121,4.682C0.887,4.682 0.417,4.659 0,4.497" style="fill:rgb(30,30,28);fill-rule:nonzero;"/>
    </g>
    <g transform="matrix(8.33333,0,0,8.33333,40.926,667.118)">
        <path d="M0,-4.855C0.192,-4.794 0.398,-4.722 0.6,-4.565C0.983,-4.266 1.203,-3.823 1.271,-3.21C1.324,-2.736 1.273,-2.256 1.123,-1.825C0.905,-1.198 0.484,-0.672 -0.062,-0.343C-0.437,-0.117 -0.837,-0.001 -1.224,0.109C-1.316,0.136 -1.409,0.163 -1.502,0.191C-1.667,0.242 -1.797,0.288 -1.911,0.335C-1.925,0.341 -1.938,0.348 -1.954,0.355C-2.085,0.416 -2.305,0.518 -2.545,0.443C-2.57,0.435 -2.595,0.425 -2.618,0.414L-2.664,0.392L-2.703,0.36C-2.731,0.335 -2.978,0.125 -3.106,-0.169C-3.172,-0.284 -3.3,-0.479 -3.396,-0.575L-3.414,-0.592C-3.433,-0.614 -3.879,-1.113 -4.103,-1.417C-4.411,-1.837 -4.541,-2.388 -4.479,-3.011C-4.452,-3.275 -4.393,-3.541 -4.302,-3.802C-4.205,-4.077 -4.09,-4.306 -3.949,-4.502C-3.569,-5.032 -2.894,-5.373 -2.268,-5.349C-2.112,-5.343 -1.955,-5.315 -1.789,-5.262C-1.556,-5.19 -1.343,-5.08 -1.203,-5.003C-1.181,-4.992 -1.156,-4.978 -1.131,-4.963C-0.896,-4.98 -0.427,-4.989 0,-4.855" style="fill:rgb(30,30,28);fill-rule:nonzero;"/>
    </g>
    <g transform="matrix(8.33333,0,0,8.33333,39.1593,691.089)">
        <path d="M0,4.416C-0.124,4.576 -0.263,4.744 -0.48,4.878C-0.895,5.133 -1.386,5.185 -1.984,5.036C-2.448,4.921 -2.879,4.706 -3.231,4.415C-3.743,3.992 -4.09,3.415 -4.208,2.788C-4.289,2.356 -4.258,1.942 -4.228,1.542C-4.22,1.445 -4.213,1.349 -4.207,1.252C-4.197,1.079 -4.195,0.941 -4.2,0.817C-4.201,0.804 -4.202,0.788 -4.203,0.771C-4.215,0.627 -4.234,0.386 -4.08,0.187C-4.063,0.166 -4.046,0.146 -4.027,0.128L-3.991,0.093L-3.946,0.067C-3.915,0.049 -3.632,-0.108 -3.311,-0.126C-3.181,-0.148 -2.953,-0.2 -2.829,-0.258L-2.807,-0.268C-2.78,-0.278 -2.156,-0.522 -1.794,-0.626C-1.293,-0.769 -0.73,-0.698 -0.169,-0.424C0.069,-0.307 0.298,-0.158 0.511,0.018C0.735,0.204 0.91,0.392 1.045,0.592C1.409,1.133 1.492,1.885 1.253,2.464C1.193,2.607 1.112,2.744 1.005,2.882C0.855,3.075 0.679,3.236 0.559,3.341C0.539,3.357 0.519,3.376 0.496,3.395C0.429,3.62 0.273,4.063 0,4.416" style="fill:rgb(30,30,28);fill-rule:nonzero;"/>
    </g>
    <g transform="matrix(8.33333,0,0,8.33333,5.73681,757.227)">
        <path d="M0,2.748C-0.159,2.622 -0.325,2.481 -0.457,2.262C-0.708,1.846 -0.754,1.353 -0.599,0.757C-0.479,0.294 -0.259,-0.135 0.036,-0.483C0.464,-0.991 1.045,-1.331 1.673,-1.442C2.105,-1.52 2.52,-1.483 2.92,-1.449C3.017,-1.44 3.112,-1.432 3.209,-1.426C3.382,-1.413 3.52,-1.41 3.644,-1.414C3.657,-1.414 3.673,-1.416 3.689,-1.417C3.834,-1.427 4.076,-1.443 4.273,-1.287C4.294,-1.271 4.312,-1.253 4.331,-1.233L4.366,-1.196L4.391,-1.152C4.409,-1.12 4.562,-0.835 4.577,-0.514C4.599,-0.384 4.647,-0.156 4.704,-0.031L4.714,-0.009C4.724,0.018 4.962,0.644 5.061,1.008C5.198,1.511 5.122,2.071 4.841,2.631C4.722,2.867 4.571,3.095 4.393,3.306C4.204,3.527 4.015,3.7 3.813,3.833C3.269,4.191 2.516,4.268 1.938,4.021C1.796,3.96 1.66,3.878 1.523,3.769C1.331,3.617 1.172,3.438 1.069,3.317C1.053,3.298 1.034,3.277 1.017,3.255C0.792,3.185 0.35,3.025 0,2.748" style="fill:rgb(30,30,28);fill-rule:nonzero;"/>
    </g>
    <g transform="matrix(8.33333,0,0,8.33333,21.6793,850.322)">
        <path d="M0,-5.189C0.174,-5.293 0.364,-5.399 0.615,-5.445C1.094,-5.533 1.571,-5.402 2.074,-5.046C2.465,-4.771 2.788,-4.414 3.011,-4.015C3.334,-3.435 3.447,-2.771 3.33,-2.145C3.25,-1.713 3.07,-1.338 2.896,-0.976C2.854,-0.889 2.813,-0.801 2.771,-0.713C2.7,-0.556 2.647,-0.429 2.608,-0.312C2.604,-0.298 2.599,-0.283 2.594,-0.267C2.553,-0.128 2.482,0.103 2.267,0.233C2.244,0.247 2.221,0.258 2.196,0.269L2.149,0.289L2.1,0.295C2.063,0.301 1.742,0.344 1.436,0.245C1.307,0.219 1.076,0.184 0.94,0.193L0.916,0.194C0.888,0.194 0.217,0.196 -0.158,0.161C-0.677,0.111 -1.176,-0.158 -1.599,-0.618C-1.778,-0.813 -1.937,-1.035 -2.072,-1.276C-2.214,-1.531 -2.309,-1.769 -2.361,-2.005C-2.505,-2.641 -2.31,-3.372 -1.876,-3.825C-1.769,-3.936 -1.644,-4.035 -1.493,-4.125C-1.283,-4.251 -1.061,-4.336 -0.91,-4.39C-0.887,-4.399 -0.86,-4.408 -0.833,-4.418C-0.688,-4.603 -0.383,-4.96 0,-5.189" style="fill:rgb(30,30,28);fill-rule:nonzero;"/>
    </g>
    <g transform="matrix(8.33333,0,0,8.33333,24.2426,866.853)">
        <path d="M0,5.752C-0.195,5.806 -0.407,5.855 -0.661,5.831C-1.146,5.785 -1.568,5.529 -1.956,5.05C-2.257,4.678 -2.471,4.247 -2.576,3.802C-2.729,3.156 -2.658,2.486 -2.374,1.916C-2.179,1.523 -1.904,1.211 -1.638,0.91C-1.574,0.837 -1.51,0.765 -1.447,0.691C-1.335,0.56 -1.25,0.45 -1.18,0.349C-1.172,0.337 -1.163,0.323 -1.154,0.31C-1.076,0.188 -0.946,-0.017 -0.703,-0.082C-0.678,-0.089 -0.652,-0.094 -0.626,-0.098L-0.575,-0.103L-0.525,-0.097C-0.488,-0.093 -0.168,-0.047 0.1,0.133C0.217,0.192 0.429,0.289 0.562,0.317L0.586,0.323C0.613,0.331 1.259,0.512 1.61,0.648C2.097,0.837 2.502,1.231 2.784,1.79C2.904,2.026 2.997,2.282 3.061,2.552C3.127,2.835 3.153,3.091 3.141,3.332C3.104,3.982 2.718,4.633 2.178,4.95C2.043,5.028 1.896,5.089 1.728,5.135C1.491,5.198 1.253,5.221 1.095,5.231C1.069,5.233 1.041,5.235 1.013,5.236C0.823,5.376 0.432,5.636 0,5.752" style="fill:rgb(30,30,28);fill-rule:nonzero;"/>
    </g>
    <g transform="matrix(8.33333,0,0,8.33333,47.0618,942.482)">
        <path d="M0,2.661C-0.037,2.859 -0.085,3.072 -0.217,3.291C-0.469,3.707 -0.883,3.977 -1.482,4.118C-1.948,4.227 -2.43,4.233 -2.876,4.136C-3.523,3.993 -4.097,3.638 -4.487,3.135C-4.757,2.788 -4.918,2.405 -5.074,2.034C-5.111,1.945 -5.149,1.856 -5.188,1.767C-5.258,1.609 -5.319,1.485 -5.381,1.378C-5.388,1.366 -5.396,1.352 -5.405,1.338C-5.48,1.215 -5.608,1.009 -5.562,0.762C-5.557,0.735 -5.55,0.711 -5.542,0.685L-5.525,0.638L-5.498,0.595C-5.478,0.563 -5.298,0.295 -5.021,0.132C-4.915,0.053 -4.736,-0.097 -4.652,-0.205L-4.637,-0.224C-4.618,-0.245 -4.175,-0.748 -3.899,-1.005C-3.519,-1.361 -2.986,-1.556 -2.361,-1.568C-2.097,-1.572 -1.825,-1.545 -1.555,-1.485C-1.271,-1.423 -1.029,-1.335 -0.817,-1.219C-0.247,-0.904 0.171,-0.274 0.222,0.351C0.234,0.506 0.226,0.665 0.193,0.837C0.148,1.077 0.064,1.302 0.005,1.449C-0.004,1.473 -0.015,1.498 -0.026,1.525C0.018,1.756 0.082,2.222 0,2.661" style="fill:rgb(30,30,28);fill-rule:nonzero;"/>
    </g>
    <g transform="matrix(8.33333,0,0,8.33333,30.6226,1053.82)">
        <path d="M0,5.22C-0.175,5.323 -0.366,5.426 -0.618,5.469C-1.098,5.552 -1.573,5.416 -2.072,5.055C-2.46,4.775 -2.779,4.415 -2.998,4.014C-3.315,3.431 -3.422,2.766 -3.298,2.14C-3.212,1.709 -3.028,1.337 -2.851,0.976C-2.808,0.89 -2.765,0.803 -2.724,0.715C-2.65,0.559 -2.597,0.432 -2.556,0.315C-2.551,0.301 -2.547,0.286 -2.541,0.271C-2.498,0.132 -2.426,-0.098 -2.209,-0.226C-2.186,-0.239 -2.162,-0.251 -2.138,-0.26L-2.091,-0.28L-2.041,-0.287C-2.004,-0.292 -1.683,-0.332 -1.378,-0.229C-1.249,-0.202 -1.019,-0.165 -0.883,-0.172L-0.858,-0.173C-0.83,-0.173 -0.16,-0.167 0.215,-0.128C0.733,-0.073 1.229,0.201 1.647,0.666C1.825,0.863 1.982,1.086 2.114,1.329C2.253,1.585 2.345,1.824 2.396,2.061C2.532,2.699 2.329,3.427 1.891,3.875C1.781,3.986 1.655,4.083 1.505,4.171C1.294,4.294 1.069,4.378 0.919,4.43C0.895,4.439 0.869,4.448 0.841,4.456C0.695,4.641 0.386,4.994 0,5.22" style="fill:rgb(30,30,28);fill-rule:nonzero;"/>
    </g>
    <g transform="matrix(8.33333,0,0,8.33333,2.15598,1012.74)">
        <path d="M0,-0.124C-0.064,-0.315 -0.126,-0.524 -0.116,-0.78C-0.099,-1.266 0.132,-1.703 0.589,-2.117C0.942,-2.438 1.361,-2.678 1.799,-2.809C2.435,-2.998 3.107,-2.965 3.693,-2.715C4.098,-2.543 4.424,-2.286 4.74,-2.038C4.816,-1.978 4.893,-1.918 4.97,-1.859C5.107,-1.755 5.221,-1.677 5.326,-1.612C5.339,-1.605 5.353,-1.598 5.367,-1.589C5.493,-1.519 5.705,-1.4 5.784,-1.161C5.793,-1.137 5.799,-1.111 5.804,-1.085L5.812,-1.035L5.81,-0.984C5.807,-0.947 5.779,-0.625 5.616,-0.348C5.562,-0.228 5.479,-0.01 5.458,0.125L5.453,0.149C5.447,0.177 5.304,0.831 5.187,1.19C5.027,1.687 4.657,2.114 4.116,2.428C3.887,2.562 3.636,2.669 3.371,2.747C3.092,2.83 2.838,2.871 2.597,2.872C1.945,2.874 1.273,2.525 0.926,2.004C0.84,1.874 0.771,1.73 0.716,1.565C0.639,1.333 0.603,1.097 0.583,0.938C0.579,0.913 0.576,0.886 0.573,0.856C0.423,0.676 0.141,0.3 0,-0.124" style="fill:rgb(30,30,28);fill-rule:nonzero;"/>
    </g>
    <g transform="matrix(8.33333,0,0,8.33333,10.3835,1112.1)">
        <path d="M0,4.498C-0.188,4.425 -0.389,4.339 -0.579,4.169C-0.941,3.845 -1.131,3.388 -1.159,2.772C-1.181,2.295 -1.098,1.82 -0.919,1.399C-0.659,0.789 -0.204,0.292 0.362,-0C0.753,-0.2 1.159,-0.288 1.552,-0.374C1.646,-0.394 1.741,-0.414 1.835,-0.437C2.003,-0.477 2.136,-0.514 2.253,-0.554C2.267,-0.559 2.281,-0.564 2.297,-0.57C2.432,-0.622 2.658,-0.709 2.893,-0.618C2.917,-0.608 2.94,-0.598 2.964,-0.585L3.008,-0.56L3.045,-0.524C3.071,-0.499 3.303,-0.273 3.412,0.03C3.47,0.148 3.584,0.352 3.675,0.454L3.69,0.473C3.708,0.495 4.12,1.023 4.322,1.342C4.603,1.781 4.695,2.34 4.592,2.957C4.548,3.219 4.471,3.479 4.362,3.734C4.248,4.002 4.117,4.224 3.964,4.41C3.55,4.913 2.853,5.207 2.229,5.142C2.075,5.126 1.921,5.087 1.758,5.024C1.529,4.935 1.324,4.812 1.19,4.727C1.169,4.713 1.146,4.698 1.121,4.682C0.887,4.683 0.417,4.659 0,4.498" style="fill:rgb(30,30,28);fill-rule:nonzero;"/>
    </g>
    <g transform="matrix(8.33333,0,0,8.33333,40.926,1212.67)">
        <path d="M0,-4.854C0.192,-4.793 0.398,-4.722 0.6,-4.565C0.983,-4.266 1.203,-3.823 1.271,-3.21C1.324,-2.735 1.273,-2.256 1.123,-1.825C0.905,-1.198 0.484,-0.671 -0.062,-0.342C-0.437,-0.117 -0.837,-0.001 -1.224,0.11C-1.316,0.136 -1.409,0.163 -1.502,0.191C-1.667,0.242 -1.797,0.288 -1.911,0.336C-1.925,0.342 -1.938,0.348 -1.954,0.356C-2.085,0.417 -2.305,0.518 -2.545,0.443C-2.57,0.435 -2.595,0.425 -2.618,0.415L-2.664,0.392L-2.703,0.36C-2.731,0.336 -2.978,0.125 -3.106,-0.169C-3.172,-0.283 -3.3,-0.478 -3.396,-0.575L-3.414,-0.592C-3.433,-0.613 -3.879,-1.113 -4.103,-1.416C-4.411,-1.837 -4.541,-2.388 -4.479,-3.01C-4.452,-3.274 -4.393,-3.541 -4.302,-3.801C-4.205,-4.077 -4.09,-4.306 -3.949,-4.502C-3.569,-5.032 -2.894,-5.372 -2.268,-5.348C-2.112,-5.342 -1.955,-5.315 -1.789,-5.262C-1.556,-5.189 -1.343,-5.08 -1.203,-5.003C-1.181,-4.992 -1.156,-4.978 -1.131,-4.963C-0.896,-4.979 -0.427,-4.988 0,-4.854" style="fill:rgb(30,30,28);fill-rule:nonzero;"/>
    </g>
    <g transform="matrix(8.33333,0,0,8.33333,39.1593,1236.64)">
        <path d="M0,4.417C-0.124,4.577 -0.263,4.744 -0.48,4.878C-0.895,5.134 -1.386,5.186 -1.984,5.036C-2.448,4.921 -2.879,4.706 -3.231,4.415C-3.743,3.992 -4.09,3.415 -4.208,2.789C-4.289,2.357 -4.258,1.942 -4.228,1.542C-4.22,1.445 -4.213,1.349 -4.207,1.252C-4.197,1.08 -4.195,0.941 -4.2,0.818C-4.201,0.804 -4.202,0.788 -4.203,0.771C-4.215,0.627 -4.234,0.386 -4.08,0.187C-4.063,0.166 -4.046,0.146 -4.027,0.128L-3.991,0.093L-3.946,0.067C-3.915,0.05 -3.632,-0.107 -3.311,-0.126C-3.181,-0.148 -2.953,-0.2 -2.829,-0.258L-2.807,-0.268C-2.78,-0.277 -2.156,-0.522 -1.794,-0.626C-1.293,-0.769 -0.73,-0.698 -0.169,-0.423C0.069,-0.307 0.298,-0.158 0.511,0.019C0.735,0.204 0.91,0.392 1.045,0.593C1.409,1.133 1.492,1.885 1.253,2.464C1.193,2.607 1.112,2.744 1.005,2.883C0.855,3.076 0.679,3.237 0.559,3.342C0.539,3.358 0.519,3.376 0.496,3.395C0.429,3.62 0.273,4.063 0,4.417" style="fill:rgb(30,30,28);fill-rule:nonzero;"/>
    </g>
    <g transform="matrix(8.33333,0,0,8.33333,5.73681,1302.78)">
        <path d="M0,2.748C-0.159,2.622 -0.325,2.481 -0.457,2.263C-0.708,1.846 -0.754,1.353 -0.599,0.757C-0.479,0.295 -0.259,-0.135 0.036,-0.483C0.464,-0.99 1.045,-1.331 1.673,-1.442C2.105,-1.52 2.52,-1.483 2.92,-1.448C3.017,-1.44 3.112,-1.432 3.209,-1.425C3.382,-1.413 3.52,-1.409 3.644,-1.414C3.657,-1.414 3.673,-1.415 3.689,-1.416C3.834,-1.426 4.076,-1.442 4.273,-1.286C4.294,-1.271 4.312,-1.252 4.331,-1.233L4.366,-1.196L4.391,-1.152C4.409,-1.12 4.562,-0.835 4.577,-0.514C4.599,-0.384 4.647,-0.155 4.704,-0.031L4.714,-0.009C4.724,0.018 4.962,0.644 5.061,1.008C5.198,1.511 5.122,2.072 4.841,2.631C4.722,2.868 4.571,3.095 4.393,3.306C4.204,3.528 4.015,3.701 3.813,3.834C3.269,4.192 2.516,4.268 1.938,4.021C1.796,3.961 1.66,3.878 1.523,3.769C1.331,3.617 1.172,3.439 1.069,3.318C1.053,3.299 1.034,3.277 1.017,3.255C0.792,3.185 0.35,3.025 0,2.748" style="fill:rgb(30,30,28);fill-rule:nonzero;"/>
    </g>
    <g transform="matrix(8.33333,0,0,8.33333,21.6793,1395.88)">
        <path d="M0,-5.19C0.174,-5.294 0.364,-5.4 0.615,-5.446C1.094,-5.534 1.571,-5.403 2.074,-5.047C2.465,-4.771 2.788,-4.415 3.011,-4.015C3.334,-3.436 3.447,-2.772 3.33,-2.145C3.25,-1.714 3.07,-1.339 2.896,-0.977C2.854,-0.889 2.813,-0.802 2.771,-0.714C2.7,-0.557 2.647,-0.429 2.608,-0.312C2.604,-0.298 2.599,-0.284 2.594,-0.267C2.553,-0.129 2.482,0.103 2.267,0.232C2.244,0.246 2.221,0.257 2.196,0.268L2.149,0.288L2.1,0.295C2.063,0.3 1.742,0.344 1.436,0.245C1.307,0.218 1.076,0.184 0.94,0.193L0.916,0.193C0.888,0.194 0.217,0.195 -0.158,0.16C-0.677,0.111 -1.176,-0.159 -1.599,-0.619C-1.778,-0.814 -1.937,-1.035 -2.072,-1.277C-2.214,-1.532 -2.309,-1.77 -2.361,-2.005C-2.505,-2.641 -2.31,-3.373 -1.876,-3.825C-1.769,-3.937 -1.644,-4.036 -1.493,-4.126C-1.283,-4.251 -1.061,-4.336 -0.91,-4.39C-0.887,-4.399 -0.86,-4.409 -0.833,-4.418C-0.688,-4.603 -0.383,-4.961 0,-5.19" style="fill:rgb(30,30,28);fill-rule:nonzero;"/>
    </g>
    <g transform="matrix(8.33333,0,0,8.33333,24.2426,1412.4)">
        <path d="M0,5.753C-0.195,5.806 -0.407,5.856 -0.661,5.831C-1.146,5.785 -1.568,5.53 -1.956,5.051C-2.257,4.679 -2.471,4.247 -2.576,3.803C-2.729,3.157 -2.658,2.487 -2.374,1.916C-2.179,1.524 -1.904,1.212 -1.638,0.91C-1.574,0.838 -1.51,0.765 -1.447,0.691C-1.335,0.56 -1.25,0.451 -1.18,0.349C-1.172,0.337 -1.163,0.324 -1.154,0.31C-1.076,0.189 -0.946,-0.016 -0.703,-0.082C-0.678,-0.089 -0.652,-0.094 -0.626,-0.097L-0.575,-0.103L-0.525,-0.097C-0.488,-0.092 -0.168,-0.047 0.1,0.133C0.217,0.193 0.429,0.289 0.562,0.317L0.586,0.324C0.613,0.331 1.259,0.513 1.61,0.649C2.097,0.837 2.502,1.232 2.784,1.79C2.904,2.026 2.997,2.283 3.061,2.552C3.127,2.836 3.153,3.091 3.141,3.332C3.104,3.983 2.718,4.634 2.178,4.95C2.043,5.029 1.896,5.09 1.728,5.135C1.491,5.199 1.253,5.221 1.095,5.232C1.069,5.233 1.041,5.235 1.013,5.236C0.823,5.376 0.432,5.636 0,5.753" style="fill:rgb(30,30,28);fill-rule:nonzero;"/>
    </g>
    <g transform="matrix(8.33333,0,0,8.33333,47.0618,1488.04)">
        <path d="M0,2.66C-0.037,2.859 -0.085,3.071 -0.217,3.29C-0.469,3.706 -0.883,3.977 -1.482,4.118C-1.948,4.226 -2.43,4.233 -2.876,4.135C-3.523,3.993 -4.097,3.638 -4.487,3.134C-4.757,2.787 -4.918,2.404 -5.074,2.034C-5.111,1.944 -5.149,1.855 -5.188,1.766C-5.258,1.608 -5.319,1.485 -5.381,1.378C-5.388,1.365 -5.396,1.351 -5.405,1.338C-5.48,1.215 -5.608,1.009 -5.562,0.761C-5.557,0.735 -5.55,0.71 -5.542,0.684L-5.525,0.637L-5.498,0.595C-5.478,0.563 -5.298,0.294 -5.021,0.131C-4.915,0.052 -4.736,-0.098 -4.652,-0.205L-4.637,-0.225C-4.618,-0.246 -4.175,-0.748 -3.899,-1.006C-3.519,-1.361 -2.986,-1.557 -2.361,-1.569C-2.097,-1.573 -1.825,-1.546 -1.555,-1.486C-1.271,-1.423 -1.029,-1.336 -0.817,-1.219C-0.247,-0.904 0.171,-0.274 0.222,0.35C0.234,0.506 0.226,0.664 0.193,0.836C0.148,1.076 0.064,1.301 0.005,1.448C-0.004,1.473 -0.015,1.498 -0.026,1.524C0.018,1.756 0.082,2.221 0,2.66" style="fill:rgb(30,30,28);fill-rule:nonzero;"/>
    </g>
    <g transform="matrix(8.33333,0,0,8.33333,30.6226,1599.36)">
        <path d="M0,5.222C-0.175,5.324 -0.366,5.427 -0.618,5.471C-1.098,5.553 -1.573,5.417 -2.072,5.057C-2.46,4.777 -2.779,4.416 -2.998,4.015C-3.315,3.432 -3.422,2.767 -3.298,2.142C-3.212,1.711 -3.028,1.338 -2.851,0.978C-2.808,0.891 -2.765,0.804 -2.724,0.717C-2.65,0.56 -2.597,0.433 -2.556,0.317C-2.551,0.303 -2.547,0.287 -2.541,0.272C-2.498,0.134 -2.426,-0.097 -2.209,-0.224C-2.186,-0.238 -2.162,-0.25 -2.138,-0.259L-2.091,-0.279L-2.041,-0.286C-2.004,-0.291 -1.683,-0.331 -1.378,-0.228C-1.249,-0.2 -1.019,-0.164 -0.883,-0.171L-0.858,-0.172C-0.83,-0.171 -0.16,-0.166 0.215,-0.127C0.733,-0.072 1.229,0.202 1.647,0.667C1.825,0.865 1.982,1.087 2.114,1.33C2.253,1.586 2.345,1.826 2.396,2.063C2.532,2.7 2.329,3.429 1.891,3.876C1.781,3.988 1.655,4.084 1.505,4.172C1.294,4.296 1.069,4.38 0.919,4.432C0.895,4.441 0.869,4.45 0.841,4.458C0.695,4.642 0.386,4.995 0,5.222" style="fill:rgb(30,30,28);fill-rule:nonzero;"/>
    </g>
    <g transform="matrix(8.33333,0,0,8.33333,2.15598,1558.28)">
        <path d="M0,-0.122C-0.064,-0.314 -0.126,-0.523 -0.116,-0.778C-0.099,-1.265 0.132,-1.702 0.589,-2.116C0.942,-2.437 1.361,-2.676 1.799,-2.807C2.435,-2.997 3.107,-2.964 3.693,-2.714C4.098,-2.541 4.424,-2.284 4.74,-2.036C4.816,-1.976 4.893,-1.917 4.97,-1.858C5.107,-1.754 5.221,-1.676 5.326,-1.611C5.339,-1.603 5.353,-1.596 5.367,-1.588C5.493,-1.518 5.705,-1.398 5.784,-1.16C5.793,-1.135 5.799,-1.109 5.804,-1.084L5.812,-1.033L5.81,-0.983C5.807,-0.946 5.779,-0.623 5.616,-0.347C5.562,-0.226 5.479,-0.009 5.458,0.127L5.453,0.15C5.447,0.179 5.304,0.833 5.187,1.191C5.027,1.688 4.657,2.115 4.116,2.43C3.887,2.563 3.636,2.67 3.371,2.749C3.092,2.832 2.838,2.873 2.597,2.873C1.945,2.875 1.273,2.526 0.926,2.005C0.84,1.876 0.771,1.732 0.716,1.566C0.639,1.335 0.603,1.098 0.583,0.94C0.579,0.915 0.576,0.888 0.573,0.858C0.423,0.678 0.141,0.302 0,-0.122" style="fill:rgb(30,30,28);fill-rule:nonzero;"/>
    </g>
</svg>
