<svg data-v-d9ea982a="" version="1.1" id="logo_supermarket_svg__Layer_1" xmlns="http://www.w3.org/2000/svg" x="0" y="0" viewBox="0 0 1080 998.4" xml:space="preserve" alt="The Vegan Kind Supermarket" data-not-lazy="" class="hidden sm:block duration-200 h-24"><style>.logo_supermarket_svg__st0{fill:#020203}</style><path d="M425.1 857.2c-3.8.5-5 5.5-5.9 10.5-1.1 6.2-.6 12.1 5 11.7 4.9-.4 14.7-2.3 15.6-11.7.6-7.9-9.6-10.9-14.7-10.5zM285.4 870.3c-9.1-4.7-22.5-5-23.3 1.5-1.2 5.2-2.3 10.4-3.2 15.7-.3 3.1 2 5.8 5 5 9.6-2.3 16.7-6.4 22.4-13 2.4-2.7 2.1-7.6-.9-9.2zM633.3 857c-2.1-.9-3.8.3-5 2.2-4.3 8.3-8.5 16.8-8.3 19.6.2 2.3 1.5 3.5 5.6 3.2 4.3-.3 9.5-3.5 9.4-8.2.9-12.6 1.2-15.9-1.7-16.8zM700.4 834.3c-3.8.5-5 5.5-5.9 10.5-1.1 6.2-.6 12.1 5 11.7 4.9-.4 14.7-2.3 15.6-11.7.7-7.8-9.6-10.9-14.7-10.5z"></path><path d="M1071 760.9L0 816.9l9 181.4 1071-56-9-181.4zM132.9 868.4c-7.2.3-14 2.3-20.3 6.1-6.4 4.1-6.4 7.7-.2 11.3 17 10.6 27.3 15.2 28.6 32.8 1.3 17.4-14.8 33-33.7 34.4-12.5.9-27.2-6.7-27.9-15.9-.3-4.6 2.7-8.9 7.3-9.3 6.6-1.3 12.3 6.3 21.5 5.6 7.4-.6 14-8.2 13.6-13.9-.7-6.1-8.3-10.9-17.1-15.9-10.2-5.9-18.1-11.5-18.7-20.4-1.3-17.4 22.7-32.8 42.1-34.2 10.2-1.3 20 2.4 20.5 9.5.7 9.4-7.6 9.3-15.7 9.9zm92.2-4.2c-4 18.8-8 37.3-14.6 55.3-4.3 11.4-11.5 21.9-18.4 26-9.8 5.9-20.8 3.1-26.9-6.5-8.6-16.1-7.5-45.4-3.8-64.7 1.2-8.1 5.8-12.2 11.2-11.1 8.6 1.9 7.9 9.2 6.7 18-2.9 15.9-3.6 45 4.1 44.4 5.9-.4 11.9-16 17.9-42.2 2-7.9 3.7-15.4 5.5-23.3 1.7-8.1 5.3-11.2 12.1-9.9 5.5 1.2 8 6.7 6.2 14zm77.9 25.1c-8.8 12.5-30.7 22.8-43.9 23.8-6.1 1-7 2.6-8.6 11.7-.7 4.9-1.3 10.1-1.7 15.3-.2 7.5-5.4 10.2-10.8 9.5-3.4-.3-5.8-2.1-6.8-5.4-2-6.5-.8-14.6.8-23.7l11.4-53.5c1.5-10.9 6.7-16.7 17.4-18.5 12.1-2.4 23-.9 32.9 4.2 14.9 7.7 18.8 22.6 9.3 36.6zm76.8-36.5c-2.3.7-12.6.9-19.8 1.4-6.4.2-10 3.1-11.1 9.3-.6 2.6-3.1 10.5-3.7 12.6-1 4.2 1 7.1 5.4 7 14.4.5 23.4.3 21.4 11.2-.5 3.9-3.4 6.4-6.9 6.9-6.3 1.2-24.4 0-28 3.9-1.7 1.9-5.2 15.8-6.1 21-1.6 6.5 5.9 6.5 12 6l19.4-1.4c7.9-.6 12.5 2.4 12.9 7.8.2 5.6-4.1 9.8-11.3 10.9-14 1.8-41.4 3.1-46.1 1.6-5.5-1.9-8.4-5.8-8.8-11.4-.5-6.9 8.2-38.1 13-53.4 7.6-26 10.2-35.4 12.6-41.3 2.4-5.3 6.3-8.2 11.9-8.6 7.4-.6 27.7-1.2 31.6-1.3 4.4-.1 8.2 3.8 8.6 8.6 0 4.3-2.8 7.8-7 9.2zm75.8 84.6c-9-.8-14.4-11.5-19.1-18.9-3.3-5.3-13.3-21.7-20.9-12.2-2.1 2.6-2.4 7.2-2.7 10.3-2.4 20-1 24.5-11.1 23.4-10.8-.7-9.4-15.5-7.5-28.5-.2.8 5.8-46.7 7.4-58.6 1.5-10.4 6.6-15.1 17.1-15.7 14.6-.3 26.9 4.5 35.4 16.4 3.2 4.5 4.2 10.3 3.8 15.8-.6 7.1-3.8 13.6-8.5 18.9l-2.6 2.9c-2.6 2.6-1.7 5.3 2 12 3.9 7.1 15.7 20.7 15.8 28.1-.1 4.9-4.4 6.5-9.1 6.1zm124.8-85.5c-5.8 33.1-13.3 73.7-14.7 77.9-2 4.5-5.9 6.6-10.6 5.9-5-.9-7-3.8-7.4-9.2-.4-8.7 3.9-23.9 8.1-46.8.7-3.9-4-5.1-6-1.9-2.3 3.5-10.2 17.7-12.4 19.7-5.9 6.9-14.2 5.9-17.9-2.5-2.7-5.2-5.2-24.8-11.1-24.4-4.9.4-11 28.6-13.2 44.1-1.2 8.6-5.5 12.7-11.4 11.9-4.4-1-7.8-5.3-7.7-10.2 0-3.3.6-6.2 1.1-9.3 4.2-19.6 13.8-59.6 19.5-69 4.4-6.5 11.8-7.6 17.6-2.1 5.2 4.2 9 13.7 13.8 23.6 2.7 5.7 5.6 5.8 9.3.3l9.5-13.8c13.2-19 20.1-23.6 27.8-20.3 7.3 2.9 8.7 10.2 5.7 26.1zm70.8 66c-1.1 5.5-4.8 8.3-9.9 7.9-9.8-.8-7.4-9.5-8.1-18.4-.3-4.6-3.7-4.3-10.9-4.3-14.2-.1-14.2-.1-19.3 16.9-1.4 4.8-6.3 8.2-9.4 8.4-5.6.4-8.8-4.5-9.1-8.6-.6-7.7 7.3-26.2 13.2-40.3 8.9-22.2 26.1-60 40.1-61 12.8-1 16.1 15.5 17 28.5.4 11.2-1.8 63.8-3.6 70.9zm79.7-3.3c-9-.8-14.4-11.5-19.1-18.9-3.3-5.3-13.3-21.7-20.9-12.2-2.1 2.6-2.3 7.2-2.7 10.3-2.4 20-1 24.5-11.1 23.4-10.8-.7-9.4-15.5-7.5-28.5-.2.8 5.8-46.7 7.4-58.6 1.5-10.4 6.6-15.1 17.1-15.7 14.6-.3 26.9 4.5 35.4 16.4 3.2 4.5 4.2 10.3 3.8 15.8-.6 7.1-3.8 13.6-8.5 18.9l-2.6 2.9c-2.6 2.6-1.7 5.3 2 12 3.9 7.1 15.7 20.7 15.8 28.1-.1 4.9-4.4 6.5-9.1 6.1zm66.3-49c-2.7 2.7-2.9 4.9-.9 7.3 1.4 1.6 2.8 3.1 4.1 4.7l20.7 25.9c3.5 4.6 5 8.4 1.9 12.7-3.1 4-7.9 4.9-12.9 1.9-3.1-1.7-21.1-25.6-28.5-31.3-2.6-2-5.7-.3-6.7 2.4-2.8 8.4-2.7 19.1-5.8 25.2-2.1 3.4-6.1 4.9-10.3 3.9-4-.8-6.7-4-6.7-8.2-.1-5.1 18.2-84.1 20.2-88.7 1.4-3 3.2-5.3 6-5.7 9.4-1.2 15 4 10.4 16.5-1.5 6-3.2 11.3-4.1 15.3-.6 2.8 2.6 4.8 4.8 3 2.4-1.9 16.1-16.4 36.2-36.8 3.2-3.3 7.7-4.2 10.6-1.8 4 2.8 4.8 7.1 2.3 11.6-4.7 9.2-12.5 12.6-41.3 42.1zm113.2-42.8c-2.3.7-12.7-.3-19.8.3-6.4.2-10 3.1-11.1 9.3-.6 2.6-3.1 11.2-3.7 13.3-1 4.2 1 7.1 5.4 7 14.4.5 23.4-.4 21.4 10.6-.5 3.9-3.4 6.4-6.9 6.9-6.3 1.2-24.4 0-28 3.9-1.7 1.9-5.2 15.8-6.1 21-1.6 6.5 5.9 6.5 12 6l19.4-1.4c7.9-.6 12.5 2.4 12.9 7.8.2 5.6-4.2 9.8-11.3 10.9-14 1.8-41.4 3.1-46.1 1.6-5.5-1.9-8.4-5.8-8.8-11.4-.5-6.9 8.2-38.1 13-53.4 7.6-26 10.2-35.4 12.6-41.3 2.4-5.3 6.3-8.2 11.9-8.6 7.4-.6 27.8-.1 31.7-.1 4.4-.1 8.2 3.8 8.6 8.6 0 4.2-2.8 7.7-7.1 9zm106.7-8.5c-.6 5.7-4.6 7.8-14.3 8.5-8.9.7-17.5-1.2-21 8.8-3.1 9-5.3 18.1-8.3 27.1-7.9 25-14.5 48.3-16.4 50.5-2.5 4.3-7 5.9-11.5 4.7-4-1.5-6.4-6.2-5.4-10.6.9-4.9 9-31.7 21.4-71.9 1.3-8.4-6.6-6.7-10.7-6.4-11.2 1.3-17.3 1.8-19-7.1-1-6.3 4.6-10.9 14.8-11.6l29.1-1.1c17.5-1.3 31.8-1.9 36 .1 3.7 1.7 5.7 5.1 5.3 9z"></path><g><path d="M932.4 472.4h-20.1c-.8 0-1.4.6-1.4 1.4v2.9c0 .8.6 1.4 1.4 1.4h5.5c.8 0 1.4.6 1.4 1.4V500c0 .8.6 1.4 1.4 1.4h3.6c.8 0 1.4-.6 1.4-1.4v-20.5c0-.8.6-1.4 1.4-1.4h5.5c.8 0 1.4-.6 1.4-1.4v-2.9c-.1-.8-.7-1.4-1.5-1.4zM971 472.4h-7.2c-.6 0-1.1.4-1.3.9l-6.4 17.9h-.1l-6.3-17.9c-.2-.5-.7-.9-1.3-.9h-7.3c-.8 0-1.4.6-1.4 1.4v26.1c0 .8.6 1.4 1.4 1.4h3.6c.8 0 1.4-.6 1.4-1.4v-20.7h.1l7 21.2c.2.6.7.9 1.3.9h2.9c.6 0 1.1-.4 1.3-.9l7.3-21.2h.1v20.7c0 .8.6 1.4 1.4 1.4h3.6c.8 0 1.4-.6 1.4-1.4v-26.1c-.1-.8-.8-1.4-1.5-1.4zM560.6 406.2c2-2 4.4-3.5 6.4-2 .9.7 1 1.9 1.1 3.1.6 9.5 1.4 21.5 13.6 21.8 7.4.2 3.7.1 11.1-.2 10.3-.5 31.8-1.4 31.8-15.9.1-20.9-1-72-1.2-78.9-.1-3.3-1-11.9 2.4-13.5 6.3-3 14.4 1.3 19.2-5 5.4-7 8-24.2.6-30.7-3.3-2.9-7.9-2.5-12-2.5-20.8.1-41.6.1-62.4.8-4.8.2-9.6.3-14.3.7-4.5.3-10.7-.7-12.2 4.8-2 7.2-2.4 14.9-1 22.2.6 3.5 1.9 7.4 5.1 9.2 3.9 2.2 9 .8 13.2 1.5 7.3 1.3 4.7 7.7 1.8 12.4-8.1 13.2-26.3 13.8-39.9 10.9-16.6-3.6-27.7-14.9-33.5-30.6-8.5-22.9-5.6-48.8 6.8-69.6 11-18.5 30.7-33.6 51.9-20.6 10.3 6.3 15 19.6 20.5 30.6 2 4 6.2 7.4 10.7 7.3 0 0 50.5 4.4 50.8-14.2.2-14.1 1.8-68.5-4-85.4-1.6-4.5-9.3-5.4-13.8-5.8-10.3-.8-25.1-2.5-32.2 3.7-5.1 4.4-3.9 14.7-3.9 14.7 1 6.5-4.6 8.2-8.7 3.2-27.2-33.3-84.9-27.9-113.5.8-9.4 9.4-16.9 20.6-23 32.3-14.9 28.4-21.6 60.9-20.1 92.9 1.8 37.4 13 78.7 42.4 104 11.2 9.7 25.4 15.7 39.9 18.4 22.4 4.3 47.1 1.9 62.9-16.2.6-.8 1.9-2.7 3.5-4.2zM216.4 329.3c.1 2.4.3 4.9.6 7.3 2.7 28.1 11.9 58.3 34.6 76.7 20.9 16.9 48.6 18.7 73.4 10.3 26.4-9 47.5-27.3 62.2-50.8 4.7-7.5 8.8-15.4 12.1-23.7 1.5-3.9 2.8-8 2.8-12.2 0-8.7-7.7-14.9-16.1-11.9-6.4 2.2-10.9 8.1-15.5 12.9-5.4 5.7-10.9 11.3-17.1 16.2-8 6.3-17.3 11.3-27.4 12.4-11.8 1.4-24.1-2.9-29.7-13.6-3-5.7-3.4-10.6-3.6-15.7-.1-2.7 1.5-5.1 4-6.1 10.2-3.8 24.4-8.1 33.4-12 28.4-12.2 59-33.2 66.5-79.7 4-24.5-1.4-56.5-22.6-72.2-20-14.8-48.8-10.2-70.2-1.9-23.4 9.1-43.5 27.3-57.7 47.9-23.1 33.3-32.1 75.9-29.7 116.1zm67.4-57.9c-.1-2.6.3-5.4.9-7.7 3.9-17.2 13.4-32.5 26.3-44.4 9-8.3 24.7-20.3 37.7-14.6 11.8 5.2 8.2 24 4.3 33.1-5.7 13.2-15.6 24.4-27.6 32.2-6.4 4.1-13.1 8-20.4 10.2-4.9 1.5-11.4 3-16.2.4-3.7-1.8-4.9-5.4-5-9.2zM839.6 465.3c-24.8-7.7-97-18.1-111.4-7.8-7.6 5.4-11 15.2-10.9 26.7.1 18.2 1 196.6 6.2 230.2 3.8 24.5 41.5 25 67.7 17.5 32.7-9.4 124.4-60.2 123.7-170.6-.2-47.9-28.6-81.4-75.3-96zm5.7 133.6c-7.1 18.1-24.6 36.6-47.1 44.7-4.2 1.5-8.6-1.6-8.8-5.7-.7-17.5-1.9-89.2.2-104.7.4-2.8 3.1-4.7 6.2-4.4 10.1.9 22 4.9 30 8.7 25.2 12.1 26.8 42.7 19.5 61.4zM445.3 510.4c-9.1-4.8-20.6-6.5-38.6-5.8-7.7.3-10.4 8.9-9.9 19.8 1.5 34.3 4.7 105.5 5.3 123.6.4 11.5 2.8 13.6 10.4 16.8 12.3 5.1 26.5 7.9 37.9 6.7 5.3-.6 7.9-5.1 7.4-14.7 0 0-3.4-97.9-3.4-111.7 0-19.1-.7-30.3-9.1-34.7z"></path><ellipse transform="matrix(1 -.00237 .00237 1 -1.08 1.005)" cx="423" cy="456" rx="29.8" ry="30.5"></ellipse><path d="M445.3 697.9c-19.6-1.9-47.4-5.4-74.6-20.2-26.7-14.6-50.6-35.4-69.6-59.6-.8-1-8.5-10.4-8.1-10.9 19.8-24.2 40-48.3 56.7-74.7 11-17.3 18-36.8 16.9-57.4-.4-7.8-2.2-16.5-8-22.1-7.7-7.4-18.1-5.1-25.3 1.6-3.9 3.6-6.8 8-9.8 12.4-15.5 22.7-31.8 44.7-50.6 64.8-14.2 15.3-29.5 29.3-44.4 43.9-.8.8-2.2.1-2.1-1.1 0 0 11.6-106.3 8.1-127-2.6-15.1-32-33.8-52.1-27.9-15.1 4.5-21.8 51.4-25.3 119.2-.3 6.7-7.2 175.7-3.6 184.5 7.8 19.4 34.3 23.1 49.2 20.8 20.6-3.1 27.3-5.6 28.5-27.9 1-19.1 1-35.5 2-46.3.2-2.1 1.1-4 2.7-5.4 3.9-3.7 11.8-11.1 15.7-15 .5-.5 1.4-.4 1.8.1 19.9 25.4 42.6 51.9 67.9 70.4 25.5 18.6 58.6 40.1 91.5 29.4 12-3.9 22.6-12.2 29-23.1 2.5-4.1 14.1-27.5 3.5-28.5zM1031.5 413c4.5-26.9 20.4-214.9 19.7-249.4-.5-23.5-21-31.6-43-33-25.4-1.6-30.3 20.9-29.9 30.4.6 14.9 2.3 71.6 2.3 90.5.1 23.9 5.3 54.5-3.9 38.3 0-.1-32.5-79.3-59.2-122-13.9-22.2-46.9-17.9-62.3-5.9-16.6 13.1-10.7 40.7-11.6 58.4-1 19.7 4 175.9 5.8 183.9 3.7 16.8 27.4 28.3 47 24.4 18.8-3.8 12.3-62.4 11.8-79.1-.3-9.4-1.4-25.1-1.6-34.5-.4-14.2 4.5-13.8 10.9-1 10.3 20.5 45.6 90.3 51.2 101.2 12.5 24.2 58.6 23.2 62.8-2.2zM144.1 408.5c8-17.6 65.9-152.8 79.9-213.5 8.8-38.2-16-68.3-47.1-65-10.3 1.1-19.7 6.1-27 13.3-31.8 31.5-38.4 97.2-38.6 96-8.5-46.7-11.9-107.5-65.3-102.7-36 3.3-42.8 37.7-35.5 60.9C23.9 240.1 44.9 316 66.2 370.4c14.1 36 28.1 62 40.7 64.1 18.6 3.1 28.4-6.5 37.2-26zM781.4 398.3c4 19.4 14.8 26.1 30.3 21.7 8.7-2.5 14.6-12.2 13.8-21.3-.8-9.1-4.9-62.5-11.1-96.3-7.1-38.6-25.3-142.8-61.7-152.5-42.5-11.4-62.6 71.2-70.2 99-7.1 26-12.6 52.5-17.1 79.1-2.6 15.1-5.9 30-7.5 45.2-1.1 9.8-4 25.3-3.4 35.4 1.3 22.1 26.1 26.8 39 19.6 8.1-4.5 11.6-16.3 11.5-25.1-.1-14.7 3.6-34.6 5.3-49.2l31-1.1c14.9-.5 25.5-1.2 35.5-1.2 1.3 12 3.3 37.5 4.6 46.7zm-11.2-93c-14.1-.3-36.5.6-54.7.8 9-41.3 23.9-87 31.1-87.2 7.2-.3 26.1 86.3 23.6 86.4zM693.8 492.5c-1.4-10.8-3.4-25.5-12.5-32.6-17-13.3-45.9-8.4-71.8 17.5-14.7 14.7-37.3 46.6-47.5 69.7 0 0 6.5-47.4-4.2-66.8-3.9-7.1-15.3-8.7-23.1-8.8-43.2-1-45.1 15.5-44.3 21.7.7 5.6 4 103.9.2 139.7-1.1 10.8-3.2 31.1-4.4 39.4-3.2 21.2-4.6 27.4 2.8 34.8 7.9 7.8 32.6 17.7 47.3 14.6 7-1.5 9.6-5.1 10.6-7.9 4.1-12 16.9-114.9 18.3-121.7.9-2.4 18.2-36.5 40.8-65 21.3-26.9 20.8 45.4 20.6 53.2-.7 29.9-2.1 123.6 1.4 141.5 4.4 22.6 25 25.7 40.2 24.5 20.4-1.6 42.7-7.5 33.9-27-15.1-33.4-4.1-194.7-8.3-226.8z"></path></g><g><path d="M426 111.6c-.5-5.1-.8-41.4 1-82.7.1-1.5-.3-3.1-1.3-4.6-2-3-5.2-4.3-10.3-4.3-9.8.3-11.9.8-16.4.5-16-.8-22.9-3.3-23.7-9.1C374.2 3.3 380.2 0 391.6 0l43.7.3c29.5 0 35.8-.1 42.1.8 7.5 1.1 13.8 4.8 13.4 9.4-.4 6.1-3.9 10.2-13.4 10.1-9.9-.1-6.6-.2-16.9-.5-6.9-.3-10.4 2.7-10.6 9.1.1 9.6-1.2 85.8-2.7 88-1.5 4.4-6.2 6.9-11.9 6.3-6.7-.7-9.1-7.2-9.3-11.9zM505.3 113.7c-2.7-13.7-2.3-92 .9-103.6.9-3 3.4-6.1 6.7-6.5 10.4-1.4 14.2 4.4 13.9 9.9 0 3-.5 34.3-.8 39.8.1 4.9 2.9 8 8.4 8.2h9.9c14.2 0 14.7 1.4 14.8-13.2.3-8.5.5-15.1.6-25.8.4-7.7 2.8-13.9 8.1-14.5 8-.9 13.6 2.1 14.1 10 .6 23.4-.4 49.2 0 70.9.6 18.1.9 26.4 0 27.7-1.7 3.8-5.2 4.8-9.6 5-7.8.3-10.5-5.4-11.6-21.1-.7-9.9-.1-17.9-7.2-17.9-3.5-.3-11.6 0-20.9 0-4.5 0-6.9 2.2-6.5 6.3.2 9.9 1.8 22.4.3 26.2-1.6 4.1-5.5 6.1-10.9 6-4.8.1-9.3-2.5-10.2-7.4zM608.9 107.1c-1.9-7.6-1.8-40.4-1-56.3.7-27.2.5-34.9 1.5-41 1.1-5.5 4.7-8.2 10.9-8.2 8.2 0 43.2-.3 47.5-.3 6.8 0 14.1 3.6 14.1 9.6 0 4.5-2.6 8.3-7 9.4-2.4.6-26.2 1.4-34.1 1.4-7.2-.3-10.5 2.5-9.8 9.1.1 2.7.6 10.4.6 12.6.2 4.4 2.6 8.5 7.5 8.7 18 0 29.7 1.5 29.3 11-.2 4.2-4.4 6.9-8.3 7.2-6.8.8-26.6-1.9-29.4 2-1.3 1.9-1.2 16.5-.6 22 .2 6.9 8.6 7.4 15.4 7.4H667c8.8 0 17.1 1.9 17 9.3-.1 6.3-5.7 9.8-13.4 10.3-15.3.8-43.6.3-49.4-1.5-7.9-2.5-10.7-6.6-12.3-12.7z" class="logo_supermarket_svg__st0"></path></g></svg>