<?xml version="1.0" encoding="UTF-8" standalone="no"?>
<!DOCTYPE svg PUBLIC "-//W3C//DTD SVG 1.1//EN" "http://www.w3.org/Graphics/SVG/1.1/DTD/svg11.dtd">
<svg width="100%" height="100%" viewBox="0 0 236 236" version="1.1" xmlns="http://www.w3.org/2000/svg" xmlns:xlink="http://www.w3.org/1999/xlink" xml:space="preserve" xmlns:serif="http://www.serif.com/" style="fill-rule:evenodd;clip-rule:evenodd;stroke-linejoin:round;stroke-miterlimit:2;">
    <g transform="matrix(8.33333,0,0,8.33333,178.458,142.724)">
        <path d="M0,-6.16C0.007,-6.004 0.011,-5.847 0.011,-5.689C0.011,-0.873 -3.655,4.681 -10.359,4.681C-12.417,4.681 -14.333,4.077 -15.945,3.044C-15.66,3.077 -15.37,3.094 -15.076,3.094C-13.368,3.094 -11.798,2.511 -10.55,1.534C-12.146,1.504 -13.49,0.451 -13.954,-0.997C-13.732,-0.955 -13.504,-0.931 -13.27,-0.931C-12.937,-0.931 -12.614,-0.976 -12.309,-1.06C-13.976,-1.394 -15.232,-2.868 -15.232,-4.633C-15.232,-4.649 -15.232,-4.664 -15.231,-4.679C-14.74,-4.406 -14.179,-4.242 -13.581,-4.223C-14.56,-4.876 -15.203,-5.993 -15.203,-7.257C-15.203,-7.924 -15.022,-8.55 -14.709,-9.089C-12.912,-6.884 -10.226,-5.433 -7.197,-5.281C-7.26,-5.548 -7.292,-5.826 -7.292,-6.112C-7.292,-8.124 -5.659,-9.756 -3.646,-9.756C-2.599,-9.756 -1.651,-9.313 -0.986,-8.605C-0.156,-8.768 0.624,-9.072 1.328,-9.489C1.056,-8.638 0.478,-7.924 -0.274,-7.473C0.462,-7.561 1.165,-7.757 1.818,-8.047C1.33,-7.316 0.712,-6.674 0,-6.16M4.12,5.411C8.709,-0.818 7.446,-9.596 1.254,-14.271C-2.92,-17.422 -8.272,-17.907 -12.77,-16.015C-12.872,-15.965 -12.975,-15.916 -13.074,-15.858C-15.177,-14.633 -16.318,-12.384 -16.276,-10.062C-16.63,-11.276 -16.687,-12.528 -16.479,-13.723C-17.836,-12.559 -19.012,-11.115 -19.897,-9.369C-22.79,-3.668 -21.458,3.374 -16.667,7.606C-13.134,10.728 -8.565,11.747 -4.369,10.868C-4.335,10.863 -4.303,10.86 -4.268,10.853C-2.674,10.512 0.412,10.091 3.254,10.965C3.479,11.035 3.68,10.803 3.569,10.594C3.073,9.662 2.501,7.767 4.122,5.413L4.12,5.411Z" style="fill:rgb(29,30,27);fill-rule:nonzero;"/>
    </g>
</svg>
