<?xml version="1.0" encoding="UTF-8" standalone="no"?>
<!DOCTYPE svg PUBLIC "-//W3C//DTD SVG 1.1//EN" "http://www.w3.org/Graphics/SVG/1.1/DTD/svg11.dtd">
<svg width="100%" height="100%" viewBox="0 0 1109 1152" version="1.1" xmlns="http://www.w3.org/2000/svg" xmlns:xlink="http://www.w3.org/1999/xlink" xml:space="preserve" xmlns:serif="http://www.serif.com/" style="fill-rule:evenodd;clip-rule:evenodd;stroke-linejoin:round;stroke-miterlimit:2;">
    <g transform="matrix(8.33333,0,0,8.33333,952.515,184.377)">
        <path d="M0,90.562L0.008,90.573C-9.011,100.525 -7.527,109.71 -5.801,114.363C-5.414,115.405 -6.492,116.362 -7.502,115.897C-20.194,110.05 -34.832,110.083 -42.473,110.676C-42.64,110.69 -42.791,110.682 -42.953,110.687C-63.05,112.159 -83.696,104.563 -98.209,87.814C-117.884,65.108 -119.696,31.468 -102.664,6.718C-97.448,-0.861 -91.065,-6.857 -84.024,-11.432C-85.732,-5.995 -86.252,-0.126 -85.359,5.748C-84.106,-5.092 -77.384,-14.857 -66.826,-19.255C-66.325,-19.464 -65.817,-19.626 -65.311,-19.796C-43.18,-25.8 -18.543,-20.205 -1.065,-2.918C24.863,22.724 25.267,64.405 0,90.562" style="fill:rgb(30,30,28);fill-rule:nonzero;"/>
    </g>
    <g transform="matrix(8.33333,0,0,8.33333,-1172.49,-3950.79)">
        <g transform="matrix(36.0097,0,0,36.0097,168.607,571.44)">
            <path d="M0.278,-0.015L0.275,-0.06C0.275,-0.073 0.269,-0.081 0.254,-0.081L0.16,-0.081C0.141,-0.081 0.133,-0.087 0.133,-0.106C0.132,-0.142 0.132,-0.173 0.132,-0.204L0.132,-0.325C0.132,-0.372 0.133,-0.432 0.134,-0.507C0.136,-0.582 0.137,-0.622 0.137,-0.628C0.137,-0.641 0.13,-0.65 0.118,-0.65L0.06,-0.65C0.048,-0.65 0.042,-0.641 0.042,-0.628C0.042,-0.622 0.042,-0.582 0.044,-0.507C0.045,-0.432 0.046,-0.372 0.046,-0.325C0.046,-0.278 0.045,-0.218 0.044,-0.143C0.042,-0.067 0.042,-0.027 0.042,-0.021C0.042,-0.009 0.048,-0 0.06,-0L0.26,-0C0.269,-0 0.278,-0.005 0.278,-0.015Z" style="fill:white;fill-rule:nonzero;"/>
        </g>
        <g transform="matrix(36.0097,0,0,36.0097,178.726,571.44)">
            <path d="M0.317,-0.139C0.317,-0.153 0.317,-0.2 0.316,-0.238C0.315,-0.276 0.314,-0.305 0.314,-0.325C0.314,-0.345 0.315,-0.374 0.316,-0.412C0.317,-0.45 0.317,-0.498 0.317,-0.512C0.317,-0.543 0.307,-0.577 0.287,-0.608C0.265,-0.641 0.233,-0.658 0.191,-0.658L0.17,-0.658C0.128,-0.658 0.097,-0.641 0.075,-0.608C0.054,-0.577 0.044,-0.543 0.044,-0.512C0.044,-0.498 0.044,-0.45 0.045,-0.412C0.046,-0.374 0.047,-0.345 0.047,-0.325C0.047,-0.305 0.046,-0.276 0.045,-0.238C0.044,-0.2 0.044,-0.153 0.044,-0.139C0.044,-0.107 0.054,-0.074 0.075,-0.042C0.097,-0.009 0.128,0.007 0.17,0.007L0.191,0.007C0.233,0.007 0.265,-0.009 0.287,-0.042C0.307,-0.074 0.317,-0.107 0.317,-0.139ZM0.229,-0.325C0.229,-0.228 0.228,-0.155 0.225,-0.123C0.222,-0.089 0.204,-0.074 0.181,-0.074C0.157,-0.074 0.139,-0.089 0.136,-0.123C0.133,-0.155 0.132,-0.228 0.132,-0.325C0.132,-0.422 0.133,-0.495 0.136,-0.528C0.139,-0.561 0.157,-0.577 0.181,-0.577C0.204,-0.577 0.222,-0.561 0.225,-0.528C0.228,-0.495 0.229,-0.422 0.229,-0.325Z" style="fill:white;fill-rule:nonzero;"/>
        </g>
        <g transform="matrix(36.0097,0,0,36.0097,191.474,571.44)">
            <path d="M0.325,-0.631C0.325,-0.645 0.314,-0.65 0.304,-0.65L0.256,-0.65C0.243,-0.65 0.237,-0.645 0.236,-0.636C0.204,-0.459 0.182,-0.307 0.165,-0.189C0.149,-0.307 0.125,-0.46 0.093,-0.637C0.091,-0.648 0.082,-0.65 0.073,-0.65L0.018,-0.65C0.004,-0.65 0,-0.64 0,-0.631C0,-0.627 0.007,-0.594 0.021,-0.531C0.048,-0.405 0.079,-0.253 0.1,-0.127C0.111,-0.065 0.116,-0.031 0.117,-0.025C0.12,-0.004 0.131,0.002 0.146,0.002L0.18,0.002C0.197,0.002 0.206,-0.006 0.208,-0.025C0.21,-0.033 0.215,-0.067 0.226,-0.127C0.249,-0.261 0.278,-0.408 0.305,-0.529C0.318,-0.591 0.325,-0.625 0.325,-0.631Z" style="fill:white;fill-rule:nonzero;"/>
        </g>
        <g transform="matrix(36.0097,0,0,36.0097,203.177,571.44)">
            <path d="M0.299,-0.015L0.297,-0.06C0.296,-0.073 0.291,-0.081 0.273,-0.081L0.171,-0.081C0.144,-0.081 0.132,-0.091 0.132,-0.106L0.132,-0.276C0.132,-0.287 0.137,-0.291 0.147,-0.291L0.225,-0.291C0.233,-0.291 0.242,-0.295 0.242,-0.312L0.242,-0.352C0.242,-0.365 0.238,-0.371 0.225,-0.371L0.146,-0.371C0.134,-0.371 0.132,-0.377 0.132,-0.385L0.132,-0.552C0.132,-0.565 0.141,-0.569 0.151,-0.569L0.27,-0.569C0.289,-0.569 0.295,-0.58 0.295,-0.586L0.299,-0.631C0.3,-0.641 0.289,-0.65 0.277,-0.65L0.06,-0.65C0.048,-0.65 0.042,-0.641 0.042,-0.628C0.042,-0.622 0.042,-0.582 0.044,-0.507C0.045,-0.432 0.046,-0.372 0.046,-0.325C0.046,-0.278 0.045,-0.218 0.044,-0.143C0.042,-0.067 0.042,-0.027 0.042,-0.021C0.042,-0.009 0.048,-0 0.06,-0L0.281,-0C0.291,-0 0.3,-0.005 0.299,-0.015Z" style="fill:white;fill-rule:nonzero;"/>
        </g>
        <g transform="matrix(36.0097,0,0,36.0097,219.525,571.44)">
            <path d="M0.311,-0.628C0.311,-0.641 0.304,-0.65 0.292,-0.65L0.243,-0.65C0.231,-0.65 0.224,-0.641 0.224,-0.628C0.224,-0.622 0.225,-0.582 0.227,-0.507C0.228,-0.432 0.229,-0.372 0.229,-0.325C0.229,-0.278 0.228,-0.155 0.225,-0.123C0.222,-0.089 0.204,-0.074 0.181,-0.074C0.157,-0.074 0.139,-0.089 0.136,-0.123C0.133,-0.155 0.132,-0.278 0.132,-0.325C0.132,-0.372 0.133,-0.432 0.135,-0.507C0.136,-0.582 0.137,-0.622 0.137,-0.628C0.137,-0.641 0.13,-0.65 0.119,-0.65L0.061,-0.65C0.049,-0.65 0.042,-0.641 0.042,-0.628C0.042,-0.622 0.043,-0.582 0.044,-0.507C0.046,-0.432 0.047,-0.372 0.047,-0.325C0.047,-0.305 0.046,-0.276 0.045,-0.238C0.044,-0.2 0.044,-0.153 0.044,-0.139C0.044,-0.107 0.054,-0.074 0.075,-0.042C0.097,-0.009 0.128,0.007 0.17,0.007L0.183,0.007C0.225,0.007 0.256,-0.009 0.278,-0.042C0.299,-0.074 0.309,-0.107 0.309,-0.139C0.309,-0.153 0.309,-0.2 0.308,-0.238C0.307,-0.276 0.306,-0.278 0.306,-0.325C0.306,-0.372 0.307,-0.432 0.309,-0.507C0.31,-0.582 0.311,-0.622 0.311,-0.628Z" style="fill:white;fill-rule:nonzero;"/>
        </g>
        <g transform="matrix(36.0097,0,0,36.0097,232.237,571.44)">
            <path d="M0.268,-0.162C0.268,-0.181 0.265,-0.196 0.261,-0.211C0.247,-0.269 0.204,-0.325 0.167,-0.371C0.145,-0.398 0.125,-0.429 0.115,-0.461C0.111,-0.474 0.109,-0.492 0.109,-0.506C0.109,-0.56 0.138,-0.58 0.16,-0.58C0.175,-0.58 0.185,-0.574 0.193,-0.568C0.201,-0.563 0.207,-0.557 0.212,-0.551C0.215,-0.547 0.22,-0.546 0.222,-0.546C0.226,-0.546 0.228,-0.55 0.229,-0.552C0.236,-0.564 0.251,-0.588 0.258,-0.599C0.259,-0.602 0.261,-0.606 0.261,-0.61C0.261,-0.614 0.258,-0.62 0.254,-0.623C0.246,-0.631 0.236,-0.638 0.215,-0.648C0.198,-0.656 0.181,-0.659 0.156,-0.659C0.118,-0.659 0.089,-0.646 0.061,-0.614C0.034,-0.583 0.022,-0.54 0.022,-0.497C0.022,-0.478 0.025,-0.462 0.029,-0.447C0.043,-0.39 0.086,-0.333 0.123,-0.288C0.146,-0.26 0.166,-0.229 0.175,-0.197C0.179,-0.184 0.181,-0.167 0.181,-0.153C0.181,-0.086 0.152,-0.071 0.129,-0.071C0.117,-0.071 0.105,-0.076 0.096,-0.082C0.085,-0.089 0.075,-0.098 0.067,-0.108C0.064,-0.112 0.06,-0.113 0.058,-0.113C0.052,-0.113 0.049,-0.11 0.047,-0.104C0.042,-0.091 0.028,-0.065 0.022,-0.054C0.02,-0.049 0.019,-0.045 0.019,-0.041C0.019,-0.034 0.024,-0.028 0.029,-0.024C0.039,-0.016 0.047,-0.012 0.062,-0.005C0.083,0.004 0.104,0.009 0.136,0.009C0.17,0.009 0.205,-0.006 0.228,-0.035C0.252,-0.065 0.268,-0.105 0.268,-0.162Z" style="fill:white;fill-rule:nonzero;"/>
        </g>
        <g transform="matrix(36.0097,0,0,36.0097,242.679,571.44)">
            <path d="M0.145,-0.638C0.145,-0.652 0.136,-0.659 0.126,-0.659L0.061,-0.659C0.05,-0.659 0.042,-0.652 0.042,-0.638C0.042,-0.626 0.045,-0.587 0.048,-0.523C0.057,-0.333 0.058,-0.228 0.058,-0.208C0.058,-0.196 0.064,-0.187 0.077,-0.187L0.11,-0.187C0.122,-0.187 0.128,-0.196 0.128,-0.208C0.128,-0.228 0.129,-0.333 0.139,-0.523C0.142,-0.587 0.145,-0.626 0.145,-0.638ZM0.142,-0.019L0.142,-0.088C0.142,-0.099 0.134,-0.107 0.123,-0.107L0.063,-0.107C0.053,-0.107 0.044,-0.099 0.044,-0.088L0.044,-0.019C0.044,-0.008 0.053,-0 0.063,-0L0.123,-0C0.134,-0 0.142,-0.008 0.142,-0.019Z" style="fill:white;fill-rule:nonzero;"/>
        </g>
    </g>
    <g transform="matrix(8.33333,0,0,8.33333,-1172.49,-3950.79)">
        <g transform="matrix(33.4803,0,0,33.4803,156.952,544.64)">
            <path d="M0.533,-0.631C0.533,-0.646 0.522,-0.65 0.512,-0.65L0.382,-0.65C0.372,-0.65 0.364,-0.645 0.362,-0.637C0.336,-0.55 0.304,-0.422 0.272,-0.273C0.24,-0.422 0.211,-0.552 0.186,-0.637C0.183,-0.647 0.175,-0.65 0.166,-0.65L0.018,-0.65C0.004,-0.65 0,-0.64 0,-0.631C0,-0.628 0.011,-0.595 0.031,-0.531C0.073,-0.405 0.117,-0.253 0.147,-0.127C0.163,-0.065 0.17,-0.031 0.171,-0.025C0.176,-0.003 0.185,0.002 0.2,0.002L0.333,0.002C0.35,0.002 0.357,-0.005 0.362,-0.025C0.364,-0.032 0.372,-0.066 0.386,-0.127C0.419,-0.265 0.462,-0.407 0.501,-0.528C0.523,-0.591 0.533,-0.625 0.533,-0.631Z" style="fill:white;fill-rule:nonzero;"/>
        </g>
        <g transform="matrix(33.4803,0,0,33.4803,174.797,544.64)">
            <path d="M0.475,-0.015L0.466,-0.152C0.465,-0.165 0.459,-0.173 0.438,-0.173L0.27,-0.173C0.242,-0.173 0.23,-0.184 0.23,-0.199L0.23,-0.229C0.23,-0.24 0.236,-0.244 0.246,-0.244L0.363,-0.244C0.372,-0.244 0.381,-0.249 0.381,-0.265L0.381,-0.388C0.381,-0.401 0.377,-0.407 0.363,-0.407L0.244,-0.407C0.233,-0.407 0.23,-0.413 0.23,-0.421L0.23,-0.46C0.23,-0.473 0.239,-0.477 0.25,-0.477L0.441,-0.477C0.46,-0.477 0.466,-0.488 0.467,-0.494L0.475,-0.631C0.475,-0.641 0.464,-0.65 0.453,-0.65L0.07,-0.65C0.059,-0.65 0.052,-0.641 0.052,-0.628C0.052,-0.622 0.053,-0.582 0.056,-0.507C0.06,-0.432 0.061,-0.372 0.061,-0.325C0.061,-0.278 0.059,-0.218 0.056,-0.143C0.053,-0.067 0.052,-0.027 0.052,-0.021C0.052,-0.009 0.059,-0 0.07,-0L0.457,-0C0.466,-0 0.475,-0.005 0.475,-0.015Z" style="fill:white;fill-rule:nonzero;"/>
        </g>
        <g transform="matrix(33.4803,0,0,33.4803,191.537,544.64)">
            <path d="M0.481,-0.012C0.481,-0.017 0.479,-0.04 0.477,-0.082C0.475,-0.124 0.474,-0.156 0.474,-0.179C0.474,-0.201 0.475,-0.23 0.477,-0.265C0.48,-0.301 0.481,-0.321 0.481,-0.326C0.48,-0.337 0.469,-0.344 0.457,-0.344L0.282,-0.344C0.269,-0.344 0.261,-0.335 0.261,-0.324L0.261,-0.247C0.262,-0.235 0.267,-0.231 0.278,-0.228C0.299,-0.221 0.304,-0.208 0.304,-0.197L0.304,-0.196C0.304,-0.178 0.293,-0.166 0.267,-0.166C0.243,-0.167 0.229,-0.177 0.227,-0.198C0.224,-0.219 0.223,-0.262 0.223,-0.325C0.224,-0.389 0.225,-0.431 0.227,-0.452C0.23,-0.474 0.243,-0.484 0.267,-0.484C0.309,-0.484 0.351,-0.464 0.37,-0.454C0.375,-0.45 0.382,-0.448 0.386,-0.448C0.393,-0.448 0.395,-0.451 0.396,-0.455C0.412,-0.498 0.435,-0.544 0.456,-0.575C0.459,-0.58 0.46,-0.583 0.46,-0.586C0.459,-0.594 0.455,-0.601 0.448,-0.605C0.436,-0.613 0.417,-0.623 0.391,-0.635C0.364,-0.648 0.333,-0.654 0.298,-0.654L0.214,-0.654C0.157,-0.654 0.115,-0.636 0.086,-0.6C0.058,-0.564 0.045,-0.527 0.044,-0.492C0.044,-0.477 0.045,-0.45 0.047,-0.412C0.049,-0.374 0.05,-0.345 0.05,-0.325C0.05,-0.305 0.049,-0.276 0.047,-0.238C0.045,-0.2 0.044,-0.174 0.044,-0.158C0.045,-0.123 0.058,-0.086 0.086,-0.051C0.115,-0.015 0.157,0.004 0.214,0.004L0.297,0.004C0.32,0.004 0.34,-0 0.357,-0.009C0.375,-0.018 0.388,-0.025 0.395,-0.033C0.4,-0.021 0.405,-0.012 0.408,-0.007C0.413,0.002 0.419,0.004 0.428,0.004L0.467,0.004C0.478,0.004 0.481,-0.003 0.481,-0.012Z" style="fill:white;fill-rule:nonzero;"/>
        </g>
        <g transform="matrix(33.4803,0,0,33.4803,208.98,544.64)">
            <path d="M0.533,-0.02C0.533,-0.022 0.522,-0.056 0.501,-0.12C0.46,-0.246 0.416,-0.397 0.386,-0.523C0.371,-0.585 0.363,-0.619 0.362,-0.625C0.357,-0.646 0.348,-0.652 0.333,-0.652L0.2,-0.652C0.183,-0.652 0.176,-0.645 0.171,-0.625C0.17,-0.618 0.162,-0.584 0.147,-0.523C0.114,-0.39 0.072,-0.242 0.031,-0.122C0.01,-0.059 0,-0.025 0,-0.02C0,-0.005 0.011,-0 0.021,-0L0.156,-0C0.167,-0 0.174,-0.006 0.176,-0.013L0.189,-0.071C0.193,-0.083 0.202,-0.087 0.21,-0.087L0.313,-0.087C0.326,-0.087 0.332,-0.08 0.334,-0.071L0.347,-0.013C0.349,-0.002 0.358,-0 0.367,-0L0.516,-0C0.529,-0 0.533,-0.01 0.533,-0.02ZM0.288,-0.253C0.289,-0.247 0.285,-0.245 0.28,-0.245L0.247,-0.245C0.239,-0.245 0.238,-0.248 0.239,-0.253L0.258,-0.331C0.259,-0.336 0.26,-0.34 0.264,-0.34C0.269,-0.34 0.27,-0.334 0.271,-0.331L0.288,-0.253Z" style="fill:white;fill-rule:nonzero;"/>
        </g>
        <g transform="matrix(33.4803,0,0,33.4803,226.825,544.64)">
            <path d="M0.509,-0.021C0.509,-0.027 0.508,-0.067 0.505,-0.143C0.502,-0.218 0.5,-0.278 0.5,-0.325C0.5,-0.372 0.501,-0.432 0.505,-0.507C0.508,-0.582 0.509,-0.622 0.509,-0.628C0.509,-0.641 0.502,-0.65 0.491,-0.65L0.352,-0.65C0.34,-0.65 0.333,-0.641 0.333,-0.628C0.333,-0.622 0.335,-0.588 0.339,-0.525C0.343,-0.462 0.345,-0.429 0.345,-0.424L0.345,-0.368L0.251,-0.628C0.245,-0.645 0.234,-0.65 0.22,-0.65L0.07,-0.65C0.059,-0.65 0.052,-0.641 0.052,-0.628C0.052,-0.622 0.053,-0.582 0.056,-0.507C0.06,-0.432 0.061,-0.372 0.061,-0.325C0.061,-0.278 0.059,-0.218 0.056,-0.143C0.053,-0.067 0.052,-0.027 0.052,-0.021C0.052,-0.009 0.059,-0 0.07,-0L0.209,-0C0.222,-0 0.228,-0.01 0.228,-0.021C0.228,-0.028 0.226,-0.064 0.222,-0.131C0.218,-0.198 0.216,-0.234 0.216,-0.239L0.216,-0.283C0.222,-0.267 0.236,-0.233 0.251,-0.19C0.274,-0.128 0.295,-0.073 0.31,-0.021C0.314,-0.007 0.332,-0 0.342,-0L0.491,-0C0.502,-0 0.509,-0.009 0.509,-0.021Z" style="fill:white;fill-rule:nonzero;"/>
        </g>
        <g transform="matrix(33.4803,0,0,33.4803,245.608,544.64)">
            <path d="M0.436,-0.176C0.436,-0.218 0.424,-0.258 0.4,-0.292C0.376,-0.327 0.336,-0.359 0.279,-0.388C0.249,-0.404 0.23,-0.416 0.223,-0.424C0.216,-0.432 0.212,-0.441 0.212,-0.451C0.212,-0.475 0.229,-0.489 0.256,-0.489C0.272,-0.489 0.289,-0.485 0.308,-0.479C0.327,-0.471 0.34,-0.465 0.35,-0.459C0.356,-0.455 0.363,-0.453 0.366,-0.453C0.372,-0.453 0.375,-0.457 0.375,-0.46C0.386,-0.488 0.407,-0.545 0.42,-0.575C0.422,-0.579 0.425,-0.585 0.425,-0.59C0.425,-0.596 0.419,-0.605 0.413,-0.608C0.398,-0.618 0.374,-0.629 0.34,-0.641C0.306,-0.653 0.268,-0.659 0.227,-0.659C0.172,-0.659 0.127,-0.641 0.09,-0.606C0.053,-0.57 0.034,-0.522 0.034,-0.473C0.034,-0.424 0.045,-0.383 0.068,-0.354C0.091,-0.324 0.124,-0.298 0.167,-0.275C0.208,-0.253 0.233,-0.237 0.243,-0.228C0.253,-0.218 0.258,-0.208 0.258,-0.197C0.258,-0.176 0.246,-0.161 0.217,-0.161C0.197,-0.161 0.178,-0.164 0.161,-0.17C0.132,-0.18 0.112,-0.192 0.095,-0.204C0.089,-0.208 0.084,-0.21 0.081,-0.21C0.072,-0.21 0.069,-0.206 0.067,-0.199C0.057,-0.153 0.047,-0.116 0.033,-0.079C0.031,-0.073 0.029,-0.064 0.029,-0.058C0.029,-0.049 0.038,-0.043 0.047,-0.039C0.063,-0.031 0.087,-0.021 0.118,-0.009C0.149,0.003 0.191,0.009 0.244,0.009C0.3,0.008 0.346,-0.007 0.382,-0.039C0.418,-0.071 0.436,-0.12 0.436,-0.176Z" style="fill:white;fill-rule:nonzero;"/>
        </g>
    </g>
</svg>
